M48
; DRILL file {KiCad 5.1.7} date Fri Oct  9 10:13:03 2020
; FORMAT={-:-/ absolute / inch / decimal}
; #@! TF.CreationDate,2020-10-09T10:13:03+01:00
; #@! TF.GenerationSoftware,Kicad,Pcbnew,5.1.7
; #@! TF.FileFunction,Plated,1,2,PTH
FMAT,2
INCH
T1C0.0157
T2C0.0315
T3C0.0335
T4C0.0354
T5C0.0433
T6C0.0512
T7C0.0591
T8C0.0591
T9C0.0827
%
G90
G05
T1
X3.063Y-3.0102
X3.063Y-3.3542
X3.4413Y-2.6659
X4.3239Y-3.3942
X4.334Y-3.3405
X4.3604Y-3.1303
X4.4348Y-3.0081
X4.4564Y-3.337
X4.5178Y-3.4428
X4.5221Y-3.1304
X4.7214Y-2.1773
X4.8102Y-2.6127
X5.1672Y-2.7309
X5.2959Y-3.9551
X5.9037Y-4.257
T2
X3.5742Y-4.5487
X3.8742Y-4.5487
X3.9949Y-4.094
X4.1918Y-4.094
X5.795Y-3.4439
X5.795Y-3.7439
X3.6307Y-3.4152
X3.9307Y-3.4152
X3.996Y-4.4644
X4.1929Y-4.4644
X4.0319Y-2.708
X4.3319Y-2.708
X6.243Y-2.6274
X6.243Y-2.9274
X3.9943Y-3.8498
X4.1912Y-3.8498
X6.3434Y-3.5111
X6.3434Y-3.708
X5.4396Y-4.3442
X5.6365Y-4.3442
X6.0648Y-3.5111
X6.0648Y-3.708
X4.4705Y-2.7133
X4.5492Y-2.7133
X3.9958Y-4.2168
X4.1927Y-4.2168
X7.0889Y-2.7915
X7.3889Y-2.7915
X5.6626Y-2.6274
X5.6626Y-2.9274
X2.6959Y-3.4088
X2.7746Y-3.4088
X4.0688Y-4.7886
X4.3688Y-4.7886
X4.4915Y-4.3878
X4.7915Y-4.3878
X6.2141Y-3.4459
X6.2141Y-3.7459
X3.7969Y-2.752
X3.8756Y-2.752
X4.4831Y-4.2544
X4.7831Y-4.2544
X3.6261Y-3.0242
X3.9261Y-3.0242
X2.9127Y-3.1973
X3.2127Y-3.1973
X6.1025Y-2.6279
X6.1025Y-2.9279
X5.9578Y-2.6279
X5.9578Y-2.9279
X3.455Y-2.8556
X3.455Y-2.9343
X3.9959Y-4.3412
X4.1928Y-4.3412
X4.8618Y-3.8076
X4.8618Y-4.1076
X5.9156Y-3.4439
X5.9156Y-3.7439
X6.0777Y-4.3665
X6.0777Y-4.5634
X3.2032Y-2.7711
X3.2032Y-3.0711
X2.7767Y-2.997
X2.9736Y-2.997
X4.2066Y-3.12
X4.2066Y-3.2578
X5.8087Y-2.6264
X5.8087Y-2.9264
X3.9947Y-3.9718
X4.1916Y-3.9718
X4.0317Y-2.8605
X4.3317Y-2.8605
X4.4482Y-2.9202
X4.7482Y-2.9202
X5.8175Y-3.0404
X5.8175Y-3.3404
X5.9175Y-3.0404
X5.9175Y-3.3404
X6.0175Y-3.0404
X6.0175Y-3.3404
X6.1175Y-3.0404
X6.1175Y-3.3404
X6.2698Y-3.1936
X6.3485Y-3.1936
X3.9948Y-3.7278
X4.1917Y-3.7278
X4.4054Y-3.5127
X4.4054Y-3.6127
X4.4054Y-3.7127
X4.4054Y-3.8127
X4.4054Y-3.9127
X4.4054Y-4.0127
X4.4054Y-4.1127
X4.7054Y-3.5127
X4.7054Y-3.6127
X4.7054Y-3.7127
X4.7054Y-3.8127
X4.7054Y-3.9127
X4.7054Y-4.0127
X4.7054Y-4.1127
X5.0242Y-3.8052
X5.0242Y-4.1052
X4.0582Y-3.0271
X4.0582Y-3.3271
X5.6667Y-3.0399
X5.6667Y-3.3399
X3.9958Y-4.5855
X4.1927Y-4.5855
X3.631Y-3.1852
X3.931Y-3.1852
X2.8156Y-2.7815
X2.9425Y-2.7802
X5.6617Y-3.8849
X5.6617Y-4.1849
X3.7979Y-5.6336
X3.7979Y-5.7714
X4.2167Y-5.0463
X4.2167Y-5.2432
X5.6642Y-3.4437
X5.6642Y-3.7437
T3
X4.6644Y-1.6272
X4.7934Y-1.6271
X3.4181Y-1.6286
X4.1214Y-1.629
X5.5723Y-1.6261
X4.6916Y-4.6232
X2.8693Y-1.6261
X4.8198Y-4.6234
X3.9927Y-1.629
X6.5503Y-1.6249
X5.7013Y-1.6261
X6.6801Y-1.6247
X5.3335Y-4.624
X4.9214Y-1.6272
X5.205Y-4.6239
X2.998Y-1.6262
X5.7181Y-4.6243
X7.3668Y-1.6283
X5.0765Y-4.6238
X6.42Y-1.6245
X7.4956Y-1.6285
X5.4618Y-4.6241
X4.9482Y-4.6236
X3.5465Y-1.6287
X5.5901Y-4.6243
T4
X6.0272Y-3.9395
X6.1272Y-3.9395
X5.1536Y-4.2931
X5.2536Y-4.2931
X4.3613Y-5.6439
X4.3613Y-5.7439
X4.7855Y-3.1468
X4.7855Y-3.2468
T5
X2.8476Y-1.8693
X2.8476Y-2.2693
T6
X4.6172Y-2.5002
X4.814Y-2.5002
X5.0109Y-2.5002
X3.8336Y-2.5006
X4.0304Y-2.5006
X4.2273Y-2.5006
X6.1845Y-2.5001
X6.3813Y-2.5001
X6.5782Y-2.5001
X6.9678Y-2.4999
X7.1646Y-2.4999
X7.3615Y-2.4999
X5.4008Y-2.5001
X5.5976Y-2.5001
X5.7945Y-2.5001
X3.05Y-2.5
X3.2469Y-2.5
X3.4437Y-2.5
T7
X2.893Y-3.8333
X2.893Y-4.0593
X3.0059Y-3.6372
X3.0059Y-4.2554
X3.1837Y-4.0221
X3.202Y-3.5243
X3.202Y-4.3683
X3.315Y-3.7947
X3.428Y-3.5243
X3.428Y-4.3683
X3.4463Y-4.0221
X3.6241Y-3.6372
X3.6241Y-4.2554
X3.737Y-3.8333
X3.737Y-4.0593
X6.6575Y-3.8349
X6.6575Y-4.0609
X6.7704Y-3.6388
X6.7704Y-4.257
X6.9482Y-3.8721
X6.9665Y-3.5259
X6.9665Y-4.3699
X7.0795Y-4.0995
X7.1925Y-3.5259
X7.1925Y-4.3699
X7.2108Y-3.8721
X7.3886Y-3.6388
X7.3886Y-4.257
X7.5015Y-3.8349
X7.5015Y-4.0609
T8
X2.895Y-5.014
X2.895Y-5.2404
X3.0081Y-4.8181
X3.0081Y-5.4363
X3.204Y-4.705
X3.204Y-5.5494
X3.2099Y-5.0199
X3.2099Y-5.2345
X3.4245Y-5.0199
X3.4245Y-5.2345
X3.4304Y-4.705
X3.4304Y-5.5494
X3.6263Y-4.8181
X3.6263Y-5.4363
X3.7394Y-5.014
X3.7394Y-5.2404
X6.6565Y-5.0137
X6.6565Y-5.2401
X6.7696Y-4.8178
X6.7696Y-5.436
X6.9655Y-4.7047
X6.9655Y-5.5491
X6.9714Y-5.0196
X6.9714Y-5.2342
X7.186Y-5.0196
X7.186Y-5.2342
X7.1919Y-4.7047
X7.1919Y-5.5491
X7.3878Y-4.8178
X7.3878Y-5.436
X7.5009Y-5.0137
X7.5009Y-5.2401
T9
X5.2049Y-3.7168
X5.2049Y-3.8743
X5.2049Y-4.0318
T0
M30
