G04 #@! TF.GenerationSoftware,KiCad,Pcbnew,5.1.7*
G04 #@! TF.CreationDate,2020-10-09T10:13:05+01:00*
G04 #@! TF.ProjectId,EnvelopeFollower,456e7665-6c6f-4706-9546-6f6c6c6f7765,V2.0*
G04 #@! TF.SameCoordinates,Original*
G04 #@! TF.FileFunction,Legend,Top*
G04 #@! TF.FilePolarity,Positive*
%FSLAX46Y46*%
G04 Gerber Fmt 4.6, Leading zero omitted, Abs format (unit mm)*
G04 Created by KiCad (PCBNEW 5.1.7) date 2020-10-09 10:13:05*
%MOMM*%
%LPD*%
G01*
G04 APERTURE LIST*
%ADD10C,0.150000*%
%ADD11C,0.120000*%
%ADD12C,0.010000*%
G04 APERTURE END LIST*
D10*
X171949074Y-133208020D02*
X171377645Y-133208020D01*
X171663360Y-133208020D02*
X171663360Y-132208020D01*
X171568121Y-132350878D01*
X171472883Y-132446116D01*
X171377645Y-132493735D01*
X176690684Y-135922046D02*
X177166875Y-135922046D01*
X176595446Y-136207760D02*
X176928780Y-135207760D01*
X177262113Y-136207760D01*
X178047614Y-92354660D02*
X177476185Y-92354660D01*
X177761900Y-92354660D02*
X177761900Y-91354660D01*
X177666661Y-91497518D01*
X177571423Y-91592756D01*
X177476185Y-91640375D01*
X176243644Y-96183746D02*
X176719835Y-96183746D01*
X176148406Y-96469460D02*
X176481740Y-95469460D01*
X176815073Y-96469460D01*
X92848394Y-127932440D02*
X92276965Y-127932440D01*
X92562680Y-127932440D02*
X92562680Y-126932440D01*
X92467441Y-127075298D01*
X92372203Y-127170536D01*
X92276965Y-127218155D01*
X87010904Y-125243886D02*
X87487095Y-125243886D01*
X86915666Y-125529600D02*
X87249000Y-124529600D01*
X87582333Y-125529600D01*
X87315704Y-100334106D02*
X87791895Y-100334106D01*
X87220466Y-100619820D02*
X87553800Y-99619820D01*
X87887133Y-100619820D01*
X86579674Y-109253280D02*
X86008245Y-109253280D01*
X86293960Y-109253280D02*
X86293960Y-108253280D01*
X86198721Y-108396138D01*
X86103483Y-108491376D01*
X86008245Y-108538995D01*
X130009544Y-119689571D02*
X130152401Y-119737190D01*
X130200020Y-119784809D01*
X130247640Y-119880047D01*
X130247640Y-120022904D01*
X130200020Y-120118142D01*
X130152401Y-120165761D01*
X130057163Y-120213380D01*
X129676211Y-120213380D01*
X129676211Y-119213380D01*
X130009544Y-119213380D01*
X130104782Y-119261000D01*
X130152401Y-119308619D01*
X130200020Y-119403857D01*
X130200020Y-119499095D01*
X130152401Y-119594333D01*
X130104782Y-119641952D01*
X130009544Y-119689571D01*
X129676211Y-119689571D01*
X130866687Y-119737190D02*
X130866687Y-120213380D01*
X130533354Y-119213380D02*
X130866687Y-119737190D01*
X131200020Y-119213380D01*
X131533354Y-120213380D02*
X131533354Y-119213380D01*
X131914306Y-119213380D01*
X132009544Y-119261000D01*
X132057163Y-119308619D01*
X132104782Y-119403857D01*
X132104782Y-119546714D01*
X132057163Y-119641952D01*
X132009544Y-119689571D01*
X131914306Y-119737190D01*
X131533354Y-119737190D01*
X132485735Y-119927666D02*
X132961925Y-119927666D01*
X132390497Y-120213380D02*
X132723830Y-119213380D01*
X133057163Y-120213380D01*
X133342878Y-120165761D02*
X133485735Y-120213380D01*
X133723830Y-120213380D01*
X133819068Y-120165761D01*
X133866687Y-120118142D01*
X133914306Y-120022904D01*
X133914306Y-119927666D01*
X133866687Y-119832428D01*
X133819068Y-119784809D01*
X133723830Y-119737190D01*
X133533354Y-119689571D01*
X133438116Y-119641952D01*
X133390497Y-119594333D01*
X133342878Y-119499095D01*
X133342878Y-119403857D01*
X133390497Y-119308619D01*
X133438116Y-119261000D01*
X133533354Y-119213380D01*
X133771449Y-119213380D01*
X133914306Y-119261000D01*
X134295259Y-120165761D02*
X134438116Y-120213380D01*
X134676211Y-120213380D01*
X134771449Y-120165761D01*
X134819068Y-120118142D01*
X134866687Y-120022904D01*
X134866687Y-119927666D01*
X134819068Y-119832428D01*
X134771449Y-119784809D01*
X134676211Y-119737190D01*
X134485735Y-119689571D01*
X134390497Y-119641952D01*
X134342878Y-119594333D01*
X134295259Y-119499095D01*
X134295259Y-119403857D01*
X134342878Y-119308619D01*
X134390497Y-119261000D01*
X134485735Y-119213380D01*
X134723830Y-119213380D01*
X134866687Y-119261000D01*
X144976553Y-115774742D02*
X144928934Y-115822361D01*
X144786077Y-115869980D01*
X144690839Y-115869980D01*
X144547981Y-115822361D01*
X144452743Y-115727123D01*
X144405124Y-115631885D01*
X144357505Y-115441409D01*
X144357505Y-115298552D01*
X144405124Y-115108076D01*
X144452743Y-115012838D01*
X144547981Y-114917600D01*
X144690839Y-114869980D01*
X144786077Y-114869980D01*
X144928934Y-114917600D01*
X144976553Y-114965219D01*
X145309886Y-114869980D02*
X145928934Y-114869980D01*
X145595600Y-115250933D01*
X145738458Y-115250933D01*
X145833696Y-115298552D01*
X145881315Y-115346171D01*
X145928934Y-115441409D01*
X145928934Y-115679504D01*
X145881315Y-115774742D01*
X145833696Y-115822361D01*
X145738458Y-115869980D01*
X145452743Y-115869980D01*
X145357505Y-115822361D01*
X145309886Y-115774742D01*
X141771073Y-115739182D02*
X141723454Y-115786801D01*
X141580597Y-115834420D01*
X141485359Y-115834420D01*
X141342501Y-115786801D01*
X141247263Y-115691563D01*
X141199644Y-115596325D01*
X141152025Y-115405849D01*
X141152025Y-115262992D01*
X141199644Y-115072516D01*
X141247263Y-114977278D01*
X141342501Y-114882040D01*
X141485359Y-114834420D01*
X141580597Y-114834420D01*
X141723454Y-114882040D01*
X141771073Y-114929659D01*
X142152025Y-114929659D02*
X142199644Y-114882040D01*
X142294882Y-114834420D01*
X142532978Y-114834420D01*
X142628216Y-114882040D01*
X142675835Y-114929659D01*
X142723454Y-115024897D01*
X142723454Y-115120135D01*
X142675835Y-115262992D01*
X142104406Y-115834420D01*
X142723454Y-115834420D01*
X138433513Y-115807762D02*
X138385894Y-115855381D01*
X138243037Y-115903000D01*
X138147799Y-115903000D01*
X138004941Y-115855381D01*
X137909703Y-115760143D01*
X137862084Y-115664905D01*
X137814465Y-115474429D01*
X137814465Y-115331572D01*
X137862084Y-115141096D01*
X137909703Y-115045858D01*
X138004941Y-114950620D01*
X138147799Y-114903000D01*
X138243037Y-114903000D01*
X138385894Y-114950620D01*
X138433513Y-114998239D01*
X139385894Y-115903000D02*
X138814465Y-115903000D01*
X139100180Y-115903000D02*
X139100180Y-114903000D01*
X139004941Y-115045858D01*
X138909703Y-115141096D01*
X138814465Y-115188715D01*
X135061058Y-115379191D02*
X135203915Y-115426810D01*
X135251534Y-115474429D01*
X135299153Y-115569667D01*
X135299153Y-115712524D01*
X135251534Y-115807762D01*
X135203915Y-115855381D01*
X135108677Y-115903000D01*
X134727724Y-115903000D01*
X134727724Y-114903000D01*
X135061058Y-114903000D01*
X135156296Y-114950620D01*
X135203915Y-114998239D01*
X135251534Y-115093477D01*
X135251534Y-115188715D01*
X135203915Y-115283953D01*
X135156296Y-115331572D01*
X135061058Y-115379191D01*
X134727724Y-115379191D01*
X135632486Y-114903000D02*
X136251534Y-114903000D01*
X135918200Y-115283953D01*
X136061058Y-115283953D01*
X136156296Y-115331572D01*
X136203915Y-115379191D01*
X136251534Y-115474429D01*
X136251534Y-115712524D01*
X136203915Y-115807762D01*
X136156296Y-115855381D01*
X136061058Y-115903000D01*
X135775343Y-115903000D01*
X135680105Y-115855381D01*
X135632486Y-115807762D01*
X131751438Y-115343631D02*
X131894295Y-115391250D01*
X131941914Y-115438869D01*
X131989533Y-115534107D01*
X131989533Y-115676964D01*
X131941914Y-115772202D01*
X131894295Y-115819821D01*
X131799057Y-115867440D01*
X131418104Y-115867440D01*
X131418104Y-114867440D01*
X131751438Y-114867440D01*
X131846676Y-114915060D01*
X131894295Y-114962679D01*
X131941914Y-115057917D01*
X131941914Y-115153155D01*
X131894295Y-115248393D01*
X131846676Y-115296012D01*
X131751438Y-115343631D01*
X131418104Y-115343631D01*
X132370485Y-114962679D02*
X132418104Y-114915060D01*
X132513342Y-114867440D01*
X132751438Y-114867440D01*
X132846676Y-114915060D01*
X132894295Y-114962679D01*
X132941914Y-115057917D01*
X132941914Y-115153155D01*
X132894295Y-115296012D01*
X132322866Y-115867440D01*
X132941914Y-115867440D01*
X128510398Y-115308071D02*
X128653255Y-115355690D01*
X128700874Y-115403309D01*
X128748493Y-115498547D01*
X128748493Y-115641404D01*
X128700874Y-115736642D01*
X128653255Y-115784261D01*
X128558017Y-115831880D01*
X128177064Y-115831880D01*
X128177064Y-114831880D01*
X128510398Y-114831880D01*
X128605636Y-114879500D01*
X128653255Y-114927119D01*
X128700874Y-115022357D01*
X128700874Y-115117595D01*
X128653255Y-115212833D01*
X128605636Y-115260452D01*
X128510398Y-115308071D01*
X128177064Y-115308071D01*
X129700874Y-115831880D02*
X129129445Y-115831880D01*
X129415160Y-115831880D02*
X129415160Y-114831880D01*
X129319921Y-114974738D01*
X129224683Y-115069976D01*
X129129445Y-115117595D01*
X124962374Y-115546166D02*
X125438564Y-115546166D01*
X124867136Y-115831880D02*
X125200469Y-114831880D01*
X125533802Y-115831880D01*
X125771898Y-114831880D02*
X126390945Y-114831880D01*
X126057612Y-115212833D01*
X126200469Y-115212833D01*
X126295707Y-115260452D01*
X126343326Y-115308071D01*
X126390945Y-115403309D01*
X126390945Y-115641404D01*
X126343326Y-115736642D01*
X126295707Y-115784261D01*
X126200469Y-115831880D01*
X125914755Y-115831880D01*
X125819517Y-115784261D01*
X125771898Y-115736642D01*
X121548614Y-115513146D02*
X122024804Y-115513146D01*
X121453376Y-115798860D02*
X121786709Y-114798860D01*
X122120042Y-115798860D01*
X122405757Y-114894099D02*
X122453376Y-114846480D01*
X122548614Y-114798860D01*
X122786709Y-114798860D01*
X122881947Y-114846480D01*
X122929566Y-114894099D01*
X122977185Y-114989337D01*
X122977185Y-115084575D01*
X122929566Y-115227432D01*
X122358138Y-115798860D01*
X122977185Y-115798860D01*
X118447274Y-115546166D02*
X118923464Y-115546166D01*
X118352036Y-115831880D02*
X118685369Y-114831880D01*
X119018702Y-115831880D01*
X119875845Y-115831880D02*
X119304417Y-115831880D01*
X119590131Y-115831880D02*
X119590131Y-114831880D01*
X119494893Y-114974738D01*
X119399655Y-115069976D01*
X119304417Y-115117595D01*
X177924651Y-61481601D02*
X178067508Y-61529220D01*
X178305603Y-61529220D01*
X178400841Y-61481601D01*
X178448460Y-61433982D01*
X178496080Y-61338744D01*
X178496080Y-61243506D01*
X178448460Y-61148268D01*
X178400841Y-61100649D01*
X178305603Y-61053030D01*
X178115127Y-61005411D01*
X178019889Y-60957792D01*
X177972270Y-60910173D01*
X177924651Y-60814935D01*
X177924651Y-60719697D01*
X177972270Y-60624459D01*
X178019889Y-60576840D01*
X178115127Y-60529220D01*
X178353222Y-60529220D01*
X178496080Y-60576840D01*
X178924651Y-61005411D02*
X179257984Y-61005411D01*
X179400841Y-61529220D02*
X178924651Y-61529220D01*
X178924651Y-60529220D01*
X179400841Y-60529220D01*
X179829413Y-61529220D02*
X179829413Y-60529220D01*
X180400841Y-61529220D01*
X180400841Y-60529220D01*
X180829413Y-61481601D02*
X180972270Y-61529220D01*
X181210365Y-61529220D01*
X181305603Y-61481601D01*
X181353222Y-61433982D01*
X181400841Y-61338744D01*
X181400841Y-61243506D01*
X181353222Y-61148268D01*
X181305603Y-61100649D01*
X181210365Y-61053030D01*
X181019889Y-61005411D01*
X180924651Y-60957792D01*
X180877032Y-60910173D01*
X180829413Y-60814935D01*
X180829413Y-60719697D01*
X180877032Y-60624459D01*
X180924651Y-60576840D01*
X181019889Y-60529220D01*
X181257984Y-60529220D01*
X181400841Y-60576840D01*
X181829413Y-61529220D02*
X181829413Y-60529220D01*
X182162746Y-60529220D02*
X182734175Y-60529220D01*
X182448460Y-61529220D02*
X182448460Y-60529220D01*
X183067508Y-61529220D02*
X183067508Y-60529220D01*
X183400841Y-60529220D02*
X183734175Y-61529220D01*
X184067508Y-60529220D01*
X184400841Y-61529220D02*
X184400841Y-60529220D01*
X184734175Y-60529220D02*
X185305603Y-60529220D01*
X185019889Y-61529220D02*
X185019889Y-60529220D01*
X185829413Y-61053030D02*
X185829413Y-61529220D01*
X185496080Y-60529220D02*
X185829413Y-61053030D01*
X186162746Y-60529220D01*
X159580248Y-61243506D02*
X160056439Y-61243506D01*
X159485010Y-61529220D02*
X159818343Y-60529220D01*
X160151677Y-61529220D01*
X160342153Y-60529220D02*
X160913581Y-60529220D01*
X160627867Y-61529220D02*
X160627867Y-60529220D01*
X161104058Y-60529220D02*
X161675486Y-60529220D01*
X161389772Y-61529220D02*
X161389772Y-60529220D01*
X161961200Y-61243506D02*
X162437391Y-61243506D01*
X161865962Y-61529220D02*
X162199296Y-60529220D01*
X162532629Y-61529220D01*
X163437391Y-61433982D02*
X163389772Y-61481601D01*
X163246915Y-61529220D01*
X163151677Y-61529220D01*
X163008820Y-61481601D01*
X162913581Y-61386363D01*
X162865962Y-61291125D01*
X162818343Y-61100649D01*
X162818343Y-60957792D01*
X162865962Y-60767316D01*
X162913581Y-60672078D01*
X163008820Y-60576840D01*
X163151677Y-60529220D01*
X163246915Y-60529220D01*
X163389772Y-60576840D01*
X163437391Y-60624459D01*
X163865962Y-61529220D02*
X163865962Y-60529220D01*
X164437391Y-61529220D02*
X164008820Y-60957792D01*
X164437391Y-60529220D02*
X163865962Y-61100649D01*
X140099991Y-61582560D02*
X140099991Y-60582560D01*
X140338086Y-60582560D01*
X140480943Y-60630180D01*
X140576181Y-60725418D01*
X140623800Y-60820656D01*
X140671420Y-61011132D01*
X140671420Y-61153989D01*
X140623800Y-61344465D01*
X140576181Y-61439703D01*
X140480943Y-61534941D01*
X140338086Y-61582560D01*
X140099991Y-61582560D01*
X141099991Y-61058751D02*
X141433324Y-61058751D01*
X141576181Y-61582560D02*
X141099991Y-61582560D01*
X141099991Y-60582560D01*
X141576181Y-60582560D01*
X142576181Y-61487322D02*
X142528562Y-61534941D01*
X142385705Y-61582560D01*
X142290467Y-61582560D01*
X142147610Y-61534941D01*
X142052372Y-61439703D01*
X142004753Y-61344465D01*
X141957134Y-61153989D01*
X141957134Y-61011132D01*
X142004753Y-60820656D01*
X142052372Y-60725418D01*
X142147610Y-60630180D01*
X142290467Y-60582560D01*
X142385705Y-60582560D01*
X142528562Y-60630180D01*
X142576181Y-60677799D01*
X142957134Y-61296846D02*
X143433324Y-61296846D01*
X142861896Y-61582560D02*
X143195229Y-60582560D01*
X143528562Y-61582560D01*
X144052372Y-61106370D02*
X144052372Y-61582560D01*
X143719039Y-60582560D02*
X144052372Y-61106370D01*
X144385705Y-60582560D01*
X119923513Y-61416202D02*
X119875894Y-61463821D01*
X119733037Y-61511440D01*
X119637799Y-61511440D01*
X119494941Y-61463821D01*
X119399703Y-61368583D01*
X119352084Y-61273345D01*
X119304465Y-61082869D01*
X119304465Y-60940012D01*
X119352084Y-60749536D01*
X119399703Y-60654298D01*
X119494941Y-60559060D01*
X119637799Y-60511440D01*
X119733037Y-60511440D01*
X119875894Y-60559060D01*
X119923513Y-60606679D01*
X120542560Y-60511440D02*
X120733037Y-60511440D01*
X120828275Y-60559060D01*
X120923513Y-60654298D01*
X120971132Y-60844774D01*
X120971132Y-61178107D01*
X120923513Y-61368583D01*
X120828275Y-61463821D01*
X120733037Y-61511440D01*
X120542560Y-61511440D01*
X120447322Y-61463821D01*
X120352084Y-61368583D01*
X120304465Y-61178107D01*
X120304465Y-60844774D01*
X120352084Y-60654298D01*
X120447322Y-60559060D01*
X120542560Y-60511440D01*
X121875894Y-61511440D02*
X121399703Y-61511440D01*
X121399703Y-60511440D01*
X122399703Y-60511440D02*
X122590180Y-60511440D01*
X122685418Y-60559060D01*
X122780656Y-60654298D01*
X122828275Y-60844774D01*
X122828275Y-61178107D01*
X122780656Y-61368583D01*
X122685418Y-61463821D01*
X122590180Y-61511440D01*
X122399703Y-61511440D01*
X122304465Y-61463821D01*
X122209227Y-61368583D01*
X122161608Y-61178107D01*
X122161608Y-60844774D01*
X122209227Y-60654298D01*
X122304465Y-60559060D01*
X122399703Y-60511440D01*
X123256846Y-60511440D02*
X123256846Y-61320964D01*
X123304465Y-61416202D01*
X123352084Y-61463821D01*
X123447322Y-61511440D01*
X123637799Y-61511440D01*
X123733037Y-61463821D01*
X123780656Y-61416202D01*
X123828275Y-61320964D01*
X123828275Y-60511440D01*
X124875894Y-61511440D02*
X124542560Y-61035250D01*
X124304465Y-61511440D02*
X124304465Y-60511440D01*
X124685418Y-60511440D01*
X124780656Y-60559060D01*
X124828275Y-60606679D01*
X124875894Y-60701917D01*
X124875894Y-60844774D01*
X124828275Y-60940012D01*
X124780656Y-60987631D01*
X124685418Y-61035250D01*
X124304465Y-61035250D01*
X99249338Y-61498740D02*
X99249338Y-60498740D01*
X99725528Y-61498740D02*
X99725528Y-60498740D01*
X100296957Y-61498740D01*
X100296957Y-60498740D01*
X100630290Y-60498740D02*
X101201719Y-60498740D01*
X100916004Y-61498740D02*
X100916004Y-60498740D01*
X101535052Y-60974931D02*
X101868385Y-60974931D01*
X102011242Y-61498740D02*
X101535052Y-61498740D01*
X101535052Y-60498740D01*
X102011242Y-60498740D01*
X102439814Y-61498740D02*
X102439814Y-60498740D01*
X103011242Y-61498740D01*
X103011242Y-60498740D01*
X103439814Y-61451121D02*
X103582671Y-61498740D01*
X103820766Y-61498740D01*
X103916004Y-61451121D01*
X103963623Y-61403502D01*
X104011242Y-61308264D01*
X104011242Y-61213026D01*
X103963623Y-61117788D01*
X103916004Y-61070169D01*
X103820766Y-61022550D01*
X103630290Y-60974931D01*
X103535052Y-60927312D01*
X103487433Y-60879693D01*
X103439814Y-60784455D01*
X103439814Y-60689217D01*
X103487433Y-60593979D01*
X103535052Y-60546360D01*
X103630290Y-60498740D01*
X103868385Y-60498740D01*
X104011242Y-60546360D01*
X104439814Y-61498740D02*
X104439814Y-60498740D01*
X104773147Y-60498740D02*
X105344576Y-60498740D01*
X105058861Y-61498740D02*
X105058861Y-60498740D01*
X105868385Y-61022550D02*
X105868385Y-61498740D01*
X105535052Y-60498740D02*
X105868385Y-61022550D01*
X106201719Y-60498740D01*
X80618556Y-60855551D02*
X80761413Y-60903170D01*
X80809032Y-60950789D01*
X80856651Y-61046027D01*
X80856651Y-61188884D01*
X80809032Y-61284122D01*
X80761413Y-61331741D01*
X80666175Y-61379360D01*
X80285222Y-61379360D01*
X80285222Y-60379360D01*
X80618556Y-60379360D01*
X80713794Y-60426980D01*
X80761413Y-60474599D01*
X80809032Y-60569837D01*
X80809032Y-60665075D01*
X80761413Y-60760313D01*
X80713794Y-60807932D01*
X80618556Y-60855551D01*
X80285222Y-60855551D01*
X81761413Y-61379360D02*
X81285222Y-61379360D01*
X81285222Y-60379360D01*
X82094746Y-60855551D02*
X82428080Y-60855551D01*
X82570937Y-61379360D02*
X82094746Y-61379360D01*
X82094746Y-60379360D01*
X82570937Y-60379360D01*
X82999508Y-61379360D02*
X82999508Y-60379360D01*
X83570937Y-61379360D01*
X83570937Y-60379360D01*
X84047127Y-61379360D02*
X84047127Y-60379360D01*
X84285222Y-60379360D01*
X84428080Y-60426980D01*
X84523318Y-60522218D01*
X84570937Y-60617456D01*
X84618556Y-60807932D01*
X84618556Y-60950789D01*
X84570937Y-61141265D01*
X84523318Y-61236503D01*
X84428080Y-61331741D01*
X84285222Y-61379360D01*
X84047127Y-61379360D01*
X181802211Y-44059100D02*
X181802211Y-43059100D01*
X182278401Y-44059100D02*
X182278401Y-43059100D01*
X182849830Y-44059100D01*
X182849830Y-43059100D01*
X183183163Y-43059100D02*
X183754592Y-43059100D01*
X183468878Y-44059100D02*
X183468878Y-43059100D01*
X184087925Y-43535291D02*
X184421259Y-43535291D01*
X184564116Y-44059100D02*
X184087925Y-44059100D01*
X184087925Y-43059100D01*
X184564116Y-43059100D01*
X184992687Y-44059100D02*
X184992687Y-43059100D01*
X185564116Y-44059100D01*
X185564116Y-43059100D01*
X185992687Y-44011481D02*
X186135544Y-44059100D01*
X186373640Y-44059100D01*
X186468878Y-44011481D01*
X186516497Y-43963862D01*
X186564116Y-43868624D01*
X186564116Y-43773386D01*
X186516497Y-43678148D01*
X186468878Y-43630529D01*
X186373640Y-43582910D01*
X186183163Y-43535291D01*
X186087925Y-43487672D01*
X186040306Y-43440053D01*
X185992687Y-43344815D01*
X185992687Y-43249577D01*
X186040306Y-43154339D01*
X186087925Y-43106720D01*
X186183163Y-43059100D01*
X186421259Y-43059100D01*
X186564116Y-43106720D01*
X186992687Y-44059100D02*
X186992687Y-43059100D01*
X187326020Y-43059100D02*
X187897449Y-43059100D01*
X187611735Y-44059100D02*
X187611735Y-43059100D01*
X188421259Y-43582910D02*
X188421259Y-44059100D01*
X188087925Y-43059100D02*
X188421259Y-43582910D01*
X188754592Y-43059100D01*
X189849830Y-44059100D02*
X189849830Y-43059100D01*
X190230782Y-43059100D01*
X190326020Y-43106720D01*
X190373640Y-43154339D01*
X190421259Y-43249577D01*
X190421259Y-43392434D01*
X190373640Y-43487672D01*
X190326020Y-43535291D01*
X190230782Y-43582910D01*
X189849830Y-43582910D01*
X190849830Y-43535291D02*
X191183163Y-43535291D01*
X191326020Y-44059100D02*
X190849830Y-44059100D01*
X190849830Y-43059100D01*
X191326020Y-43059100D01*
X191754592Y-44059100D02*
X191754592Y-43059100D01*
X191992687Y-43059100D01*
X192135544Y-43106720D01*
X192230782Y-43201958D01*
X192278401Y-43297196D01*
X192326020Y-43487672D01*
X192326020Y-43630529D01*
X192278401Y-43821005D01*
X192230782Y-43916243D01*
X192135544Y-44011481D01*
X191992687Y-44059100D01*
X191754592Y-44059100D01*
X192706973Y-43773386D02*
X193183163Y-43773386D01*
X192611735Y-44059100D02*
X192945068Y-43059100D01*
X193278401Y-44059100D01*
X194087925Y-44059100D02*
X193611735Y-44059100D01*
X193611735Y-43059100D01*
X189325072Y-39693481D02*
X189467929Y-39741100D01*
X189706024Y-39741100D01*
X189801262Y-39693481D01*
X189848881Y-39645862D01*
X189896500Y-39550624D01*
X189896500Y-39455386D01*
X189848881Y-39360148D01*
X189801262Y-39312529D01*
X189706024Y-39264910D01*
X189515548Y-39217291D01*
X189420310Y-39169672D01*
X189372691Y-39122053D01*
X189325072Y-39026815D01*
X189325072Y-38931577D01*
X189372691Y-38836339D01*
X189420310Y-38788720D01*
X189515548Y-38741100D01*
X189753643Y-38741100D01*
X189896500Y-38788720D01*
X190801262Y-39741100D02*
X190325072Y-39741100D01*
X190325072Y-38741100D01*
X190991739Y-38741100D02*
X191325072Y-39741100D01*
X191658405Y-38741100D01*
X186110690Y-38741100D02*
X186682119Y-38741100D01*
X186396404Y-39741100D02*
X186396404Y-38741100D01*
X187015452Y-39741100D02*
X187015452Y-38741100D01*
X187491642Y-39741100D02*
X187491642Y-38741100D01*
X187872595Y-38741100D01*
X187967833Y-38788720D01*
X188015452Y-38836339D01*
X188063071Y-38931577D01*
X188063071Y-39074434D01*
X188015452Y-39169672D01*
X187967833Y-39217291D01*
X187872595Y-39264910D01*
X187491642Y-39264910D01*
X161626824Y-44008300D02*
X161626824Y-43008300D01*
X161864920Y-43008300D01*
X162007777Y-43055920D01*
X162103015Y-43151158D01*
X162150634Y-43246396D01*
X162198253Y-43436872D01*
X162198253Y-43579729D01*
X162150634Y-43770205D01*
X162103015Y-43865443D01*
X162007777Y-43960681D01*
X161864920Y-44008300D01*
X161626824Y-44008300D01*
X162626824Y-43484491D02*
X162960158Y-43484491D01*
X163103015Y-44008300D02*
X162626824Y-44008300D01*
X162626824Y-43008300D01*
X163103015Y-43008300D01*
X164103015Y-43913062D02*
X164055396Y-43960681D01*
X163912539Y-44008300D01*
X163817300Y-44008300D01*
X163674443Y-43960681D01*
X163579205Y-43865443D01*
X163531586Y-43770205D01*
X163483967Y-43579729D01*
X163483967Y-43436872D01*
X163531586Y-43246396D01*
X163579205Y-43151158D01*
X163674443Y-43055920D01*
X163817300Y-43008300D01*
X163912539Y-43008300D01*
X164055396Y-43055920D01*
X164103015Y-43103539D01*
X164483967Y-43722586D02*
X164960158Y-43722586D01*
X164388729Y-44008300D02*
X164722062Y-43008300D01*
X165055396Y-44008300D01*
X165579205Y-43532110D02*
X165579205Y-44008300D01*
X165245872Y-43008300D02*
X165579205Y-43532110D01*
X165912539Y-43008300D01*
X167007777Y-44008300D02*
X167007777Y-43008300D01*
X167388729Y-43008300D01*
X167483967Y-43055920D01*
X167531586Y-43103539D01*
X167579205Y-43198777D01*
X167579205Y-43341634D01*
X167531586Y-43436872D01*
X167483967Y-43484491D01*
X167388729Y-43532110D01*
X167007777Y-43532110D01*
X168007777Y-43484491D02*
X168341110Y-43484491D01*
X168483967Y-44008300D02*
X168007777Y-44008300D01*
X168007777Y-43008300D01*
X168483967Y-43008300D01*
X168912539Y-44008300D02*
X168912539Y-43008300D01*
X169150634Y-43008300D01*
X169293491Y-43055920D01*
X169388729Y-43151158D01*
X169436348Y-43246396D01*
X169483967Y-43436872D01*
X169483967Y-43579729D01*
X169436348Y-43770205D01*
X169388729Y-43865443D01*
X169293491Y-43960681D01*
X169150634Y-44008300D01*
X168912539Y-44008300D01*
X169864920Y-43722586D02*
X170341110Y-43722586D01*
X169769681Y-44008300D02*
X170103015Y-43008300D01*
X170436348Y-44008300D01*
X171245872Y-44008300D02*
X170769681Y-44008300D01*
X170769681Y-43008300D01*
X168410712Y-39579181D02*
X168553569Y-39626800D01*
X168791664Y-39626800D01*
X168886902Y-39579181D01*
X168934521Y-39531562D01*
X168982140Y-39436324D01*
X168982140Y-39341086D01*
X168934521Y-39245848D01*
X168886902Y-39198229D01*
X168791664Y-39150610D01*
X168601188Y-39102991D01*
X168505950Y-39055372D01*
X168458331Y-39007753D01*
X168410712Y-38912515D01*
X168410712Y-38817277D01*
X168458331Y-38722039D01*
X168505950Y-38674420D01*
X168601188Y-38626800D01*
X168839283Y-38626800D01*
X168982140Y-38674420D01*
X169886902Y-39626800D02*
X169410712Y-39626800D01*
X169410712Y-38626800D01*
X170077379Y-38626800D02*
X170410712Y-39626800D01*
X170744045Y-38626800D01*
X165538257Y-39607121D02*
X165681114Y-39654740D01*
X165919209Y-39654740D01*
X166014447Y-39607121D01*
X166062066Y-39559502D01*
X166109685Y-39464264D01*
X166109685Y-39369026D01*
X166062066Y-39273788D01*
X166014447Y-39226169D01*
X165919209Y-39178550D01*
X165728733Y-39130931D01*
X165633495Y-39083312D01*
X165585876Y-39035693D01*
X165538257Y-38940455D01*
X165538257Y-38845217D01*
X165585876Y-38749979D01*
X165633495Y-38702360D01*
X165728733Y-38654740D01*
X165966828Y-38654740D01*
X166109685Y-38702360D01*
X166443019Y-38654740D02*
X166681114Y-39654740D01*
X166871590Y-38940455D01*
X167062066Y-39654740D01*
X167300161Y-38654740D01*
X162089910Y-38682680D02*
X162661339Y-38682680D01*
X162375624Y-39682680D02*
X162375624Y-38682680D01*
X162994672Y-39682680D02*
X162994672Y-38682680D01*
X163470862Y-39682680D02*
X163470862Y-38682680D01*
X163851815Y-38682680D01*
X163947053Y-38730300D01*
X163994672Y-38777919D01*
X164042291Y-38873157D01*
X164042291Y-39016014D01*
X163994672Y-39111252D01*
X163947053Y-39158871D01*
X163851815Y-39206490D01*
X163470862Y-39206490D01*
X141389955Y-43894641D02*
X141532812Y-43942260D01*
X141770907Y-43942260D01*
X141866145Y-43894641D01*
X141913764Y-43847022D01*
X141961383Y-43751784D01*
X141961383Y-43656546D01*
X141913764Y-43561308D01*
X141866145Y-43513689D01*
X141770907Y-43466070D01*
X141580431Y-43418451D01*
X141485193Y-43370832D01*
X141437574Y-43323213D01*
X141389955Y-43227975D01*
X141389955Y-43132737D01*
X141437574Y-43037499D01*
X141485193Y-42989880D01*
X141580431Y-42942260D01*
X141818526Y-42942260D01*
X141961383Y-42989880D01*
X142389955Y-43418451D02*
X142723288Y-43418451D01*
X142866145Y-43942260D02*
X142389955Y-43942260D01*
X142389955Y-42942260D01*
X142866145Y-42942260D01*
X143294717Y-43942260D02*
X143294717Y-42942260D01*
X143866145Y-43942260D01*
X143866145Y-42942260D01*
X144342336Y-43942260D02*
X144342336Y-42942260D01*
X144580431Y-42942260D01*
X144723288Y-42989880D01*
X144818526Y-43085118D01*
X144866145Y-43180356D01*
X144913764Y-43370832D01*
X144913764Y-43513689D01*
X144866145Y-43704165D01*
X144818526Y-43799403D01*
X144723288Y-43894641D01*
X144580431Y-43942260D01*
X144342336Y-43942260D01*
X144053655Y-38740460D02*
X143958417Y-38692840D01*
X143815560Y-38692840D01*
X143672702Y-38740460D01*
X143577464Y-38835698D01*
X143529845Y-38930936D01*
X143482226Y-39121412D01*
X143482226Y-39264269D01*
X143529845Y-39454745D01*
X143577464Y-39549983D01*
X143672702Y-39645221D01*
X143815560Y-39692840D01*
X143910798Y-39692840D01*
X144053655Y-39645221D01*
X144101274Y-39597602D01*
X144101274Y-39264269D01*
X143910798Y-39264269D01*
X144529845Y-39692840D02*
X144529845Y-38692840D01*
X145101274Y-39692840D01*
X145101274Y-38692840D01*
X145577464Y-39692840D02*
X145577464Y-38692840D01*
X145815560Y-38692840D01*
X145958417Y-38740460D01*
X146053655Y-38835698D01*
X146101274Y-38930936D01*
X146148893Y-39121412D01*
X146148893Y-39264269D01*
X146101274Y-39454745D01*
X146053655Y-39549983D01*
X145958417Y-39645221D01*
X145815560Y-39692840D01*
X145577464Y-39692840D01*
X140581190Y-38675060D02*
X141152619Y-38675060D01*
X140866904Y-39675060D02*
X140866904Y-38675060D01*
X141485952Y-39675060D02*
X141485952Y-38675060D01*
X141962142Y-39675060D02*
X141962142Y-38675060D01*
X142343095Y-38675060D01*
X142438333Y-38722680D01*
X142485952Y-38770299D01*
X142533571Y-38865537D01*
X142533571Y-39008394D01*
X142485952Y-39103632D01*
X142438333Y-39151251D01*
X142343095Y-39198870D01*
X141962142Y-39198870D01*
X119729191Y-43982900D02*
X119395858Y-43506710D01*
X119157762Y-43982900D02*
X119157762Y-42982900D01*
X119538715Y-42982900D01*
X119633953Y-43030520D01*
X119681572Y-43078139D01*
X119729191Y-43173377D01*
X119729191Y-43316234D01*
X119681572Y-43411472D01*
X119633953Y-43459091D01*
X119538715Y-43506710D01*
X119157762Y-43506710D01*
X120157762Y-43459091D02*
X120491096Y-43459091D01*
X120633953Y-43982900D02*
X120157762Y-43982900D01*
X120157762Y-42982900D01*
X120633953Y-42982900D01*
X120919667Y-42982900D02*
X121491096Y-42982900D01*
X121205381Y-43982900D02*
X121205381Y-42982900D01*
X121824429Y-42982900D02*
X121824429Y-43792424D01*
X121872048Y-43887662D01*
X121919667Y-43935281D01*
X122014905Y-43982900D01*
X122205381Y-43982900D01*
X122300619Y-43935281D01*
X122348239Y-43887662D01*
X122395858Y-43792424D01*
X122395858Y-42982900D01*
X123443477Y-43982900D02*
X123110143Y-43506710D01*
X122872048Y-43982900D02*
X122872048Y-42982900D01*
X123253000Y-42982900D01*
X123348239Y-43030520D01*
X123395858Y-43078139D01*
X123443477Y-43173377D01*
X123443477Y-43316234D01*
X123395858Y-43411472D01*
X123348239Y-43459091D01*
X123253000Y-43506710D01*
X122872048Y-43506710D01*
X123872048Y-43982900D02*
X123872048Y-42982900D01*
X124443477Y-43982900D01*
X124443477Y-42982900D01*
X124297535Y-38778560D02*
X124202297Y-38730940D01*
X124059440Y-38730940D01*
X123916582Y-38778560D01*
X123821344Y-38873798D01*
X123773725Y-38969036D01*
X123726106Y-39159512D01*
X123726106Y-39302369D01*
X123773725Y-39492845D01*
X123821344Y-39588083D01*
X123916582Y-39683321D01*
X124059440Y-39730940D01*
X124154678Y-39730940D01*
X124297535Y-39683321D01*
X124345154Y-39635702D01*
X124345154Y-39302369D01*
X124154678Y-39302369D01*
X124773725Y-39730940D02*
X124773725Y-38730940D01*
X125345154Y-39730940D01*
X125345154Y-38730940D01*
X125821344Y-39730940D02*
X125821344Y-38730940D01*
X126059440Y-38730940D01*
X126202297Y-38778560D01*
X126297535Y-38873798D01*
X126345154Y-38969036D01*
X126392773Y-39159512D01*
X126392773Y-39302369D01*
X126345154Y-39492845D01*
X126297535Y-39588083D01*
X126202297Y-39683321D01*
X126059440Y-39730940D01*
X125821344Y-39730940D01*
X120892677Y-39668081D02*
X121035534Y-39715700D01*
X121273629Y-39715700D01*
X121368867Y-39668081D01*
X121416486Y-39620462D01*
X121464105Y-39525224D01*
X121464105Y-39429986D01*
X121416486Y-39334748D01*
X121368867Y-39287129D01*
X121273629Y-39239510D01*
X121083153Y-39191891D01*
X120987915Y-39144272D01*
X120940296Y-39096653D01*
X120892677Y-39001415D01*
X120892677Y-38906177D01*
X120940296Y-38810939D01*
X120987915Y-38763320D01*
X121083153Y-38715700D01*
X121321248Y-38715700D01*
X121464105Y-38763320D01*
X121797439Y-38715700D02*
X122035534Y-39715700D01*
X122226010Y-39001415D01*
X122416486Y-39715700D01*
X122654581Y-38715700D01*
X117584030Y-38781740D02*
X118155459Y-38781740D01*
X117869744Y-39781740D02*
X117869744Y-38781740D01*
X118488792Y-39781740D02*
X118488792Y-38781740D01*
X118964982Y-39781740D02*
X118964982Y-38781740D01*
X119345935Y-38781740D01*
X119441173Y-38829360D01*
X119488792Y-38876979D01*
X119536411Y-38972217D01*
X119536411Y-39115074D01*
X119488792Y-39210312D01*
X119441173Y-39257931D01*
X119345935Y-39305550D01*
X118964982Y-39305550D01*
X100434758Y-42995600D02*
X100625234Y-42995600D01*
X100720472Y-43043220D01*
X100815710Y-43138458D01*
X100863329Y-43328934D01*
X100863329Y-43662267D01*
X100815710Y-43852743D01*
X100720472Y-43947981D01*
X100625234Y-43995600D01*
X100434758Y-43995600D01*
X100339520Y-43947981D01*
X100244281Y-43852743D01*
X100196662Y-43662267D01*
X100196662Y-43328934D01*
X100244281Y-43138458D01*
X100339520Y-43043220D01*
X100434758Y-42995600D01*
X101291900Y-42995600D02*
X101291900Y-43805124D01*
X101339520Y-43900362D01*
X101387139Y-43947981D01*
X101482377Y-43995600D01*
X101672853Y-43995600D01*
X101768091Y-43947981D01*
X101815710Y-43900362D01*
X101863329Y-43805124D01*
X101863329Y-42995600D01*
X102196662Y-42995600D02*
X102768091Y-42995600D01*
X102482377Y-43995600D02*
X102482377Y-42995600D01*
X103101424Y-43995600D02*
X103101424Y-42995600D01*
X103482377Y-42995600D01*
X103577615Y-43043220D01*
X103625234Y-43090839D01*
X103672853Y-43186077D01*
X103672853Y-43328934D01*
X103625234Y-43424172D01*
X103577615Y-43471791D01*
X103482377Y-43519410D01*
X103101424Y-43519410D01*
X104101424Y-42995600D02*
X104101424Y-43805124D01*
X104149043Y-43900362D01*
X104196662Y-43947981D01*
X104291900Y-43995600D01*
X104482377Y-43995600D01*
X104577615Y-43947981D01*
X104625234Y-43900362D01*
X104672853Y-43805124D01*
X104672853Y-42995600D01*
X105006186Y-42995600D02*
X105577615Y-42995600D01*
X105291900Y-43995600D02*
X105291900Y-42995600D01*
X103906415Y-38834440D02*
X103811177Y-38786820D01*
X103668320Y-38786820D01*
X103525462Y-38834440D01*
X103430224Y-38929678D01*
X103382605Y-39024916D01*
X103334986Y-39215392D01*
X103334986Y-39358249D01*
X103382605Y-39548725D01*
X103430224Y-39643963D01*
X103525462Y-39739201D01*
X103668320Y-39786820D01*
X103763558Y-39786820D01*
X103906415Y-39739201D01*
X103954034Y-39691582D01*
X103954034Y-39358249D01*
X103763558Y-39358249D01*
X104382605Y-39786820D02*
X104382605Y-38786820D01*
X104954034Y-39786820D01*
X104954034Y-38786820D01*
X105430224Y-39786820D02*
X105430224Y-38786820D01*
X105668320Y-38786820D01*
X105811177Y-38834440D01*
X105906415Y-38929678D01*
X105954034Y-39024916D01*
X106001653Y-39215392D01*
X106001653Y-39358249D01*
X105954034Y-39548725D01*
X105906415Y-39643963D01*
X105811177Y-39739201D01*
X105668320Y-39786820D01*
X105430224Y-39786820D01*
X100503480Y-38786820D02*
X100693956Y-38786820D01*
X100789194Y-38834440D01*
X100884432Y-38929678D01*
X100932051Y-39120154D01*
X100932051Y-39453487D01*
X100884432Y-39643963D01*
X100789194Y-39739201D01*
X100693956Y-39786820D01*
X100503480Y-39786820D01*
X100408241Y-39739201D01*
X100313003Y-39643963D01*
X100265384Y-39453487D01*
X100265384Y-39120154D01*
X100313003Y-38929678D01*
X100408241Y-38834440D01*
X100503480Y-38786820D01*
X101360622Y-38786820D02*
X101360622Y-39596344D01*
X101408241Y-39691582D01*
X101455860Y-39739201D01*
X101551099Y-39786820D01*
X101741575Y-39786820D01*
X101836813Y-39739201D01*
X101884432Y-39691582D01*
X101932051Y-39596344D01*
X101932051Y-38786820D01*
X102265384Y-38786820D02*
X102836813Y-38786820D01*
X102551099Y-39786820D02*
X102551099Y-38786820D01*
X86425328Y-44031160D02*
X86425328Y-43031160D01*
X86901519Y-44031160D02*
X86901519Y-43031160D01*
X87472947Y-44031160D01*
X87472947Y-43031160D01*
X87949138Y-44031160D02*
X87949138Y-43031160D01*
X88330090Y-43031160D01*
X88425328Y-43078780D01*
X88472947Y-43126399D01*
X88520566Y-43221637D01*
X88520566Y-43364494D01*
X88472947Y-43459732D01*
X88425328Y-43507351D01*
X88330090Y-43554970D01*
X87949138Y-43554970D01*
X88949138Y-43031160D02*
X88949138Y-43840684D01*
X88996757Y-43935922D01*
X89044376Y-43983541D01*
X89139614Y-44031160D01*
X89330090Y-44031160D01*
X89425328Y-43983541D01*
X89472947Y-43935922D01*
X89520566Y-43840684D01*
X89520566Y-43031160D01*
X89853900Y-43031160D02*
X90425328Y-43031160D01*
X90139614Y-44031160D02*
X90139614Y-43031160D01*
X89306495Y-38806500D02*
X89211257Y-38758880D01*
X89068400Y-38758880D01*
X88925542Y-38806500D01*
X88830304Y-38901738D01*
X88782685Y-38996976D01*
X88735066Y-39187452D01*
X88735066Y-39330309D01*
X88782685Y-39520785D01*
X88830304Y-39616023D01*
X88925542Y-39711261D01*
X89068400Y-39758880D01*
X89163638Y-39758880D01*
X89306495Y-39711261D01*
X89354114Y-39663642D01*
X89354114Y-39330309D01*
X89163638Y-39330309D01*
X89782685Y-39758880D02*
X89782685Y-38758880D01*
X90354114Y-39758880D01*
X90354114Y-38758880D01*
X90830304Y-39758880D02*
X90830304Y-38758880D01*
X91068400Y-38758880D01*
X91211257Y-38806500D01*
X91306495Y-38901738D01*
X91354114Y-38996976D01*
X91401733Y-39187452D01*
X91401733Y-39330309D01*
X91354114Y-39520785D01*
X91306495Y-39616023D01*
X91211257Y-39711261D01*
X91068400Y-39758880D01*
X90830304Y-39758880D01*
X86237510Y-39799520D02*
X86237510Y-38799520D01*
X86713700Y-39799520D02*
X86713700Y-38799520D01*
X87285129Y-39799520D01*
X87285129Y-38799520D01*
X72240378Y-44036240D02*
X72240378Y-43036240D01*
X72478473Y-43036240D01*
X72621330Y-43083860D01*
X72716568Y-43179098D01*
X72764187Y-43274336D01*
X72811806Y-43464812D01*
X72811806Y-43607669D01*
X72764187Y-43798145D01*
X72716568Y-43893383D01*
X72621330Y-43988621D01*
X72478473Y-44036240D01*
X72240378Y-44036240D01*
X73811806Y-43941002D02*
X73764187Y-43988621D01*
X73621330Y-44036240D01*
X73526092Y-44036240D01*
X73383235Y-43988621D01*
X73287997Y-43893383D01*
X73240378Y-43798145D01*
X73192759Y-43607669D01*
X73192759Y-43464812D01*
X73240378Y-43274336D01*
X73287997Y-43179098D01*
X73383235Y-43083860D01*
X73526092Y-43036240D01*
X73621330Y-43036240D01*
X73764187Y-43083860D01*
X73811806Y-43131479D01*
X75002282Y-44036240D02*
X75002282Y-43036240D01*
X75478473Y-44036240D02*
X75478473Y-43036240D01*
X76049901Y-44036240D01*
X76049901Y-43036240D01*
X75445715Y-38786180D02*
X75350477Y-38738560D01*
X75207620Y-38738560D01*
X75064762Y-38786180D01*
X74969524Y-38881418D01*
X74921905Y-38976656D01*
X74874286Y-39167132D01*
X74874286Y-39309989D01*
X74921905Y-39500465D01*
X74969524Y-39595703D01*
X75064762Y-39690941D01*
X75207620Y-39738560D01*
X75302858Y-39738560D01*
X75445715Y-39690941D01*
X75493334Y-39643322D01*
X75493334Y-39309989D01*
X75302858Y-39309989D01*
X75921905Y-39738560D02*
X75921905Y-38738560D01*
X76493334Y-39738560D01*
X76493334Y-38738560D01*
X76969524Y-39738560D02*
X76969524Y-38738560D01*
X77207620Y-38738560D01*
X77350477Y-38786180D01*
X77445715Y-38881418D01*
X77493334Y-38976656D01*
X77540953Y-39167132D01*
X77540953Y-39309989D01*
X77493334Y-39500465D01*
X77445715Y-39595703D01*
X77350477Y-39690941D01*
X77207620Y-39738560D01*
X76969524Y-39738560D01*
X71264305Y-39357608D02*
X72026210Y-39357608D01*
X71645258Y-39738560D02*
X71645258Y-38976656D01*
X72550020Y-39738560D02*
X72740496Y-39738560D01*
X72835734Y-39690941D01*
X72883353Y-39643322D01*
X72978591Y-39500465D01*
X73026210Y-39309989D01*
X73026210Y-38929037D01*
X72978591Y-38833799D01*
X72930972Y-38786180D01*
X72835734Y-38738560D01*
X72645258Y-38738560D01*
X72550020Y-38786180D01*
X72502400Y-38833799D01*
X72454781Y-38929037D01*
X72454781Y-39167132D01*
X72502400Y-39262370D01*
X72550020Y-39309989D01*
X72645258Y-39357608D01*
X72835734Y-39357608D01*
X72930972Y-39309989D01*
X72978591Y-39262370D01*
X73026210Y-39167132D01*
X73311924Y-38738560D02*
X73645258Y-39738560D01*
X73978591Y-38738560D01*
D11*
X95095060Y-140749020D02*
X115638580Y-140761720D01*
X95095060Y-141229080D02*
X95095060Y-140749020D01*
X95095060Y-141503400D02*
X95095060Y-141229080D01*
X95082360Y-148374100D02*
X95095060Y-141503400D01*
X115582700Y-148422360D02*
X95082360Y-148374100D01*
X115648740Y-140761720D02*
X115582700Y-148422360D01*
X105443020Y-85059520D02*
X105425240Y-77198220D01*
X126636780Y-85013800D02*
X105443020Y-85059520D01*
X126636780Y-77203300D02*
X126636780Y-85013800D01*
X105425240Y-77198220D02*
X126636780Y-77203300D01*
D12*
G36*
X187952916Y-74653413D02*
G01*
X188403886Y-74738840D01*
X188776848Y-74966863D01*
X189060338Y-75324365D01*
X189242892Y-75798230D01*
X189305116Y-76200371D01*
X189288174Y-76771112D01*
X189159475Y-77287490D01*
X188936225Y-77732184D01*
X188635631Y-78087868D01*
X188274899Y-78337221D01*
X187871236Y-78462920D01*
X187441848Y-78447642D01*
X187163286Y-78356683D01*
X186763127Y-78091527D01*
X186482835Y-77708375D01*
X186323814Y-77210225D01*
X186287467Y-76600079D01*
X186288942Y-76571686D01*
X186658483Y-76571686D01*
X186701574Y-77187486D01*
X186829303Y-77665600D01*
X187045608Y-78017207D01*
X187223325Y-78174758D01*
X187493645Y-78280443D01*
X187835485Y-78306142D01*
X188172348Y-78254117D01*
X188412041Y-78139605D01*
X188648803Y-77854974D01*
X188813436Y-77456617D01*
X188905968Y-76983997D01*
X188926427Y-76476577D01*
X188874840Y-75973820D01*
X188751235Y-75515191D01*
X188555639Y-75140152D01*
X188409816Y-74977011D01*
X188120205Y-74820833D01*
X187765894Y-74769980D01*
X187419182Y-74830256D01*
X187297264Y-74887699D01*
X187001018Y-75148251D01*
X186798441Y-75529446D01*
X186685964Y-76040690D01*
X186658483Y-76571686D01*
X186288942Y-76571686D01*
X186292844Y-76496598D01*
X186392209Y-75881107D01*
X186606321Y-75379709D01*
X186922699Y-74993698D01*
X187198658Y-74788320D01*
X187504414Y-74681451D01*
X187901707Y-74652697D01*
X187952916Y-74653413D01*
G37*
X187952916Y-74653413D02*
X188403886Y-74738840D01*
X188776848Y-74966863D01*
X189060338Y-75324365D01*
X189242892Y-75798230D01*
X189305116Y-76200371D01*
X189288174Y-76771112D01*
X189159475Y-77287490D01*
X188936225Y-77732184D01*
X188635631Y-78087868D01*
X188274899Y-78337221D01*
X187871236Y-78462920D01*
X187441848Y-78447642D01*
X187163286Y-78356683D01*
X186763127Y-78091527D01*
X186482835Y-77708375D01*
X186323814Y-77210225D01*
X186287467Y-76600079D01*
X186288942Y-76571686D01*
X186658483Y-76571686D01*
X186701574Y-77187486D01*
X186829303Y-77665600D01*
X187045608Y-78017207D01*
X187223325Y-78174758D01*
X187493645Y-78280443D01*
X187835485Y-78306142D01*
X188172348Y-78254117D01*
X188412041Y-78139605D01*
X188648803Y-77854974D01*
X188813436Y-77456617D01*
X188905968Y-76983997D01*
X188926427Y-76476577D01*
X188874840Y-75973820D01*
X188751235Y-75515191D01*
X188555639Y-75140152D01*
X188409816Y-74977011D01*
X188120205Y-74820833D01*
X187765894Y-74769980D01*
X187419182Y-74830256D01*
X187297264Y-74887699D01*
X187001018Y-75148251D01*
X186798441Y-75529446D01*
X186685964Y-76040690D01*
X186658483Y-76571686D01*
X186288942Y-76571686D01*
X186292844Y-76496598D01*
X186392209Y-75881107D01*
X186606321Y-75379709D01*
X186922699Y-74993698D01*
X187198658Y-74788320D01*
X187504414Y-74681451D01*
X187901707Y-74652697D01*
X187952916Y-74653413D01*
G36*
X181532953Y-75852020D02*
G01*
X180008953Y-75852020D01*
X180008953Y-76521273D01*
X180538120Y-76546479D01*
X181067286Y-76571686D01*
X181093092Y-76973853D01*
X181118897Y-77376020D01*
X180008953Y-77376020D01*
X180008953Y-78053353D01*
X181532953Y-78053353D01*
X181532953Y-78900020D01*
X179162286Y-78900020D01*
X179162286Y-78081186D01*
X179154402Y-77655802D01*
X179128068Y-77369208D01*
X179079267Y-77191476D01*
X179033150Y-77119659D01*
X178948160Y-76998046D01*
X178990229Y-76907557D01*
X179033150Y-76869792D01*
X179094912Y-76778882D01*
X179134438Y-76609569D01*
X179155598Y-76332311D01*
X179162262Y-75917566D01*
X179162286Y-75883986D01*
X179162286Y-75005353D01*
X181532953Y-75005353D01*
X181532953Y-75852020D01*
G37*
X181532953Y-75852020D02*
X180008953Y-75852020D01*
X180008953Y-76521273D01*
X180538120Y-76546479D01*
X181067286Y-76571686D01*
X181093092Y-76973853D01*
X181118897Y-77376020D01*
X180008953Y-77376020D01*
X180008953Y-78053353D01*
X181532953Y-78053353D01*
X181532953Y-78900020D01*
X179162286Y-78900020D01*
X179162286Y-78081186D01*
X179154402Y-77655802D01*
X179128068Y-77369208D01*
X179079267Y-77191476D01*
X179033150Y-77119659D01*
X178948160Y-76998046D01*
X178990229Y-76907557D01*
X179033150Y-76869792D01*
X179094912Y-76778882D01*
X179134438Y-76609569D01*
X179155598Y-76332311D01*
X179162262Y-75917566D01*
X179162286Y-75883986D01*
X179162286Y-75005353D01*
X181532953Y-75005353D01*
X181532953Y-75852020D01*
G36*
X182872916Y-81850080D02*
G01*
X183323886Y-81935507D01*
X183696848Y-82163529D01*
X183980338Y-82521031D01*
X184162892Y-82994897D01*
X184225116Y-83397038D01*
X184208174Y-83967779D01*
X184079475Y-84484157D01*
X183856225Y-84928850D01*
X183555631Y-85284535D01*
X183194899Y-85533888D01*
X182791236Y-85659587D01*
X182361848Y-85644309D01*
X182083286Y-85553350D01*
X181683127Y-85288194D01*
X181402835Y-84905041D01*
X181243814Y-84406892D01*
X181207467Y-83796745D01*
X181208942Y-83768353D01*
X181578483Y-83768353D01*
X181621574Y-84384153D01*
X181749303Y-84862266D01*
X181965608Y-85213873D01*
X182143325Y-85371425D01*
X182413645Y-85477109D01*
X182755485Y-85502808D01*
X183092348Y-85450783D01*
X183332041Y-85336271D01*
X183568803Y-85051641D01*
X183733436Y-84653284D01*
X183825968Y-84180663D01*
X183846427Y-83673243D01*
X183794840Y-83170487D01*
X183671235Y-82711858D01*
X183475639Y-82336819D01*
X183329816Y-82173678D01*
X183040205Y-82017500D01*
X182685894Y-81966647D01*
X182339182Y-82026923D01*
X182217264Y-82084366D01*
X181921018Y-82344917D01*
X181718441Y-82726112D01*
X181605964Y-83237357D01*
X181578483Y-83768353D01*
X181208942Y-83768353D01*
X181212844Y-83693264D01*
X181312209Y-83077774D01*
X181526321Y-82576375D01*
X181842699Y-82190365D01*
X182118658Y-81984987D01*
X182424414Y-81878118D01*
X182821707Y-81849364D01*
X182872916Y-81850080D01*
G37*
X182872916Y-81850080D02*
X183323886Y-81935507D01*
X183696848Y-82163529D01*
X183980338Y-82521031D01*
X184162892Y-82994897D01*
X184225116Y-83397038D01*
X184208174Y-83967779D01*
X184079475Y-84484157D01*
X183856225Y-84928850D01*
X183555631Y-85284535D01*
X183194899Y-85533888D01*
X182791236Y-85659587D01*
X182361848Y-85644309D01*
X182083286Y-85553350D01*
X181683127Y-85288194D01*
X181402835Y-84905041D01*
X181243814Y-84406892D01*
X181207467Y-83796745D01*
X181208942Y-83768353D01*
X181578483Y-83768353D01*
X181621574Y-84384153D01*
X181749303Y-84862266D01*
X181965608Y-85213873D01*
X182143325Y-85371425D01*
X182413645Y-85477109D01*
X182755485Y-85502808D01*
X183092348Y-85450783D01*
X183332041Y-85336271D01*
X183568803Y-85051641D01*
X183733436Y-84653284D01*
X183825968Y-84180663D01*
X183846427Y-83673243D01*
X183794840Y-83170487D01*
X183671235Y-82711858D01*
X183475639Y-82336819D01*
X183329816Y-82173678D01*
X183040205Y-82017500D01*
X182685894Y-81966647D01*
X182339182Y-82026923D01*
X182217264Y-82084366D01*
X181921018Y-82344917D01*
X181718441Y-82726112D01*
X181605964Y-83237357D01*
X181578483Y-83768353D01*
X181208942Y-83768353D01*
X181212844Y-83693264D01*
X181312209Y-83077774D01*
X181526321Y-82576375D01*
X181842699Y-82190365D01*
X182118658Y-81984987D01*
X182424414Y-81878118D01*
X182821707Y-81849364D01*
X182872916Y-81850080D01*
G36*
X172374249Y-81850080D02*
G01*
X172825219Y-81935507D01*
X173198182Y-82163529D01*
X173481672Y-82521031D01*
X173664226Y-82994897D01*
X173726449Y-83397038D01*
X173709508Y-83967779D01*
X173580809Y-84484157D01*
X173357559Y-84928850D01*
X173056964Y-85284535D01*
X172696232Y-85533888D01*
X172292569Y-85659587D01*
X171863182Y-85644309D01*
X171584620Y-85553350D01*
X171184460Y-85288194D01*
X170904168Y-84905041D01*
X170745147Y-84406892D01*
X170708801Y-83796745D01*
X170710276Y-83768353D01*
X171079816Y-83768353D01*
X171122908Y-84384153D01*
X171250636Y-84862266D01*
X171466941Y-85213873D01*
X171644658Y-85371425D01*
X171914978Y-85477109D01*
X172256818Y-85502808D01*
X172593681Y-85450783D01*
X172833374Y-85336271D01*
X173070136Y-85051641D01*
X173234770Y-84653284D01*
X173327302Y-84180663D01*
X173347760Y-83673243D01*
X173296173Y-83170487D01*
X173172568Y-82711858D01*
X172976973Y-82336819D01*
X172831150Y-82173678D01*
X172541539Y-82017500D01*
X172187227Y-81966647D01*
X171840515Y-82026923D01*
X171718597Y-82084366D01*
X171422351Y-82344917D01*
X171219774Y-82726112D01*
X171107297Y-83237357D01*
X171079816Y-83768353D01*
X170710276Y-83768353D01*
X170714178Y-83693264D01*
X170813542Y-83077774D01*
X171027655Y-82576375D01*
X171344032Y-82190365D01*
X171619992Y-81984987D01*
X171925748Y-81878118D01*
X172323041Y-81849364D01*
X172374249Y-81850080D01*
G37*
X172374249Y-81850080D02*
X172825219Y-81935507D01*
X173198182Y-82163529D01*
X173481672Y-82521031D01*
X173664226Y-82994897D01*
X173726449Y-83397038D01*
X173709508Y-83967779D01*
X173580809Y-84484157D01*
X173357559Y-84928850D01*
X173056964Y-85284535D01*
X172696232Y-85533888D01*
X172292569Y-85659587D01*
X171863182Y-85644309D01*
X171584620Y-85553350D01*
X171184460Y-85288194D01*
X170904168Y-84905041D01*
X170745147Y-84406892D01*
X170708801Y-83796745D01*
X170710276Y-83768353D01*
X171079816Y-83768353D01*
X171122908Y-84384153D01*
X171250636Y-84862266D01*
X171466941Y-85213873D01*
X171644658Y-85371425D01*
X171914978Y-85477109D01*
X172256818Y-85502808D01*
X172593681Y-85450783D01*
X172833374Y-85336271D01*
X173070136Y-85051641D01*
X173234770Y-84653284D01*
X173327302Y-84180663D01*
X173347760Y-83673243D01*
X173296173Y-83170487D01*
X173172568Y-82711858D01*
X172976973Y-82336819D01*
X172831150Y-82173678D01*
X172541539Y-82017500D01*
X172187227Y-81966647D01*
X171840515Y-82026923D01*
X171718597Y-82084366D01*
X171422351Y-82344917D01*
X171219774Y-82726112D01*
X171107297Y-83237357D01*
X171079816Y-83768353D01*
X170710276Y-83768353D01*
X170714178Y-83693264D01*
X170813542Y-83077774D01*
X171027655Y-82576375D01*
X171344032Y-82190365D01*
X171619992Y-81984987D01*
X171925748Y-81878118D01*
X172323041Y-81849364D01*
X172374249Y-81850080D01*
G36*
X194436243Y-81906679D02*
G01*
X194508120Y-81916461D01*
X194995832Y-82045229D01*
X195338463Y-82259554D01*
X195535256Y-82558763D01*
X195587303Y-82877025D01*
X195515580Y-83245957D01*
X195323787Y-83567669D01*
X195045803Y-83788088D01*
X195004966Y-83806538D01*
X194797131Y-83923114D01*
X194752123Y-84029795D01*
X194872419Y-84120417D01*
X194877990Y-84122587D01*
X194978652Y-84211929D01*
X195144270Y-84412684D01*
X195349800Y-84692826D01*
X195521437Y-84945429D01*
X196027848Y-85715686D01*
X195671047Y-85742194D01*
X195421398Y-85749359D01*
X195235716Y-85734767D01*
X195203747Y-85726299D01*
X195110920Y-85636893D01*
X194964724Y-85438308D01*
X194793452Y-85169707D01*
X194756100Y-85106623D01*
X194529666Y-84742385D01*
X194334436Y-84473215D01*
X194183313Y-84313251D01*
X194089201Y-84276630D01*
X194063620Y-84347897D01*
X193993396Y-84465157D01*
X193894286Y-84488020D01*
X193813834Y-84500752D01*
X193763842Y-84560435D01*
X193737149Y-84699299D01*
X193726593Y-84949572D01*
X193724953Y-85250020D01*
X193724953Y-86012020D01*
X192878286Y-86012020D01*
X192878286Y-83302686D01*
X193724953Y-83302686D01*
X193728065Y-83612322D01*
X193746189Y-83789533D01*
X193792500Y-83871218D01*
X193880178Y-83894274D01*
X193936620Y-83895353D01*
X194107861Y-83850442D01*
X194148286Y-83765696D01*
X194217875Y-83631229D01*
X194296453Y-83583493D01*
X194579143Y-83411138D01*
X194724343Y-83152440D01*
X194740953Y-83009413D01*
X194680603Y-82697613D01*
X194495069Y-82497930D01*
X194296453Y-82422228D01*
X194128239Y-82402934D01*
X194068238Y-82472113D01*
X194063620Y-82539073D01*
X194004558Y-82681684D01*
X193894286Y-82710020D01*
X193805296Y-82726009D01*
X193754315Y-82798116D01*
X193730998Y-82962547D01*
X193725000Y-83255510D01*
X193724953Y-83302686D01*
X192878286Y-83302686D01*
X192878286Y-82032686D01*
X193513286Y-82032686D01*
X193837984Y-82022012D01*
X194060389Y-81992910D01*
X194148022Y-81949763D01*
X194148286Y-81947019D01*
X194224817Y-81901285D01*
X194436243Y-81906679D01*
G37*
X194436243Y-81906679D02*
X194508120Y-81916461D01*
X194995832Y-82045229D01*
X195338463Y-82259554D01*
X195535256Y-82558763D01*
X195587303Y-82877025D01*
X195515580Y-83245957D01*
X195323787Y-83567669D01*
X195045803Y-83788088D01*
X195004966Y-83806538D01*
X194797131Y-83923114D01*
X194752123Y-84029795D01*
X194872419Y-84120417D01*
X194877990Y-84122587D01*
X194978652Y-84211929D01*
X195144270Y-84412684D01*
X195349800Y-84692826D01*
X195521437Y-84945429D01*
X196027848Y-85715686D01*
X195671047Y-85742194D01*
X195421398Y-85749359D01*
X195235716Y-85734767D01*
X195203747Y-85726299D01*
X195110920Y-85636893D01*
X194964724Y-85438308D01*
X194793452Y-85169707D01*
X194756100Y-85106623D01*
X194529666Y-84742385D01*
X194334436Y-84473215D01*
X194183313Y-84313251D01*
X194089201Y-84276630D01*
X194063620Y-84347897D01*
X193993396Y-84465157D01*
X193894286Y-84488020D01*
X193813834Y-84500752D01*
X193763842Y-84560435D01*
X193737149Y-84699299D01*
X193726593Y-84949572D01*
X193724953Y-85250020D01*
X193724953Y-86012020D01*
X192878286Y-86012020D01*
X192878286Y-83302686D01*
X193724953Y-83302686D01*
X193728065Y-83612322D01*
X193746189Y-83789533D01*
X193792500Y-83871218D01*
X193880178Y-83894274D01*
X193936620Y-83895353D01*
X194107861Y-83850442D01*
X194148286Y-83765696D01*
X194217875Y-83631229D01*
X194296453Y-83583493D01*
X194579143Y-83411138D01*
X194724343Y-83152440D01*
X194740953Y-83009413D01*
X194680603Y-82697613D01*
X194495069Y-82497930D01*
X194296453Y-82422228D01*
X194128239Y-82402934D01*
X194068238Y-82472113D01*
X194063620Y-82539073D01*
X194004558Y-82681684D01*
X193894286Y-82710020D01*
X193805296Y-82726009D01*
X193754315Y-82798116D01*
X193730998Y-82962547D01*
X193725000Y-83255510D01*
X193724953Y-83302686D01*
X192878286Y-83302686D01*
X192878286Y-82032686D01*
X193513286Y-82032686D01*
X193837984Y-82022012D01*
X194060389Y-81992910D01*
X194148022Y-81949763D01*
X194148286Y-81947019D01*
X194224817Y-81901285D01*
X194436243Y-81906679D01*
G36*
X191354286Y-83048686D02*
G01*
X189830286Y-83048686D01*
X189830286Y-83717939D01*
X190888620Y-83768353D01*
X190914425Y-84170520D01*
X190940231Y-84572686D01*
X189830286Y-84572686D01*
X189830286Y-85250020D01*
X191354286Y-85250020D01*
X191354286Y-86096686D01*
X188983620Y-86096686D01*
X188983620Y-85277853D01*
X188975735Y-84852469D01*
X188949402Y-84565875D01*
X188900600Y-84388143D01*
X188854484Y-84316326D01*
X188769493Y-84194713D01*
X188811562Y-84104224D01*
X188854484Y-84066459D01*
X188916245Y-83975549D01*
X188955771Y-83806236D01*
X188976931Y-83528977D01*
X188983596Y-83114232D01*
X188983620Y-83080653D01*
X188983620Y-82202020D01*
X191354286Y-82202020D01*
X191354286Y-83048686D01*
G37*
X191354286Y-83048686D02*
X189830286Y-83048686D01*
X189830286Y-83717939D01*
X190888620Y-83768353D01*
X190914425Y-84170520D01*
X190940231Y-84572686D01*
X189830286Y-84572686D01*
X189830286Y-85250020D01*
X191354286Y-85250020D01*
X191354286Y-86096686D01*
X188983620Y-86096686D01*
X188983620Y-85277853D01*
X188975735Y-84852469D01*
X188949402Y-84565875D01*
X188900600Y-84388143D01*
X188854484Y-84316326D01*
X188769493Y-84194713D01*
X188811562Y-84104224D01*
X188854484Y-84066459D01*
X188916245Y-83975549D01*
X188955771Y-83806236D01*
X188976931Y-83528977D01*
X188983596Y-83114232D01*
X188983620Y-83080653D01*
X188983620Y-82202020D01*
X191354286Y-82202020D01*
X191354286Y-83048686D01*
G36*
X187402552Y-83789520D02*
G01*
X187279249Y-84497097D01*
X187181266Y-85055553D01*
X187104264Y-85482481D01*
X187043899Y-85795474D01*
X186995833Y-86012125D01*
X186955723Y-86150029D01*
X186919228Y-86226778D01*
X186882008Y-86259967D01*
X186839720Y-86267188D01*
X186791494Y-86266020D01*
X186710626Y-86244530D01*
X186647594Y-86164875D01*
X186597177Y-86004273D01*
X186554151Y-85739943D01*
X186513295Y-85349105D01*
X186475340Y-84887017D01*
X186442369Y-84557561D01*
X186402437Y-84303993D01*
X186362238Y-84164627D01*
X186346462Y-84149353D01*
X186274342Y-84205033D01*
X186273725Y-84212853D01*
X186259846Y-84316905D01*
X186222539Y-84552172D01*
X186167594Y-84883075D01*
X186104953Y-85250020D01*
X186038984Y-85633312D01*
X185985063Y-85949348D01*
X185948898Y-86164483D01*
X185936181Y-86244853D01*
X185864544Y-86262220D01*
X185770123Y-86266020D01*
X185637963Y-86211562D01*
X185564619Y-86026857D01*
X185557989Y-85990853D01*
X185533736Y-85824278D01*
X185493241Y-85519852D01*
X185440379Y-85107858D01*
X185379027Y-84618579D01*
X185313060Y-84082298D01*
X185300620Y-83980020D01*
X185234223Y-83438346D01*
X185171721Y-82938055D01*
X185116990Y-82509428D01*
X185073907Y-82182749D01*
X185046347Y-81988300D01*
X185043250Y-81969186D01*
X185023548Y-81784008D01*
X185080639Y-81708775D01*
X185258331Y-81694065D01*
X185287170Y-81694020D01*
X185409496Y-81698702D01*
X185499588Y-81728714D01*
X185565114Y-81808004D01*
X185613738Y-81960519D01*
X185653127Y-82210206D01*
X185690948Y-82581014D01*
X185734377Y-83091020D01*
X185768586Y-83433984D01*
X185808124Y-83727520D01*
X185845442Y-83917228D01*
X185851890Y-83937686D01*
X185880963Y-83998559D01*
X185908005Y-83995889D01*
X185936626Y-83911203D01*
X185970435Y-83726025D01*
X186013041Y-83421881D01*
X186068054Y-82980298D01*
X186113790Y-82597179D01*
X186177946Y-82147004D01*
X186245270Y-81859226D01*
X186317482Y-81726912D01*
X186331607Y-81718886D01*
X186459807Y-81699000D01*
X186488803Y-81710981D01*
X186511595Y-81804582D01*
X186547445Y-82034388D01*
X186591847Y-82368185D01*
X186640294Y-82773759D01*
X186651759Y-82875826D01*
X186700735Y-83293919D01*
X186747096Y-83648116D01*
X186786245Y-83906086D01*
X186813587Y-84035497D01*
X186817773Y-84043729D01*
X186854847Y-84029989D01*
X186894279Y-83904767D01*
X186938965Y-83652634D01*
X186991801Y-83258160D01*
X187036286Y-82879353D01*
X187089951Y-82412234D01*
X187133711Y-82087441D01*
X187177427Y-81879121D01*
X187230958Y-81761424D01*
X187304166Y-81708499D01*
X187406911Y-81694494D01*
X187488403Y-81694020D01*
X187767961Y-81694020D01*
X187402552Y-83789520D01*
G37*
X187402552Y-83789520D02*
X187279249Y-84497097D01*
X187181266Y-85055553D01*
X187104264Y-85482481D01*
X187043899Y-85795474D01*
X186995833Y-86012125D01*
X186955723Y-86150029D01*
X186919228Y-86226778D01*
X186882008Y-86259967D01*
X186839720Y-86267188D01*
X186791494Y-86266020D01*
X186710626Y-86244530D01*
X186647594Y-86164875D01*
X186597177Y-86004273D01*
X186554151Y-85739943D01*
X186513295Y-85349105D01*
X186475340Y-84887017D01*
X186442369Y-84557561D01*
X186402437Y-84303993D01*
X186362238Y-84164627D01*
X186346462Y-84149353D01*
X186274342Y-84205033D01*
X186273725Y-84212853D01*
X186259846Y-84316905D01*
X186222539Y-84552172D01*
X186167594Y-84883075D01*
X186104953Y-85250020D01*
X186038984Y-85633312D01*
X185985063Y-85949348D01*
X185948898Y-86164483D01*
X185936181Y-86244853D01*
X185864544Y-86262220D01*
X185770123Y-86266020D01*
X185637963Y-86211562D01*
X185564619Y-86026857D01*
X185557989Y-85990853D01*
X185533736Y-85824278D01*
X185493241Y-85519852D01*
X185440379Y-85107858D01*
X185379027Y-84618579D01*
X185313060Y-84082298D01*
X185300620Y-83980020D01*
X185234223Y-83438346D01*
X185171721Y-82938055D01*
X185116990Y-82509428D01*
X185073907Y-82182749D01*
X185046347Y-81988300D01*
X185043250Y-81969186D01*
X185023548Y-81784008D01*
X185080639Y-81708775D01*
X185258331Y-81694065D01*
X185287170Y-81694020D01*
X185409496Y-81698702D01*
X185499588Y-81728714D01*
X185565114Y-81808004D01*
X185613738Y-81960519D01*
X185653127Y-82210206D01*
X185690948Y-82581014D01*
X185734377Y-83091020D01*
X185768586Y-83433984D01*
X185808124Y-83727520D01*
X185845442Y-83917228D01*
X185851890Y-83937686D01*
X185880963Y-83998559D01*
X185908005Y-83995889D01*
X185936626Y-83911203D01*
X185970435Y-83726025D01*
X186013041Y-83421881D01*
X186068054Y-82980298D01*
X186113790Y-82597179D01*
X186177946Y-82147004D01*
X186245270Y-81859226D01*
X186317482Y-81726912D01*
X186331607Y-81718886D01*
X186459807Y-81699000D01*
X186488803Y-81710981D01*
X186511595Y-81804582D01*
X186547445Y-82034388D01*
X186591847Y-82368185D01*
X186640294Y-82773759D01*
X186651759Y-82875826D01*
X186700735Y-83293919D01*
X186747096Y-83648116D01*
X186786245Y-83906086D01*
X186813587Y-84035497D01*
X186817773Y-84043729D01*
X186854847Y-84029989D01*
X186894279Y-83904767D01*
X186938965Y-83652634D01*
X186991801Y-83258160D01*
X187036286Y-82879353D01*
X187089951Y-82412234D01*
X187133711Y-82087441D01*
X187177427Y-81879121D01*
X187230958Y-81761424D01*
X187304166Y-81708499D01*
X187406911Y-81694494D01*
X187488403Y-81694020D01*
X187767961Y-81694020D01*
X187402552Y-83789520D01*
G36*
X192068953Y-75417171D02*
G01*
X192312741Y-75620836D01*
X192440993Y-75931335D01*
X192454953Y-76095246D01*
X192434620Y-76421260D01*
X192357749Y-76631800D01*
X192200529Y-76777537D01*
X192110231Y-76828818D01*
X191879444Y-76932129D01*
X191732739Y-76937890D01*
X191645654Y-76825749D01*
X191593730Y-76575351D01*
X191572254Y-76381186D01*
X191536461Y-76048815D01*
X191498785Y-75752487D01*
X191470996Y-75576853D01*
X191454695Y-75422976D01*
X191516808Y-75358091D01*
X191700119Y-75344090D01*
X191732407Y-75344020D01*
X192068953Y-75417171D01*
G37*
X192068953Y-75417171D02*
X192312741Y-75620836D01*
X192440993Y-75931335D01*
X192454953Y-76095246D01*
X192434620Y-76421260D01*
X192357749Y-76631800D01*
X192200529Y-76777537D01*
X192110231Y-76828818D01*
X191879444Y-76932129D01*
X191732739Y-76937890D01*
X191645654Y-76825749D01*
X191593730Y-76575351D01*
X191572254Y-76381186D01*
X191536461Y-76048815D01*
X191498785Y-75752487D01*
X191470996Y-75576853D01*
X191454695Y-75422976D01*
X191516808Y-75358091D01*
X191700119Y-75344090D01*
X191732407Y-75344020D01*
X192068953Y-75417171D01*
G36*
X197026953Y-75852020D02*
G01*
X195502953Y-75852020D01*
X195502953Y-76521273D01*
X196032120Y-76546479D01*
X196561286Y-76571686D01*
X196587092Y-76973853D01*
X196612897Y-77376020D01*
X195502953Y-77376020D01*
X195502953Y-78053353D01*
X197026953Y-78053353D01*
X197026953Y-78900020D01*
X194656286Y-78900020D01*
X194656286Y-78081186D01*
X194648402Y-77655802D01*
X194622068Y-77369208D01*
X194573267Y-77191476D01*
X194527150Y-77119659D01*
X194442160Y-76998046D01*
X194484229Y-76907557D01*
X194527150Y-76869792D01*
X194588912Y-76778882D01*
X194628438Y-76609569D01*
X194649598Y-76332311D01*
X194656262Y-75917566D01*
X194656286Y-75883986D01*
X194656286Y-75005353D01*
X197026953Y-75005353D01*
X197026953Y-75852020D01*
G37*
X197026953Y-75852020D02*
X195502953Y-75852020D01*
X195502953Y-76521273D01*
X196032120Y-76546479D01*
X196561286Y-76571686D01*
X196587092Y-76973853D01*
X196612897Y-77376020D01*
X195502953Y-77376020D01*
X195502953Y-78053353D01*
X197026953Y-78053353D01*
X197026953Y-78900020D01*
X194656286Y-78900020D01*
X194656286Y-78081186D01*
X194648402Y-77655802D01*
X194622068Y-77369208D01*
X194573267Y-77191476D01*
X194527150Y-77119659D01*
X194442160Y-76998046D01*
X194484229Y-76907557D01*
X194527150Y-76869792D01*
X194588912Y-76778882D01*
X194628438Y-76609569D01*
X194649598Y-76332311D01*
X194656262Y-75917566D01*
X194656286Y-75883986D01*
X194656286Y-75005353D01*
X197026953Y-75005353D01*
X197026953Y-75852020D01*
G36*
X197859104Y-75619186D02*
G01*
X197854377Y-76245486D01*
X197849778Y-76710685D01*
X197844634Y-77023010D01*
X197838268Y-77190692D01*
X197830005Y-77221960D01*
X197819171Y-77125043D01*
X197805091Y-76908171D01*
X197787088Y-76579572D01*
X197784439Y-76529353D01*
X197760666Y-76054898D01*
X197739635Y-75593350D01*
X197723540Y-75195654D01*
X197714573Y-74912759D01*
X197714288Y-74899520D01*
X197704286Y-74412686D01*
X193548558Y-74412686D01*
X193598416Y-75068853D01*
X193621077Y-75390454D01*
X193625480Y-75563363D01*
X193608038Y-75607587D01*
X193565161Y-75543131D01*
X193527459Y-75464341D01*
X193396770Y-75273530D01*
X193183796Y-75126182D01*
X192850637Y-74998508D01*
X192727310Y-74962099D01*
X192579350Y-74952572D01*
X192296998Y-74961885D01*
X191913897Y-74987941D01*
X191463689Y-75028641D01*
X191182144Y-75058458D01*
X190672176Y-75117365D01*
X190307347Y-75165737D01*
X190064201Y-75208830D01*
X189919283Y-75251900D01*
X189849136Y-75300204D01*
X189830304Y-75358996D01*
X189830286Y-75361388D01*
X189898414Y-75491147D01*
X189983437Y-75513353D01*
X190134641Y-75530205D01*
X190249940Y-75596004D01*
X190338299Y-75733613D01*
X190408680Y-75965898D01*
X190470046Y-76315720D01*
X190531361Y-76805946D01*
X190547684Y-76952686D01*
X190599237Y-77410239D01*
X190648552Y-77824750D01*
X190690978Y-78158705D01*
X190721865Y-78374589D01*
X190728939Y-78414569D01*
X190739552Y-78577546D01*
X190661760Y-78681819D01*
X190474983Y-78774424D01*
X190267330Y-78891974D01*
X190217711Y-79009329D01*
X190223010Y-79027042D01*
X190314644Y-79139261D01*
X190362777Y-79154020D01*
X190502300Y-79143773D01*
X190761932Y-79116860D01*
X191093937Y-79079019D01*
X191450579Y-79035989D01*
X191784123Y-78993508D01*
X192046834Y-78957315D01*
X192179786Y-78935580D01*
X192339330Y-78855754D01*
X192357553Y-78740273D01*
X192242723Y-78632834D01*
X192114524Y-78590634D01*
X191925439Y-78539213D01*
X191828743Y-78487142D01*
X191828612Y-78486917D01*
X191805075Y-78381577D01*
X191772834Y-78157131D01*
X191740299Y-77875287D01*
X191682138Y-77316220D01*
X192116314Y-77264799D01*
X192599284Y-77148535D01*
X193031812Y-76934143D01*
X193363826Y-76648591D01*
X193435520Y-76554306D01*
X193618308Y-76282925D01*
X193671630Y-76671956D01*
X193699371Y-76964107D01*
X193718655Y-77338722D01*
X193724953Y-77671750D01*
X193733394Y-78078289D01*
X193755285Y-78509313D01*
X193779347Y-78802933D01*
X193833742Y-79323353D01*
X197873620Y-79323353D01*
X197873620Y-87874686D01*
X167901620Y-87874686D01*
X167901620Y-86689353D01*
X184638574Y-86689353D01*
X187967620Y-86689353D01*
X187981956Y-85313520D01*
X187996293Y-83937686D01*
X188056970Y-85038353D01*
X188080663Y-85469288D01*
X188101619Y-85852556D01*
X188117710Y-86149133D01*
X188126813Y-86319995D01*
X188127300Y-86329520D01*
X188136953Y-86520020D01*
X192226442Y-86520020D01*
X192170415Y-85101853D01*
X192146702Y-84523308D01*
X192119899Y-83904394D01*
X192092800Y-83307616D01*
X192068200Y-82795474D01*
X192060632Y-82646520D01*
X192006876Y-81609353D01*
X190029581Y-81609353D01*
X189401891Y-81608845D01*
X188923332Y-81606168D01*
X188573699Y-81599592D01*
X188332790Y-81587386D01*
X188180402Y-81567820D01*
X188096332Y-81539165D01*
X188060377Y-81499689D01*
X188052335Y-81447664D01*
X188052286Y-81440020D01*
X188045497Y-81381866D01*
X188010398Y-81338814D01*
X187924894Y-81308597D01*
X187766889Y-81288948D01*
X187514289Y-81277602D01*
X187144998Y-81272293D01*
X186636921Y-81270754D01*
X186401286Y-81270686D01*
X184750286Y-81270686D01*
X184750091Y-82011520D01*
X184747549Y-82317873D01*
X184740548Y-82756622D01*
X184729848Y-83290908D01*
X184716209Y-83883872D01*
X184700391Y-84498657D01*
X184694235Y-84720853D01*
X184638574Y-86689353D01*
X167901620Y-86689353D01*
X167901620Y-85688520D01*
X170383168Y-85688520D01*
X170385923Y-85811540D01*
X170388181Y-85817469D01*
X170489059Y-85845194D01*
X170730353Y-85883468D01*
X171083744Y-85928633D01*
X171520910Y-85977032D01*
X171949086Y-86019084D01*
X172541930Y-86074031D01*
X172987349Y-86115064D01*
X173306532Y-86143844D01*
X173520669Y-86162028D01*
X173650950Y-86171277D01*
X173718565Y-86173250D01*
X173744703Y-86169605D01*
X173750556Y-86162002D01*
X173751144Y-86160186D01*
X173765175Y-86059627D01*
X173789996Y-85820373D01*
X173823293Y-85469691D01*
X173862755Y-85034849D01*
X173906066Y-84543117D01*
X173950915Y-84021763D01*
X173994988Y-83498055D01*
X174035971Y-82999261D01*
X174071551Y-82552651D01*
X174099415Y-82185491D01*
X174117250Y-81925052D01*
X174122741Y-81798600D01*
X174121803Y-81790963D01*
X174033896Y-81775190D01*
X173808655Y-81748196D01*
X173477099Y-81712863D01*
X173070246Y-81672074D01*
X172619116Y-81628713D01*
X172154727Y-81585662D01*
X171708098Y-81545804D01*
X171310248Y-81512022D01*
X170992196Y-81487199D01*
X170784960Y-81474218D01*
X170719033Y-81474710D01*
X170699361Y-81567810D01*
X170671200Y-81801816D01*
X170636656Y-82149092D01*
X170597834Y-82582000D01*
X170556839Y-83072903D01*
X170515778Y-83594164D01*
X170476756Y-84118144D01*
X170441879Y-84617207D01*
X170413251Y-85063716D01*
X170392979Y-85430032D01*
X170383168Y-85688520D01*
X167901620Y-85688520D01*
X167901620Y-85195174D01*
X168084019Y-85195174D01*
X168085868Y-85256820D01*
X168234719Y-85303326D01*
X168519459Y-85330061D01*
X168748286Y-85334686D01*
X169075468Y-85325037D01*
X169311798Y-85298982D01*
X169421862Y-85260866D01*
X169425620Y-85251633D01*
X169353780Y-85171381D01*
X169213953Y-85115454D01*
X169085992Y-85064728D01*
X169023307Y-84963759D01*
X169003354Y-84762779D01*
X169002286Y-84648174D01*
X169002286Y-84234020D01*
X169297902Y-84234020D01*
X169564831Y-84282619D01*
X169699268Y-84403353D01*
X169834229Y-84561094D01*
X169935588Y-84556455D01*
X169998507Y-84393930D01*
X170018286Y-84107020D01*
X170002560Y-83810169D01*
X169947482Y-83670037D01*
X169841206Y-83676256D01*
X169679620Y-83810686D01*
X169466041Y-83938147D01*
X169256286Y-83980020D01*
X169111079Y-83972200D01*
X169035499Y-83920956D01*
X169006813Y-83784607D01*
X169002286Y-83521474D01*
X169002286Y-83048686D01*
X169381673Y-83048686D01*
X169622250Y-83060501D01*
X169746459Y-83113007D01*
X169806591Y-83231794D01*
X169814185Y-83260353D01*
X169893683Y-83437065D01*
X169988090Y-83458883D01*
X170075234Y-83336138D01*
X170128703Y-83113807D01*
X170154783Y-82891987D01*
X170163454Y-82758504D01*
X170161018Y-82742650D01*
X170075547Y-82741074D01*
X169853911Y-82746211D01*
X169529103Y-82757084D01*
X169134117Y-82772717D01*
X169108120Y-82773818D01*
X168608373Y-82802165D01*
X168274152Y-82838208D01*
X168101781Y-82882932D01*
X168087585Y-82937321D01*
X168227889Y-83002361D01*
X168240286Y-83006353D01*
X168312358Y-83041329D01*
X168360522Y-83111766D01*
X168389543Y-83247446D01*
X168404187Y-83478152D01*
X168409219Y-83833666D01*
X168409619Y-84064686D01*
X168407580Y-84492908D01*
X168398284Y-84781596D01*
X168376966Y-84960535D01*
X168338862Y-85059506D01*
X168279205Y-85108291D01*
X168240286Y-85123020D01*
X168084019Y-85195174D01*
X167901620Y-85195174D01*
X167901620Y-81355353D01*
X174225027Y-81355353D01*
X174280657Y-82765875D01*
X174300650Y-83341829D01*
X174317441Y-83957034D01*
X174329606Y-84549199D01*
X174335726Y-85056037D01*
X174336178Y-85200042D01*
X174336069Y-86223686D01*
X175837645Y-86196830D01*
X176321818Y-86187355D01*
X176742561Y-86177567D01*
X177072645Y-86168226D01*
X177284841Y-86160094D01*
X177352479Y-86154497D01*
X177352344Y-86069259D01*
X177337765Y-85866994D01*
X177321906Y-85694520D01*
X177278075Y-85250020D01*
X175521620Y-85250020D01*
X175521310Y-84509186D01*
X175516997Y-84134985D01*
X175505456Y-83651956D01*
X175488403Y-83120369D01*
X175467557Y-82600494D01*
X175465806Y-82561853D01*
X175410613Y-81355353D01*
X177527027Y-81355353D01*
X177582657Y-82765875D01*
X177602650Y-83341829D01*
X177619441Y-83957034D01*
X177631606Y-84549199D01*
X177637726Y-85056037D01*
X177638178Y-85200042D01*
X177638069Y-86223686D01*
X179139645Y-86196830D01*
X179623818Y-86187355D01*
X180044561Y-86177567D01*
X180374645Y-86168226D01*
X180586841Y-86160094D01*
X180654479Y-86154497D01*
X180654344Y-86069259D01*
X180639765Y-85866994D01*
X180623906Y-85694520D01*
X180623315Y-85688520D01*
X180881834Y-85688520D01*
X180884590Y-85811540D01*
X180886847Y-85817469D01*
X180987725Y-85845194D01*
X181229020Y-85883468D01*
X181582410Y-85928633D01*
X182019576Y-85977032D01*
X182447753Y-86019084D01*
X183040597Y-86074031D01*
X183486016Y-86115064D01*
X183805199Y-86143844D01*
X184019336Y-86162028D01*
X184149616Y-86171277D01*
X184217231Y-86173250D01*
X184243370Y-86169605D01*
X184249222Y-86162002D01*
X184249811Y-86160186D01*
X184263842Y-86059627D01*
X184288662Y-85820373D01*
X184321960Y-85469691D01*
X184361421Y-85034849D01*
X184404733Y-84543117D01*
X184449582Y-84021763D01*
X184493654Y-83498055D01*
X184534637Y-82999261D01*
X184570217Y-82552651D01*
X184598082Y-82185491D01*
X184615916Y-81925052D01*
X184621408Y-81798600D01*
X184620470Y-81790963D01*
X184532563Y-81775190D01*
X184307322Y-81748196D01*
X183975765Y-81712863D01*
X183568913Y-81672074D01*
X183117783Y-81628713D01*
X182653394Y-81585662D01*
X182206765Y-81545804D01*
X181808915Y-81512022D01*
X181490863Y-81487199D01*
X181283627Y-81474218D01*
X181217700Y-81474710D01*
X181198028Y-81567810D01*
X181169867Y-81801816D01*
X181135322Y-82149092D01*
X181096500Y-82582000D01*
X181055506Y-83072903D01*
X181014445Y-83594164D01*
X180975423Y-84118144D01*
X180940545Y-84617207D01*
X180911918Y-85063716D01*
X180891645Y-85430032D01*
X180881834Y-85688520D01*
X180623315Y-85688520D01*
X180580075Y-85250020D01*
X178823620Y-85250020D01*
X178823310Y-84509186D01*
X178818997Y-84134985D01*
X178807456Y-83651956D01*
X178790403Y-83120369D01*
X178769557Y-82600494D01*
X178767806Y-82561853D01*
X178712613Y-81355353D01*
X177527027Y-81355353D01*
X175410613Y-81355353D01*
X174225027Y-81355353D01*
X167901620Y-81355353D01*
X167901620Y-81186020D01*
X192370286Y-81186020D01*
X192370286Y-86435353D01*
X193259286Y-86435353D01*
X193665252Y-86431459D01*
X193929345Y-86417175D01*
X194078899Y-86388596D01*
X194141250Y-86341816D01*
X194148286Y-86308353D01*
X194172399Y-86256318D01*
X194261168Y-86220353D01*
X194439238Y-86197719D01*
X194731255Y-86185679D01*
X195161865Y-86181493D01*
X195291286Y-86181353D01*
X196434286Y-86181353D01*
X196434286Y-80932020D01*
X195248953Y-80932020D01*
X194770898Y-80934562D01*
X194437864Y-80943921D01*
X194225590Y-80962697D01*
X194109815Y-80993489D01*
X194066280Y-81038897D01*
X194063620Y-81059020D01*
X194035641Y-81118242D01*
X193933138Y-81156264D01*
X193728259Y-81177264D01*
X193393152Y-81185418D01*
X193216953Y-81186020D01*
X192370286Y-81186020D01*
X167901620Y-81186020D01*
X167901620Y-76819161D01*
X168007249Y-76819161D01*
X168052884Y-76959232D01*
X168132558Y-77069598D01*
X168229206Y-77237835D01*
X168297753Y-77479055D01*
X168347391Y-77831898D01*
X168367655Y-78058015D01*
X168428336Y-78824696D01*
X168651811Y-78782419D01*
X168821815Y-78757780D01*
X169118319Y-78722158D01*
X169499230Y-78680368D01*
X169912453Y-78638206D01*
X170949619Y-78536271D01*
X170949620Y-78174737D01*
X170944760Y-77898156D01*
X170909352Y-77726232D01*
X170812152Y-77639224D01*
X170621917Y-77617391D01*
X170307404Y-77640991D01*
X170133960Y-77659356D01*
X169732363Y-77692766D01*
X169471562Y-77683586D01*
X169326260Y-77622204D01*
X169271163Y-77499006D01*
X169276968Y-77333686D01*
X169318352Y-77232640D01*
X169436633Y-77168886D01*
X169671097Y-77125380D01*
X169788725Y-77111692D01*
X170060034Y-77076393D01*
X170255802Y-77039452D01*
X170322119Y-77015743D01*
X170336573Y-76914055D01*
X170326121Y-76701418D01*
X170308490Y-76543389D01*
X170251573Y-76114325D01*
X169711596Y-76164749D01*
X169414481Y-76186311D01*
X169249425Y-76177392D01*
X169181022Y-76132623D01*
X169171620Y-76082854D01*
X169141215Y-75880879D01*
X169123163Y-75824260D01*
X169114532Y-75742404D01*
X169177832Y-75681808D01*
X169337594Y-75635199D01*
X169618345Y-75595301D01*
X170026447Y-75556391D01*
X170669609Y-75501343D01*
X170629403Y-75062848D01*
X170601361Y-74808852D01*
X170573204Y-74634581D01*
X170559164Y-74590497D01*
X170469506Y-74586072D01*
X170249167Y-74597076D01*
X169935744Y-74620069D01*
X169566837Y-74651613D01*
X169180042Y-74688270D01*
X168812957Y-74726602D01*
X168503181Y-74763171D01*
X168288311Y-74794539D01*
X168252594Y-74801425D01*
X168161924Y-74826495D01*
X168106641Y-74876803D01*
X168081507Y-74985030D01*
X168081285Y-75183860D01*
X168100738Y-75505975D01*
X168112695Y-75674433D01*
X168136095Y-76115794D01*
X168130932Y-76418370D01*
X168095862Y-76610505D01*
X168065148Y-76676518D01*
X168007249Y-76819161D01*
X167901620Y-76819161D01*
X167901620Y-74497353D01*
X171118953Y-74497353D01*
X171118953Y-76263536D01*
X171121501Y-76820953D01*
X171128606Y-77345310D01*
X171139464Y-77803972D01*
X171153268Y-78164304D01*
X171169211Y-78393671D01*
X171172170Y-78417983D01*
X171215576Y-78657896D01*
X171283904Y-78778264D01*
X171414317Y-78828434D01*
X171489670Y-78839584D01*
X171845838Y-78876331D01*
X172078802Y-78874057D01*
X172231301Y-78827471D01*
X172343773Y-78733831D01*
X172416095Y-78631161D01*
X172454181Y-78496510D01*
X172462066Y-78288979D01*
X172443787Y-77967663D01*
X172432822Y-77831154D01*
X172371473Y-77094664D01*
X172643284Y-77298842D01*
X172879104Y-77488181D01*
X173142085Y-77716264D01*
X173222934Y-77790296D01*
X173664929Y-78185008D01*
X174050977Y-78494366D01*
X174364113Y-78706100D01*
X174587367Y-78807940D01*
X174640381Y-78815353D01*
X174844286Y-78815353D01*
X174844286Y-77593734D01*
X174841703Y-77102034D01*
X174831920Y-76751291D01*
X174811887Y-76513180D01*
X174778555Y-76359374D01*
X174728873Y-76261549D01*
X174696875Y-76224704D01*
X174607279Y-76101586D01*
X174654542Y-76042268D01*
X174711436Y-75953818D01*
X174745767Y-75725626D01*
X174759267Y-75344677D01*
X174759620Y-75252297D01*
X174759620Y-74497353D01*
X173495751Y-74497353D01*
X173471519Y-75317990D01*
X173447286Y-76138628D01*
X173128758Y-75858650D01*
X172879207Y-75673643D01*
X172678776Y-75612405D01*
X172599591Y-75618938D01*
X172447874Y-75625168D01*
X172393978Y-75531871D01*
X172388953Y-75422711D01*
X172330374Y-75203122D01*
X172135435Y-75005949D01*
X172114930Y-74991095D01*
X171893840Y-74822635D01*
X171710465Y-74665016D01*
X171691597Y-74646663D01*
X171489208Y-74527947D01*
X171330620Y-74497353D01*
X171118953Y-74497353D01*
X167901620Y-74497353D01*
X167901620Y-73986127D01*
X175098286Y-73986127D01*
X175099572Y-75194240D01*
X175125849Y-76115667D01*
X175205486Y-76930184D01*
X175268905Y-77326863D01*
X175338566Y-77738830D01*
X175394136Y-78122131D01*
X175428788Y-78426319D01*
X175436953Y-78568772D01*
X175464655Y-78918108D01*
X175548563Y-79110596D01*
X175650067Y-79154020D01*
X175760361Y-79090043D01*
X175952229Y-78913504D01*
X176205884Y-78647487D01*
X176501541Y-78315077D01*
X176819415Y-77939358D01*
X177139720Y-77543416D01*
X177442671Y-77150336D01*
X177708482Y-76783201D01*
X177809356Y-76634650D01*
X178103953Y-76189614D01*
X178161177Y-76549983D01*
X178189912Y-76813734D01*
X178212407Y-77173650D01*
X178224225Y-77556574D01*
X178224677Y-77596433D01*
X178235203Y-78011000D01*
X178256816Y-78442433D01*
X178284873Y-78798371D01*
X178285347Y-78802933D01*
X178339742Y-79323353D01*
X182405109Y-79323353D01*
X182349081Y-77905186D01*
X182325369Y-77326641D01*
X182298566Y-76707728D01*
X182271467Y-76110949D01*
X182246867Y-75598807D01*
X182239298Y-75449853D01*
X182185543Y-74412686D01*
X180123581Y-74412686D01*
X179481148Y-74413089D01*
X178988246Y-74415418D01*
X178625074Y-74421355D01*
X178371828Y-74432580D01*
X178208708Y-74450774D01*
X178115910Y-74477619D01*
X178073634Y-74514795D01*
X178062077Y-74563983D01*
X178061620Y-74587725D01*
X178023173Y-74716605D01*
X177913453Y-74718746D01*
X177629894Y-74638620D01*
X177441108Y-74617548D01*
X177300327Y-74675635D01*
X177160782Y-74832986D01*
X176975704Y-75109707D01*
X176964695Y-75126609D01*
X176792068Y-75387698D01*
X176658125Y-75583013D01*
X176586411Y-75678436D01*
X176580999Y-75682686D01*
X176572114Y-75604839D01*
X176567797Y-75398486D01*
X176568748Y-75104412D01*
X176569777Y-75029162D01*
X176579953Y-74375638D01*
X176071953Y-74238251D01*
X175774576Y-74158686D01*
X182607027Y-74158686D01*
X182662657Y-75569208D01*
X182682650Y-76145162D01*
X182699441Y-76760367D01*
X182711606Y-77352533D01*
X182717726Y-77859370D01*
X182718178Y-78003375D01*
X182718069Y-79027020D01*
X184219645Y-79000163D01*
X184703818Y-78990689D01*
X185124561Y-78980900D01*
X185454645Y-78971560D01*
X185666841Y-78963427D01*
X185734479Y-78957830D01*
X185734344Y-78872593D01*
X185719765Y-78670328D01*
X185703906Y-78497853D01*
X185703315Y-78491853D01*
X185961834Y-78491853D01*
X185964590Y-78614874D01*
X185966847Y-78620803D01*
X186067725Y-78648527D01*
X186309020Y-78686801D01*
X186662410Y-78731966D01*
X187099576Y-78780366D01*
X187527753Y-78822417D01*
X188120597Y-78877364D01*
X188566016Y-78918398D01*
X188885199Y-78947177D01*
X189099336Y-78965362D01*
X189229616Y-78974611D01*
X189297231Y-78976583D01*
X189323370Y-78972939D01*
X189329222Y-78965336D01*
X189329811Y-78963520D01*
X189343842Y-78862961D01*
X189368662Y-78623706D01*
X189401960Y-78273024D01*
X189441421Y-77838183D01*
X189484733Y-77346451D01*
X189529582Y-76825097D01*
X189573654Y-76301388D01*
X189614637Y-75802595D01*
X189650217Y-75355984D01*
X189678082Y-74988825D01*
X189695916Y-74728385D01*
X189701408Y-74601934D01*
X189700470Y-74594297D01*
X189612563Y-74578524D01*
X189387322Y-74551529D01*
X189055765Y-74516196D01*
X188648913Y-74475408D01*
X188197783Y-74432047D01*
X187733394Y-74388996D01*
X187286765Y-74349138D01*
X186888915Y-74315356D01*
X186570863Y-74290533D01*
X186363627Y-74277551D01*
X186297700Y-74278043D01*
X186278028Y-74371143D01*
X186249867Y-74605150D01*
X186215322Y-74952426D01*
X186176500Y-75385334D01*
X186135506Y-75876237D01*
X186094445Y-76397497D01*
X186055423Y-76921477D01*
X186020545Y-77420541D01*
X185991918Y-77867049D01*
X185971645Y-78233366D01*
X185961834Y-78491853D01*
X185703315Y-78491853D01*
X185660075Y-78053353D01*
X183903620Y-78053353D01*
X183903310Y-77312520D01*
X183898997Y-76938318D01*
X183887456Y-76455290D01*
X183870403Y-75923703D01*
X183849557Y-75403827D01*
X183847806Y-75365186D01*
X183792613Y-74158686D01*
X182607027Y-74158686D01*
X175774576Y-74158686D01*
X175757779Y-74154192D01*
X175475781Y-74080271D01*
X175331120Y-74043496D01*
X175098286Y-73986127D01*
X167901620Y-73986127D01*
X167901620Y-73566020D01*
X197873620Y-73566020D01*
X197859104Y-75619186D01*
G37*
X197859104Y-75619186D02*
X197854377Y-76245486D01*
X197849778Y-76710685D01*
X197844634Y-77023010D01*
X197838268Y-77190692D01*
X197830005Y-77221960D01*
X197819171Y-77125043D01*
X197805091Y-76908171D01*
X197787088Y-76579572D01*
X197784439Y-76529353D01*
X197760666Y-76054898D01*
X197739635Y-75593350D01*
X197723540Y-75195654D01*
X197714573Y-74912759D01*
X197714288Y-74899520D01*
X197704286Y-74412686D01*
X193548558Y-74412686D01*
X193598416Y-75068853D01*
X193621077Y-75390454D01*
X193625480Y-75563363D01*
X193608038Y-75607587D01*
X193565161Y-75543131D01*
X193527459Y-75464341D01*
X193396770Y-75273530D01*
X193183796Y-75126182D01*
X192850637Y-74998508D01*
X192727310Y-74962099D01*
X192579350Y-74952572D01*
X192296998Y-74961885D01*
X191913897Y-74987941D01*
X191463689Y-75028641D01*
X191182144Y-75058458D01*
X190672176Y-75117365D01*
X190307347Y-75165737D01*
X190064201Y-75208830D01*
X189919283Y-75251900D01*
X189849136Y-75300204D01*
X189830304Y-75358996D01*
X189830286Y-75361388D01*
X189898414Y-75491147D01*
X189983437Y-75513353D01*
X190134641Y-75530205D01*
X190249940Y-75596004D01*
X190338299Y-75733613D01*
X190408680Y-75965898D01*
X190470046Y-76315720D01*
X190531361Y-76805946D01*
X190547684Y-76952686D01*
X190599237Y-77410239D01*
X190648552Y-77824750D01*
X190690978Y-78158705D01*
X190721865Y-78374589D01*
X190728939Y-78414569D01*
X190739552Y-78577546D01*
X190661760Y-78681819D01*
X190474983Y-78774424D01*
X190267330Y-78891974D01*
X190217711Y-79009329D01*
X190223010Y-79027042D01*
X190314644Y-79139261D01*
X190362777Y-79154020D01*
X190502300Y-79143773D01*
X190761932Y-79116860D01*
X191093937Y-79079019D01*
X191450579Y-79035989D01*
X191784123Y-78993508D01*
X192046834Y-78957315D01*
X192179786Y-78935580D01*
X192339330Y-78855754D01*
X192357553Y-78740273D01*
X192242723Y-78632834D01*
X192114524Y-78590634D01*
X191925439Y-78539213D01*
X191828743Y-78487142D01*
X191828612Y-78486917D01*
X191805075Y-78381577D01*
X191772834Y-78157131D01*
X191740299Y-77875287D01*
X191682138Y-77316220D01*
X192116314Y-77264799D01*
X192599284Y-77148535D01*
X193031812Y-76934143D01*
X193363826Y-76648591D01*
X193435520Y-76554306D01*
X193618308Y-76282925D01*
X193671630Y-76671956D01*
X193699371Y-76964107D01*
X193718655Y-77338722D01*
X193724953Y-77671750D01*
X193733394Y-78078289D01*
X193755285Y-78509313D01*
X193779347Y-78802933D01*
X193833742Y-79323353D01*
X197873620Y-79323353D01*
X197873620Y-87874686D01*
X167901620Y-87874686D01*
X167901620Y-86689353D01*
X184638574Y-86689353D01*
X187967620Y-86689353D01*
X187981956Y-85313520D01*
X187996293Y-83937686D01*
X188056970Y-85038353D01*
X188080663Y-85469288D01*
X188101619Y-85852556D01*
X188117710Y-86149133D01*
X188126813Y-86319995D01*
X188127300Y-86329520D01*
X188136953Y-86520020D01*
X192226442Y-86520020D01*
X192170415Y-85101853D01*
X192146702Y-84523308D01*
X192119899Y-83904394D01*
X192092800Y-83307616D01*
X192068200Y-82795474D01*
X192060632Y-82646520D01*
X192006876Y-81609353D01*
X190029581Y-81609353D01*
X189401891Y-81608845D01*
X188923332Y-81606168D01*
X188573699Y-81599592D01*
X188332790Y-81587386D01*
X188180402Y-81567820D01*
X188096332Y-81539165D01*
X188060377Y-81499689D01*
X188052335Y-81447664D01*
X188052286Y-81440020D01*
X188045497Y-81381866D01*
X188010398Y-81338814D01*
X187924894Y-81308597D01*
X187766889Y-81288948D01*
X187514289Y-81277602D01*
X187144998Y-81272293D01*
X186636921Y-81270754D01*
X186401286Y-81270686D01*
X184750286Y-81270686D01*
X184750091Y-82011520D01*
X184747549Y-82317873D01*
X184740548Y-82756622D01*
X184729848Y-83290908D01*
X184716209Y-83883872D01*
X184700391Y-84498657D01*
X184694235Y-84720853D01*
X184638574Y-86689353D01*
X167901620Y-86689353D01*
X167901620Y-85688520D01*
X170383168Y-85688520D01*
X170385923Y-85811540D01*
X170388181Y-85817469D01*
X170489059Y-85845194D01*
X170730353Y-85883468D01*
X171083744Y-85928633D01*
X171520910Y-85977032D01*
X171949086Y-86019084D01*
X172541930Y-86074031D01*
X172987349Y-86115064D01*
X173306532Y-86143844D01*
X173520669Y-86162028D01*
X173650950Y-86171277D01*
X173718565Y-86173250D01*
X173744703Y-86169605D01*
X173750556Y-86162002D01*
X173751144Y-86160186D01*
X173765175Y-86059627D01*
X173789996Y-85820373D01*
X173823293Y-85469691D01*
X173862755Y-85034849D01*
X173906066Y-84543117D01*
X173950915Y-84021763D01*
X173994988Y-83498055D01*
X174035971Y-82999261D01*
X174071551Y-82552651D01*
X174099415Y-82185491D01*
X174117250Y-81925052D01*
X174122741Y-81798600D01*
X174121803Y-81790963D01*
X174033896Y-81775190D01*
X173808655Y-81748196D01*
X173477099Y-81712863D01*
X173070246Y-81672074D01*
X172619116Y-81628713D01*
X172154727Y-81585662D01*
X171708098Y-81545804D01*
X171310248Y-81512022D01*
X170992196Y-81487199D01*
X170784960Y-81474218D01*
X170719033Y-81474710D01*
X170699361Y-81567810D01*
X170671200Y-81801816D01*
X170636656Y-82149092D01*
X170597834Y-82582000D01*
X170556839Y-83072903D01*
X170515778Y-83594164D01*
X170476756Y-84118144D01*
X170441879Y-84617207D01*
X170413251Y-85063716D01*
X170392979Y-85430032D01*
X170383168Y-85688520D01*
X167901620Y-85688520D01*
X167901620Y-85195174D01*
X168084019Y-85195174D01*
X168085868Y-85256820D01*
X168234719Y-85303326D01*
X168519459Y-85330061D01*
X168748286Y-85334686D01*
X169075468Y-85325037D01*
X169311798Y-85298982D01*
X169421862Y-85260866D01*
X169425620Y-85251633D01*
X169353780Y-85171381D01*
X169213953Y-85115454D01*
X169085992Y-85064728D01*
X169023307Y-84963759D01*
X169003354Y-84762779D01*
X169002286Y-84648174D01*
X169002286Y-84234020D01*
X169297902Y-84234020D01*
X169564831Y-84282619D01*
X169699268Y-84403353D01*
X169834229Y-84561094D01*
X169935588Y-84556455D01*
X169998507Y-84393930D01*
X170018286Y-84107020D01*
X170002560Y-83810169D01*
X169947482Y-83670037D01*
X169841206Y-83676256D01*
X169679620Y-83810686D01*
X169466041Y-83938147D01*
X169256286Y-83980020D01*
X169111079Y-83972200D01*
X169035499Y-83920956D01*
X169006813Y-83784607D01*
X169002286Y-83521474D01*
X169002286Y-83048686D01*
X169381673Y-83048686D01*
X169622250Y-83060501D01*
X169746459Y-83113007D01*
X169806591Y-83231794D01*
X169814185Y-83260353D01*
X169893683Y-83437065D01*
X169988090Y-83458883D01*
X170075234Y-83336138D01*
X170128703Y-83113807D01*
X170154783Y-82891987D01*
X170163454Y-82758504D01*
X170161018Y-82742650D01*
X170075547Y-82741074D01*
X169853911Y-82746211D01*
X169529103Y-82757084D01*
X169134117Y-82772717D01*
X169108120Y-82773818D01*
X168608373Y-82802165D01*
X168274152Y-82838208D01*
X168101781Y-82882932D01*
X168087585Y-82937321D01*
X168227889Y-83002361D01*
X168240286Y-83006353D01*
X168312358Y-83041329D01*
X168360522Y-83111766D01*
X168389543Y-83247446D01*
X168404187Y-83478152D01*
X168409219Y-83833666D01*
X168409619Y-84064686D01*
X168407580Y-84492908D01*
X168398284Y-84781596D01*
X168376966Y-84960535D01*
X168338862Y-85059506D01*
X168279205Y-85108291D01*
X168240286Y-85123020D01*
X168084019Y-85195174D01*
X167901620Y-85195174D01*
X167901620Y-81355353D01*
X174225027Y-81355353D01*
X174280657Y-82765875D01*
X174300650Y-83341829D01*
X174317441Y-83957034D01*
X174329606Y-84549199D01*
X174335726Y-85056037D01*
X174336178Y-85200042D01*
X174336069Y-86223686D01*
X175837645Y-86196830D01*
X176321818Y-86187355D01*
X176742561Y-86177567D01*
X177072645Y-86168226D01*
X177284841Y-86160094D01*
X177352479Y-86154497D01*
X177352344Y-86069259D01*
X177337765Y-85866994D01*
X177321906Y-85694520D01*
X177278075Y-85250020D01*
X175521620Y-85250020D01*
X175521310Y-84509186D01*
X175516997Y-84134985D01*
X175505456Y-83651956D01*
X175488403Y-83120369D01*
X175467557Y-82600494D01*
X175465806Y-82561853D01*
X175410613Y-81355353D01*
X177527027Y-81355353D01*
X177582657Y-82765875D01*
X177602650Y-83341829D01*
X177619441Y-83957034D01*
X177631606Y-84549199D01*
X177637726Y-85056037D01*
X177638178Y-85200042D01*
X177638069Y-86223686D01*
X179139645Y-86196830D01*
X179623818Y-86187355D01*
X180044561Y-86177567D01*
X180374645Y-86168226D01*
X180586841Y-86160094D01*
X180654479Y-86154497D01*
X180654344Y-86069259D01*
X180639765Y-85866994D01*
X180623906Y-85694520D01*
X180623315Y-85688520D01*
X180881834Y-85688520D01*
X180884590Y-85811540D01*
X180886847Y-85817469D01*
X180987725Y-85845194D01*
X181229020Y-85883468D01*
X181582410Y-85928633D01*
X182019576Y-85977032D01*
X182447753Y-86019084D01*
X183040597Y-86074031D01*
X183486016Y-86115064D01*
X183805199Y-86143844D01*
X184019336Y-86162028D01*
X184149616Y-86171277D01*
X184217231Y-86173250D01*
X184243370Y-86169605D01*
X184249222Y-86162002D01*
X184249811Y-86160186D01*
X184263842Y-86059627D01*
X184288662Y-85820373D01*
X184321960Y-85469691D01*
X184361421Y-85034849D01*
X184404733Y-84543117D01*
X184449582Y-84021763D01*
X184493654Y-83498055D01*
X184534637Y-82999261D01*
X184570217Y-82552651D01*
X184598082Y-82185491D01*
X184615916Y-81925052D01*
X184621408Y-81798600D01*
X184620470Y-81790963D01*
X184532563Y-81775190D01*
X184307322Y-81748196D01*
X183975765Y-81712863D01*
X183568913Y-81672074D01*
X183117783Y-81628713D01*
X182653394Y-81585662D01*
X182206765Y-81545804D01*
X181808915Y-81512022D01*
X181490863Y-81487199D01*
X181283627Y-81474218D01*
X181217700Y-81474710D01*
X181198028Y-81567810D01*
X181169867Y-81801816D01*
X181135322Y-82149092D01*
X181096500Y-82582000D01*
X181055506Y-83072903D01*
X181014445Y-83594164D01*
X180975423Y-84118144D01*
X180940545Y-84617207D01*
X180911918Y-85063716D01*
X180891645Y-85430032D01*
X180881834Y-85688520D01*
X180623315Y-85688520D01*
X180580075Y-85250020D01*
X178823620Y-85250020D01*
X178823310Y-84509186D01*
X178818997Y-84134985D01*
X178807456Y-83651956D01*
X178790403Y-83120369D01*
X178769557Y-82600494D01*
X178767806Y-82561853D01*
X178712613Y-81355353D01*
X177527027Y-81355353D01*
X175410613Y-81355353D01*
X174225027Y-81355353D01*
X167901620Y-81355353D01*
X167901620Y-81186020D01*
X192370286Y-81186020D01*
X192370286Y-86435353D01*
X193259286Y-86435353D01*
X193665252Y-86431459D01*
X193929345Y-86417175D01*
X194078899Y-86388596D01*
X194141250Y-86341816D01*
X194148286Y-86308353D01*
X194172399Y-86256318D01*
X194261168Y-86220353D01*
X194439238Y-86197719D01*
X194731255Y-86185679D01*
X195161865Y-86181493D01*
X195291286Y-86181353D01*
X196434286Y-86181353D01*
X196434286Y-80932020D01*
X195248953Y-80932020D01*
X194770898Y-80934562D01*
X194437864Y-80943921D01*
X194225590Y-80962697D01*
X194109815Y-80993489D01*
X194066280Y-81038897D01*
X194063620Y-81059020D01*
X194035641Y-81118242D01*
X193933138Y-81156264D01*
X193728259Y-81177264D01*
X193393152Y-81185418D01*
X193216953Y-81186020D01*
X192370286Y-81186020D01*
X167901620Y-81186020D01*
X167901620Y-76819161D01*
X168007249Y-76819161D01*
X168052884Y-76959232D01*
X168132558Y-77069598D01*
X168229206Y-77237835D01*
X168297753Y-77479055D01*
X168347391Y-77831898D01*
X168367655Y-78058015D01*
X168428336Y-78824696D01*
X168651811Y-78782419D01*
X168821815Y-78757780D01*
X169118319Y-78722158D01*
X169499230Y-78680368D01*
X169912453Y-78638206D01*
X170949619Y-78536271D01*
X170949620Y-78174737D01*
X170944760Y-77898156D01*
X170909352Y-77726232D01*
X170812152Y-77639224D01*
X170621917Y-77617391D01*
X170307404Y-77640991D01*
X170133960Y-77659356D01*
X169732363Y-77692766D01*
X169471562Y-77683586D01*
X169326260Y-77622204D01*
X169271163Y-77499006D01*
X169276968Y-77333686D01*
X169318352Y-77232640D01*
X169436633Y-77168886D01*
X169671097Y-77125380D01*
X169788725Y-77111692D01*
X170060034Y-77076393D01*
X170255802Y-77039452D01*
X170322119Y-77015743D01*
X170336573Y-76914055D01*
X170326121Y-76701418D01*
X170308490Y-76543389D01*
X170251573Y-76114325D01*
X169711596Y-76164749D01*
X169414481Y-76186311D01*
X169249425Y-76177392D01*
X169181022Y-76132623D01*
X169171620Y-76082854D01*
X169141215Y-75880879D01*
X169123163Y-75824260D01*
X169114532Y-75742404D01*
X169177832Y-75681808D01*
X169337594Y-75635199D01*
X169618345Y-75595301D01*
X170026447Y-75556391D01*
X170669609Y-75501343D01*
X170629403Y-75062848D01*
X170601361Y-74808852D01*
X170573204Y-74634581D01*
X170559164Y-74590497D01*
X170469506Y-74586072D01*
X170249167Y-74597076D01*
X169935744Y-74620069D01*
X169566837Y-74651613D01*
X169180042Y-74688270D01*
X168812957Y-74726602D01*
X168503181Y-74763171D01*
X168288311Y-74794539D01*
X168252594Y-74801425D01*
X168161924Y-74826495D01*
X168106641Y-74876803D01*
X168081507Y-74985030D01*
X168081285Y-75183860D01*
X168100738Y-75505975D01*
X168112695Y-75674433D01*
X168136095Y-76115794D01*
X168130932Y-76418370D01*
X168095862Y-76610505D01*
X168065148Y-76676518D01*
X168007249Y-76819161D01*
X167901620Y-76819161D01*
X167901620Y-74497353D01*
X171118953Y-74497353D01*
X171118953Y-76263536D01*
X171121501Y-76820953D01*
X171128606Y-77345310D01*
X171139464Y-77803972D01*
X171153268Y-78164304D01*
X171169211Y-78393671D01*
X171172170Y-78417983D01*
X171215576Y-78657896D01*
X171283904Y-78778264D01*
X171414317Y-78828434D01*
X171489670Y-78839584D01*
X171845838Y-78876331D01*
X172078802Y-78874057D01*
X172231301Y-78827471D01*
X172343773Y-78733831D01*
X172416095Y-78631161D01*
X172454181Y-78496510D01*
X172462066Y-78288979D01*
X172443787Y-77967663D01*
X172432822Y-77831154D01*
X172371473Y-77094664D01*
X172643284Y-77298842D01*
X172879104Y-77488181D01*
X173142085Y-77716264D01*
X173222934Y-77790296D01*
X173664929Y-78185008D01*
X174050977Y-78494366D01*
X174364113Y-78706100D01*
X174587367Y-78807940D01*
X174640381Y-78815353D01*
X174844286Y-78815353D01*
X174844286Y-77593734D01*
X174841703Y-77102034D01*
X174831920Y-76751291D01*
X174811887Y-76513180D01*
X174778555Y-76359374D01*
X174728873Y-76261549D01*
X174696875Y-76224704D01*
X174607279Y-76101586D01*
X174654542Y-76042268D01*
X174711436Y-75953818D01*
X174745767Y-75725626D01*
X174759267Y-75344677D01*
X174759620Y-75252297D01*
X174759620Y-74497353D01*
X173495751Y-74497353D01*
X173471519Y-75317990D01*
X173447286Y-76138628D01*
X173128758Y-75858650D01*
X172879207Y-75673643D01*
X172678776Y-75612405D01*
X172599591Y-75618938D01*
X172447874Y-75625168D01*
X172393978Y-75531871D01*
X172388953Y-75422711D01*
X172330374Y-75203122D01*
X172135435Y-75005949D01*
X172114930Y-74991095D01*
X171893840Y-74822635D01*
X171710465Y-74665016D01*
X171691597Y-74646663D01*
X171489208Y-74527947D01*
X171330620Y-74497353D01*
X171118953Y-74497353D01*
X167901620Y-74497353D01*
X167901620Y-73986127D01*
X175098286Y-73986127D01*
X175099572Y-75194240D01*
X175125849Y-76115667D01*
X175205486Y-76930184D01*
X175268905Y-77326863D01*
X175338566Y-77738830D01*
X175394136Y-78122131D01*
X175428788Y-78426319D01*
X175436953Y-78568772D01*
X175464655Y-78918108D01*
X175548563Y-79110596D01*
X175650067Y-79154020D01*
X175760361Y-79090043D01*
X175952229Y-78913504D01*
X176205884Y-78647487D01*
X176501541Y-78315077D01*
X176819415Y-77939358D01*
X177139720Y-77543416D01*
X177442671Y-77150336D01*
X177708482Y-76783201D01*
X177809356Y-76634650D01*
X178103953Y-76189614D01*
X178161177Y-76549983D01*
X178189912Y-76813734D01*
X178212407Y-77173650D01*
X178224225Y-77556574D01*
X178224677Y-77596433D01*
X178235203Y-78011000D01*
X178256816Y-78442433D01*
X178284873Y-78798371D01*
X178285347Y-78802933D01*
X178339742Y-79323353D01*
X182405109Y-79323353D01*
X182349081Y-77905186D01*
X182325369Y-77326641D01*
X182298566Y-76707728D01*
X182271467Y-76110949D01*
X182246867Y-75598807D01*
X182239298Y-75449853D01*
X182185543Y-74412686D01*
X180123581Y-74412686D01*
X179481148Y-74413089D01*
X178988246Y-74415418D01*
X178625074Y-74421355D01*
X178371828Y-74432580D01*
X178208708Y-74450774D01*
X178115910Y-74477619D01*
X178073634Y-74514795D01*
X178062077Y-74563983D01*
X178061620Y-74587725D01*
X178023173Y-74716605D01*
X177913453Y-74718746D01*
X177629894Y-74638620D01*
X177441108Y-74617548D01*
X177300327Y-74675635D01*
X177160782Y-74832986D01*
X176975704Y-75109707D01*
X176964695Y-75126609D01*
X176792068Y-75387698D01*
X176658125Y-75583013D01*
X176586411Y-75678436D01*
X176580999Y-75682686D01*
X176572114Y-75604839D01*
X176567797Y-75398486D01*
X176568748Y-75104412D01*
X176569777Y-75029162D01*
X176579953Y-74375638D01*
X176071953Y-74238251D01*
X175774576Y-74158686D01*
X182607027Y-74158686D01*
X182662657Y-75569208D01*
X182682650Y-76145162D01*
X182699441Y-76760367D01*
X182711606Y-77352533D01*
X182717726Y-77859370D01*
X182718178Y-78003375D01*
X182718069Y-79027020D01*
X184219645Y-79000163D01*
X184703818Y-78990689D01*
X185124561Y-78980900D01*
X185454645Y-78971560D01*
X185666841Y-78963427D01*
X185734479Y-78957830D01*
X185734344Y-78872593D01*
X185719765Y-78670328D01*
X185703906Y-78497853D01*
X185703315Y-78491853D01*
X185961834Y-78491853D01*
X185964590Y-78614874D01*
X185966847Y-78620803D01*
X186067725Y-78648527D01*
X186309020Y-78686801D01*
X186662410Y-78731966D01*
X187099576Y-78780366D01*
X187527753Y-78822417D01*
X188120597Y-78877364D01*
X188566016Y-78918398D01*
X188885199Y-78947177D01*
X189099336Y-78965362D01*
X189229616Y-78974611D01*
X189297231Y-78976583D01*
X189323370Y-78972939D01*
X189329222Y-78965336D01*
X189329811Y-78963520D01*
X189343842Y-78862961D01*
X189368662Y-78623706D01*
X189401960Y-78273024D01*
X189441421Y-77838183D01*
X189484733Y-77346451D01*
X189529582Y-76825097D01*
X189573654Y-76301388D01*
X189614637Y-75802595D01*
X189650217Y-75355984D01*
X189678082Y-74988825D01*
X189695916Y-74728385D01*
X189701408Y-74601934D01*
X189700470Y-74594297D01*
X189612563Y-74578524D01*
X189387322Y-74551529D01*
X189055765Y-74516196D01*
X188648913Y-74475408D01*
X188197783Y-74432047D01*
X187733394Y-74388996D01*
X187286765Y-74349138D01*
X186888915Y-74315356D01*
X186570863Y-74290533D01*
X186363627Y-74277551D01*
X186297700Y-74278043D01*
X186278028Y-74371143D01*
X186249867Y-74605150D01*
X186215322Y-74952426D01*
X186176500Y-75385334D01*
X186135506Y-75876237D01*
X186094445Y-76397497D01*
X186055423Y-76921477D01*
X186020545Y-77420541D01*
X185991918Y-77867049D01*
X185971645Y-78233366D01*
X185961834Y-78491853D01*
X185703315Y-78491853D01*
X185660075Y-78053353D01*
X183903620Y-78053353D01*
X183903310Y-77312520D01*
X183898997Y-76938318D01*
X183887456Y-76455290D01*
X183870403Y-75923703D01*
X183849557Y-75403827D01*
X183847806Y-75365186D01*
X183792613Y-74158686D01*
X182607027Y-74158686D01*
X175774576Y-74158686D01*
X175757779Y-74154192D01*
X175475781Y-74080271D01*
X175331120Y-74043496D01*
X175098286Y-73986127D01*
X167901620Y-73986127D01*
X167901620Y-73566020D01*
X197873620Y-73566020D01*
X197859104Y-75619186D01*
D11*
X75616300Y-70624700D02*
G75*
G03*
X75616300Y-70624700I-2620000J0D01*
G01*
X72996300Y-71664700D02*
X72996300Y-73204700D01*
X72996300Y-68044700D02*
X72996300Y-69584700D01*
X73036300Y-71664700D02*
X73036300Y-73204700D01*
X73036300Y-68044700D02*
X73036300Y-69584700D01*
X73076300Y-68045700D02*
X73076300Y-69584700D01*
X73076300Y-71664700D02*
X73076300Y-73203700D01*
X73116300Y-68046700D02*
X73116300Y-69584700D01*
X73116300Y-71664700D02*
X73116300Y-73202700D01*
X73156300Y-68048700D02*
X73156300Y-69584700D01*
X73156300Y-71664700D02*
X73156300Y-73200700D01*
X73196300Y-68051700D02*
X73196300Y-69584700D01*
X73196300Y-71664700D02*
X73196300Y-73197700D01*
X73236300Y-68055700D02*
X73236300Y-69584700D01*
X73236300Y-71664700D02*
X73236300Y-73193700D01*
X73276300Y-68059700D02*
X73276300Y-69584700D01*
X73276300Y-71664700D02*
X73276300Y-73189700D01*
X73316300Y-68063700D02*
X73316300Y-69584700D01*
X73316300Y-71664700D02*
X73316300Y-73185700D01*
X73356300Y-68068700D02*
X73356300Y-69584700D01*
X73356300Y-71664700D02*
X73356300Y-73180700D01*
X73396300Y-68074700D02*
X73396300Y-69584700D01*
X73396300Y-71664700D02*
X73396300Y-73174700D01*
X73436300Y-68081700D02*
X73436300Y-69584700D01*
X73436300Y-71664700D02*
X73436300Y-73167700D01*
X73476300Y-68088700D02*
X73476300Y-69584700D01*
X73476300Y-71664700D02*
X73476300Y-73160700D01*
X73516300Y-68096700D02*
X73516300Y-69584700D01*
X73516300Y-71664700D02*
X73516300Y-73152700D01*
X73556300Y-68104700D02*
X73556300Y-69584700D01*
X73556300Y-71664700D02*
X73556300Y-73144700D01*
X73596300Y-68113700D02*
X73596300Y-69584700D01*
X73596300Y-71664700D02*
X73596300Y-73135700D01*
X73636300Y-68123700D02*
X73636300Y-69584700D01*
X73636300Y-71664700D02*
X73636300Y-73125700D01*
X73676300Y-68133700D02*
X73676300Y-69584700D01*
X73676300Y-71664700D02*
X73676300Y-73115700D01*
X73717300Y-68144700D02*
X73717300Y-69584700D01*
X73717300Y-71664700D02*
X73717300Y-73104700D01*
X73757300Y-68156700D02*
X73757300Y-69584700D01*
X73757300Y-71664700D02*
X73757300Y-73092700D01*
X73797300Y-68169700D02*
X73797300Y-69584700D01*
X73797300Y-71664700D02*
X73797300Y-73079700D01*
X73837300Y-68182700D02*
X73837300Y-69584700D01*
X73837300Y-71664700D02*
X73837300Y-73066700D01*
X73877300Y-68196700D02*
X73877300Y-69584700D01*
X73877300Y-71664700D02*
X73877300Y-73052700D01*
X73917300Y-68210700D02*
X73917300Y-69584700D01*
X73917300Y-71664700D02*
X73917300Y-73038700D01*
X73957300Y-68226700D02*
X73957300Y-69584700D01*
X73957300Y-71664700D02*
X73957300Y-73022700D01*
X73997300Y-68242700D02*
X73997300Y-69584700D01*
X73997300Y-71664700D02*
X73997300Y-73006700D01*
X74037300Y-68259700D02*
X74037300Y-69584700D01*
X74037300Y-71664700D02*
X74037300Y-72989700D01*
X74077300Y-68276700D02*
X74077300Y-69584700D01*
X74077300Y-71664700D02*
X74077300Y-72972700D01*
X74117300Y-68295700D02*
X74117300Y-69584700D01*
X74117300Y-71664700D02*
X74117300Y-72953700D01*
X74157300Y-68314700D02*
X74157300Y-69584700D01*
X74157300Y-71664700D02*
X74157300Y-72934700D01*
X74197300Y-68334700D02*
X74197300Y-69584700D01*
X74197300Y-71664700D02*
X74197300Y-72914700D01*
X74237300Y-68356700D02*
X74237300Y-69584700D01*
X74237300Y-71664700D02*
X74237300Y-72892700D01*
X74277300Y-68377700D02*
X74277300Y-69584700D01*
X74277300Y-71664700D02*
X74277300Y-72871700D01*
X74317300Y-68400700D02*
X74317300Y-69584700D01*
X74317300Y-71664700D02*
X74317300Y-72848700D01*
X74357300Y-68424700D02*
X74357300Y-69584700D01*
X74357300Y-71664700D02*
X74357300Y-72824700D01*
X74397300Y-68449700D02*
X74397300Y-69584700D01*
X74397300Y-71664700D02*
X74397300Y-72799700D01*
X74437300Y-68475700D02*
X74437300Y-69584700D01*
X74437300Y-71664700D02*
X74437300Y-72773700D01*
X74477300Y-68502700D02*
X74477300Y-69584700D01*
X74477300Y-71664700D02*
X74477300Y-72746700D01*
X74517300Y-68529700D02*
X74517300Y-69584700D01*
X74517300Y-71664700D02*
X74517300Y-72719700D01*
X74557300Y-68559700D02*
X74557300Y-69584700D01*
X74557300Y-71664700D02*
X74557300Y-72689700D01*
X74597300Y-68589700D02*
X74597300Y-69584700D01*
X74597300Y-71664700D02*
X74597300Y-72659700D01*
X74637300Y-68620700D02*
X74637300Y-69584700D01*
X74637300Y-71664700D02*
X74637300Y-72628700D01*
X74677300Y-68653700D02*
X74677300Y-69584700D01*
X74677300Y-71664700D02*
X74677300Y-72595700D01*
X74717300Y-68687700D02*
X74717300Y-69584700D01*
X74717300Y-71664700D02*
X74717300Y-72561700D01*
X74757300Y-68723700D02*
X74757300Y-69584700D01*
X74757300Y-71664700D02*
X74757300Y-72525700D01*
X74797300Y-68760700D02*
X74797300Y-69584700D01*
X74797300Y-71664700D02*
X74797300Y-72488700D01*
X74837300Y-68798700D02*
X74837300Y-69584700D01*
X74837300Y-71664700D02*
X74837300Y-72450700D01*
X74877300Y-68839700D02*
X74877300Y-69584700D01*
X74877300Y-71664700D02*
X74877300Y-72409700D01*
X74917300Y-68881700D02*
X74917300Y-69584700D01*
X74917300Y-71664700D02*
X74917300Y-72367700D01*
X74957300Y-68925700D02*
X74957300Y-69584700D01*
X74957300Y-71664700D02*
X74957300Y-72323700D01*
X74997300Y-68971700D02*
X74997300Y-69584700D01*
X74997300Y-71664700D02*
X74997300Y-72277700D01*
X70191525Y-69149700D02*
X70691525Y-69149700D01*
X70441525Y-68899700D02*
X70441525Y-69399700D01*
X75026520Y-71664700D02*
X75026520Y-72277700D01*
X156043500Y-67288660D02*
X156373500Y-67288660D01*
X156373500Y-67288660D02*
X156373500Y-73828660D01*
X156373500Y-73828660D02*
X156043500Y-73828660D01*
X153963500Y-67288660D02*
X153633500Y-67288660D01*
X153633500Y-67288660D02*
X153633500Y-73828660D01*
X153633500Y-73828660D02*
X153963500Y-73828660D01*
X111995925Y-67192820D02*
X111995925Y-67692820D01*
X111745925Y-67442820D02*
X112245925Y-67442820D01*
X117151700Y-68633820D02*
X117151700Y-69201820D01*
X117111700Y-68399820D02*
X117111700Y-69435820D01*
X117071700Y-68240820D02*
X117071700Y-69594820D01*
X117031700Y-68112820D02*
X117031700Y-69722820D01*
X116991700Y-68002820D02*
X116991700Y-69832820D01*
X116951700Y-67906820D02*
X116951700Y-69928820D01*
X116911700Y-67819820D02*
X116911700Y-70015820D01*
X116871700Y-67739820D02*
X116871700Y-70095820D01*
X116831700Y-67666820D02*
X116831700Y-70168820D01*
X116791700Y-67598820D02*
X116791700Y-70236820D01*
X116751700Y-67534820D02*
X116751700Y-70300820D01*
X116711700Y-67474820D02*
X116711700Y-70360820D01*
X116671700Y-67417820D02*
X116671700Y-70417820D01*
X116631700Y-67363820D02*
X116631700Y-70471820D01*
X116591700Y-67312820D02*
X116591700Y-70522820D01*
X116551700Y-69957820D02*
X116551700Y-70570820D01*
X116551700Y-67264820D02*
X116551700Y-67877820D01*
X116511700Y-69957820D02*
X116511700Y-70616820D01*
X116511700Y-67218820D02*
X116511700Y-67877820D01*
X116471700Y-69957820D02*
X116471700Y-70660820D01*
X116471700Y-67174820D02*
X116471700Y-67877820D01*
X116431700Y-69957820D02*
X116431700Y-70702820D01*
X116431700Y-67132820D02*
X116431700Y-67877820D01*
X116391700Y-69957820D02*
X116391700Y-70743820D01*
X116391700Y-67091820D02*
X116391700Y-67877820D01*
X116351700Y-69957820D02*
X116351700Y-70781820D01*
X116351700Y-67053820D02*
X116351700Y-67877820D01*
X116311700Y-69957820D02*
X116311700Y-70818820D01*
X116311700Y-67016820D02*
X116311700Y-67877820D01*
X116271700Y-69957820D02*
X116271700Y-70854820D01*
X116271700Y-66980820D02*
X116271700Y-67877820D01*
X116231700Y-69957820D02*
X116231700Y-70888820D01*
X116231700Y-66946820D02*
X116231700Y-67877820D01*
X116191700Y-69957820D02*
X116191700Y-70921820D01*
X116191700Y-66913820D02*
X116191700Y-67877820D01*
X116151700Y-69957820D02*
X116151700Y-70952820D01*
X116151700Y-66882820D02*
X116151700Y-67877820D01*
X116111700Y-69957820D02*
X116111700Y-70982820D01*
X116111700Y-66852820D02*
X116111700Y-67877820D01*
X116071700Y-69957820D02*
X116071700Y-71012820D01*
X116071700Y-66822820D02*
X116071700Y-67877820D01*
X116031700Y-69957820D02*
X116031700Y-71039820D01*
X116031700Y-66795820D02*
X116031700Y-67877820D01*
X115991700Y-69957820D02*
X115991700Y-71066820D01*
X115991700Y-66768820D02*
X115991700Y-67877820D01*
X115951700Y-69957820D02*
X115951700Y-71092820D01*
X115951700Y-66742820D02*
X115951700Y-67877820D01*
X115911700Y-69957820D02*
X115911700Y-71117820D01*
X115911700Y-66717820D02*
X115911700Y-67877820D01*
X115871700Y-69957820D02*
X115871700Y-71141820D01*
X115871700Y-66693820D02*
X115871700Y-67877820D01*
X115831700Y-69957820D02*
X115831700Y-71164820D01*
X115831700Y-66670820D02*
X115831700Y-67877820D01*
X115791700Y-69957820D02*
X115791700Y-71185820D01*
X115791700Y-66649820D02*
X115791700Y-67877820D01*
X115751700Y-69957820D02*
X115751700Y-71207820D01*
X115751700Y-66627820D02*
X115751700Y-67877820D01*
X115711700Y-69957820D02*
X115711700Y-71227820D01*
X115711700Y-66607820D02*
X115711700Y-67877820D01*
X115671700Y-69957820D02*
X115671700Y-71246820D01*
X115671700Y-66588820D02*
X115671700Y-67877820D01*
X115631700Y-69957820D02*
X115631700Y-71265820D01*
X115631700Y-66569820D02*
X115631700Y-67877820D01*
X115591700Y-69957820D02*
X115591700Y-71282820D01*
X115591700Y-66552820D02*
X115591700Y-67877820D01*
X115551700Y-69957820D02*
X115551700Y-71299820D01*
X115551700Y-66535820D02*
X115551700Y-67877820D01*
X115511700Y-69957820D02*
X115511700Y-71315820D01*
X115511700Y-66519820D02*
X115511700Y-67877820D01*
X115471700Y-69957820D02*
X115471700Y-71331820D01*
X115471700Y-66503820D02*
X115471700Y-67877820D01*
X115431700Y-69957820D02*
X115431700Y-71345820D01*
X115431700Y-66489820D02*
X115431700Y-67877820D01*
X115391700Y-69957820D02*
X115391700Y-71359820D01*
X115391700Y-66475820D02*
X115391700Y-67877820D01*
X115351700Y-69957820D02*
X115351700Y-71372820D01*
X115351700Y-66462820D02*
X115351700Y-67877820D01*
X115311700Y-69957820D02*
X115311700Y-71385820D01*
X115311700Y-66449820D02*
X115311700Y-67877820D01*
X115271700Y-69957820D02*
X115271700Y-71397820D01*
X115271700Y-66437820D02*
X115271700Y-67877820D01*
X115230700Y-69957820D02*
X115230700Y-71408820D01*
X115230700Y-66426820D02*
X115230700Y-67877820D01*
X115190700Y-69957820D02*
X115190700Y-71418820D01*
X115190700Y-66416820D02*
X115190700Y-67877820D01*
X115150700Y-69957820D02*
X115150700Y-71428820D01*
X115150700Y-66406820D02*
X115150700Y-67877820D01*
X115110700Y-69957820D02*
X115110700Y-71437820D01*
X115110700Y-66397820D02*
X115110700Y-67877820D01*
X115070700Y-69957820D02*
X115070700Y-71445820D01*
X115070700Y-66389820D02*
X115070700Y-67877820D01*
X115030700Y-69957820D02*
X115030700Y-71453820D01*
X115030700Y-66381820D02*
X115030700Y-67877820D01*
X114990700Y-69957820D02*
X114990700Y-71460820D01*
X114990700Y-66374820D02*
X114990700Y-67877820D01*
X114950700Y-69957820D02*
X114950700Y-71467820D01*
X114950700Y-66367820D02*
X114950700Y-67877820D01*
X114910700Y-69957820D02*
X114910700Y-71473820D01*
X114910700Y-66361820D02*
X114910700Y-67877820D01*
X114870700Y-69957820D02*
X114870700Y-71478820D01*
X114870700Y-66356820D02*
X114870700Y-67877820D01*
X114830700Y-69957820D02*
X114830700Y-71482820D01*
X114830700Y-66352820D02*
X114830700Y-67877820D01*
X114790700Y-69957820D02*
X114790700Y-71486820D01*
X114790700Y-66348820D02*
X114790700Y-67877820D01*
X114750700Y-69957820D02*
X114750700Y-71490820D01*
X114750700Y-66344820D02*
X114750700Y-67877820D01*
X114710700Y-69957820D02*
X114710700Y-71493820D01*
X114710700Y-66341820D02*
X114710700Y-67877820D01*
X114670700Y-69957820D02*
X114670700Y-71495820D01*
X114670700Y-66339820D02*
X114670700Y-67877820D01*
X114630700Y-69957820D02*
X114630700Y-71496820D01*
X114630700Y-66338820D02*
X114630700Y-67877820D01*
X114590700Y-66337820D02*
X114590700Y-67877820D01*
X114590700Y-69957820D02*
X114590700Y-71497820D01*
X114550700Y-66337820D02*
X114550700Y-67877820D01*
X114550700Y-69957820D02*
X114550700Y-71497820D01*
X117170700Y-68917820D02*
G75*
G03*
X117170700Y-68917820I-2620000J0D01*
G01*
X76648180Y-74753800D02*
X76648180Y-77493800D01*
X69408180Y-74753800D02*
X69408180Y-77493800D01*
X69408180Y-77493800D02*
X76648180Y-77493800D01*
X69408180Y-74753800D02*
X76648180Y-74753800D01*
X152503580Y-109790360D02*
X156243580Y-109790360D01*
X152503580Y-117030360D02*
X156243580Y-117030360D01*
X156243580Y-117030360D02*
X156243580Y-109790360D01*
X152503580Y-117030360D02*
X152503580Y-109790360D01*
X90377000Y-73531220D02*
G75*
G03*
X90377000Y-73531220I-2620000J0D01*
G01*
X88797000Y-73531220D02*
X90337000Y-73531220D01*
X85177000Y-73531220D02*
X86717000Y-73531220D01*
X88797000Y-73491220D02*
X90337000Y-73491220D01*
X85177000Y-73491220D02*
X86717000Y-73491220D01*
X85178000Y-73451220D02*
X86717000Y-73451220D01*
X88797000Y-73451220D02*
X90336000Y-73451220D01*
X85179000Y-73411220D02*
X86717000Y-73411220D01*
X88797000Y-73411220D02*
X90335000Y-73411220D01*
X85181000Y-73371220D02*
X86717000Y-73371220D01*
X88797000Y-73371220D02*
X90333000Y-73371220D01*
X85184000Y-73331220D02*
X86717000Y-73331220D01*
X88797000Y-73331220D02*
X90330000Y-73331220D01*
X85188000Y-73291220D02*
X86717000Y-73291220D01*
X88797000Y-73291220D02*
X90326000Y-73291220D01*
X85192000Y-73251220D02*
X86717000Y-73251220D01*
X88797000Y-73251220D02*
X90322000Y-73251220D01*
X85196000Y-73211220D02*
X86717000Y-73211220D01*
X88797000Y-73211220D02*
X90318000Y-73211220D01*
X85201000Y-73171220D02*
X86717000Y-73171220D01*
X88797000Y-73171220D02*
X90313000Y-73171220D01*
X85207000Y-73131220D02*
X86717000Y-73131220D01*
X88797000Y-73131220D02*
X90307000Y-73131220D01*
X85214000Y-73091220D02*
X86717000Y-73091220D01*
X88797000Y-73091220D02*
X90300000Y-73091220D01*
X85221000Y-73051220D02*
X86717000Y-73051220D01*
X88797000Y-73051220D02*
X90293000Y-73051220D01*
X85229000Y-73011220D02*
X86717000Y-73011220D01*
X88797000Y-73011220D02*
X90285000Y-73011220D01*
X85237000Y-72971220D02*
X86717000Y-72971220D01*
X88797000Y-72971220D02*
X90277000Y-72971220D01*
X85246000Y-72931220D02*
X86717000Y-72931220D01*
X88797000Y-72931220D02*
X90268000Y-72931220D01*
X85256000Y-72891220D02*
X86717000Y-72891220D01*
X88797000Y-72891220D02*
X90258000Y-72891220D01*
X85266000Y-72851220D02*
X86717000Y-72851220D01*
X88797000Y-72851220D02*
X90248000Y-72851220D01*
X85277000Y-72810220D02*
X86717000Y-72810220D01*
X88797000Y-72810220D02*
X90237000Y-72810220D01*
X85289000Y-72770220D02*
X86717000Y-72770220D01*
X88797000Y-72770220D02*
X90225000Y-72770220D01*
X85302000Y-72730220D02*
X86717000Y-72730220D01*
X88797000Y-72730220D02*
X90212000Y-72730220D01*
X85315000Y-72690220D02*
X86717000Y-72690220D01*
X88797000Y-72690220D02*
X90199000Y-72690220D01*
X85329000Y-72650220D02*
X86717000Y-72650220D01*
X88797000Y-72650220D02*
X90185000Y-72650220D01*
X85343000Y-72610220D02*
X86717000Y-72610220D01*
X88797000Y-72610220D02*
X90171000Y-72610220D01*
X85359000Y-72570220D02*
X86717000Y-72570220D01*
X88797000Y-72570220D02*
X90155000Y-72570220D01*
X85375000Y-72530220D02*
X86717000Y-72530220D01*
X88797000Y-72530220D02*
X90139000Y-72530220D01*
X85392000Y-72490220D02*
X86717000Y-72490220D01*
X88797000Y-72490220D02*
X90122000Y-72490220D01*
X85409000Y-72450220D02*
X86717000Y-72450220D01*
X88797000Y-72450220D02*
X90105000Y-72450220D01*
X85428000Y-72410220D02*
X86717000Y-72410220D01*
X88797000Y-72410220D02*
X90086000Y-72410220D01*
X85447000Y-72370220D02*
X86717000Y-72370220D01*
X88797000Y-72370220D02*
X90067000Y-72370220D01*
X85467000Y-72330220D02*
X86717000Y-72330220D01*
X88797000Y-72330220D02*
X90047000Y-72330220D01*
X85489000Y-72290220D02*
X86717000Y-72290220D01*
X88797000Y-72290220D02*
X90025000Y-72290220D01*
X85510000Y-72250220D02*
X86717000Y-72250220D01*
X88797000Y-72250220D02*
X90004000Y-72250220D01*
X85533000Y-72210220D02*
X86717000Y-72210220D01*
X88797000Y-72210220D02*
X89981000Y-72210220D01*
X85557000Y-72170220D02*
X86717000Y-72170220D01*
X88797000Y-72170220D02*
X89957000Y-72170220D01*
X85582000Y-72130220D02*
X86717000Y-72130220D01*
X88797000Y-72130220D02*
X89932000Y-72130220D01*
X85608000Y-72090220D02*
X86717000Y-72090220D01*
X88797000Y-72090220D02*
X89906000Y-72090220D01*
X85635000Y-72050220D02*
X86717000Y-72050220D01*
X88797000Y-72050220D02*
X89879000Y-72050220D01*
X85662000Y-72010220D02*
X86717000Y-72010220D01*
X88797000Y-72010220D02*
X89852000Y-72010220D01*
X85692000Y-71970220D02*
X86717000Y-71970220D01*
X88797000Y-71970220D02*
X89822000Y-71970220D01*
X85722000Y-71930220D02*
X86717000Y-71930220D01*
X88797000Y-71930220D02*
X89792000Y-71930220D01*
X85753000Y-71890220D02*
X86717000Y-71890220D01*
X88797000Y-71890220D02*
X89761000Y-71890220D01*
X85786000Y-71850220D02*
X86717000Y-71850220D01*
X88797000Y-71850220D02*
X89728000Y-71850220D01*
X85820000Y-71810220D02*
X86717000Y-71810220D01*
X88797000Y-71810220D02*
X89694000Y-71810220D01*
X85856000Y-71770220D02*
X86717000Y-71770220D01*
X88797000Y-71770220D02*
X89658000Y-71770220D01*
X85893000Y-71730220D02*
X86717000Y-71730220D01*
X88797000Y-71730220D02*
X89621000Y-71730220D01*
X85931000Y-71690220D02*
X86717000Y-71690220D01*
X88797000Y-71690220D02*
X89583000Y-71690220D01*
X85972000Y-71650220D02*
X86717000Y-71650220D01*
X88797000Y-71650220D02*
X89542000Y-71650220D01*
X86014000Y-71610220D02*
X86717000Y-71610220D01*
X88797000Y-71610220D02*
X89500000Y-71610220D01*
X86058000Y-71570220D02*
X86717000Y-71570220D01*
X88797000Y-71570220D02*
X89456000Y-71570220D01*
X86104000Y-71530220D02*
X86717000Y-71530220D01*
X88797000Y-71530220D02*
X89410000Y-71530220D01*
X86152000Y-71490220D02*
X89362000Y-71490220D01*
X86203000Y-71450220D02*
X89311000Y-71450220D01*
X86257000Y-71410220D02*
X89257000Y-71410220D01*
X86314000Y-71370220D02*
X89200000Y-71370220D01*
X86374000Y-71330220D02*
X89140000Y-71330220D01*
X86438000Y-71290220D02*
X89076000Y-71290220D01*
X86506000Y-71250220D02*
X89008000Y-71250220D01*
X86579000Y-71210220D02*
X88935000Y-71210220D01*
X86659000Y-71170220D02*
X88855000Y-71170220D01*
X86746000Y-71130220D02*
X88768000Y-71130220D01*
X86842000Y-71090220D02*
X88672000Y-71090220D01*
X86952000Y-71050220D02*
X88562000Y-71050220D01*
X87080000Y-71010220D02*
X88434000Y-71010220D01*
X87239000Y-70970220D02*
X88275000Y-70970220D01*
X87473000Y-70930220D02*
X88041000Y-70930220D01*
X86282000Y-76335995D02*
X86282000Y-75835995D01*
X86032000Y-76085995D02*
X86532000Y-76085995D01*
X100373320Y-105736720D02*
X107613320Y-105736720D01*
X100373320Y-108476720D02*
X107613320Y-108476720D01*
X100373320Y-105736720D02*
X100373320Y-108476720D01*
X107613320Y-105736720D02*
X107613320Y-108476720D01*
X107615860Y-108896480D02*
X107615860Y-111636480D01*
X100375860Y-108896480D02*
X100375860Y-111636480D01*
X100375860Y-111636480D02*
X107615860Y-111636480D01*
X100375860Y-108896480D02*
X107615860Y-108896480D01*
X100378400Y-112025760D02*
X107618400Y-112025760D01*
X100378400Y-114765760D02*
X107618400Y-114765760D01*
X100378400Y-112025760D02*
X100378400Y-114765760D01*
X107618400Y-112025760D02*
X107618400Y-114765760D01*
X100374580Y-117841700D02*
X100374580Y-115101700D01*
X107614580Y-117841700D02*
X107614580Y-115101700D01*
X107614580Y-115101700D02*
X100374580Y-115101700D01*
X107614580Y-117841700D02*
X100374580Y-117841700D01*
X100351720Y-105357600D02*
X100351720Y-102617600D01*
X107591720Y-105357600D02*
X107591720Y-102617600D01*
X107591720Y-102617600D02*
X100351720Y-102617600D01*
X107591720Y-105357600D02*
X100351720Y-105357600D01*
X107586640Y-102253720D02*
X100346640Y-102253720D01*
X107586640Y-99513720D02*
X100346640Y-99513720D01*
X107586640Y-102253720D02*
X107586640Y-99513720D01*
X100346640Y-102253720D02*
X100346640Y-99513720D01*
X100336480Y-99154920D02*
X100336480Y-96414920D01*
X107576480Y-99154920D02*
X107576480Y-96414920D01*
X107576480Y-96414920D02*
X100336480Y-96414920D01*
X107576480Y-99154920D02*
X100336480Y-99154920D01*
X100347920Y-93316120D02*
X107587920Y-93316120D01*
X100347920Y-96056120D02*
X107587920Y-96056120D01*
X100347920Y-93316120D02*
X100347920Y-96056120D01*
X107587920Y-93316120D02*
X107587920Y-96056120D01*
X94886485Y-68175800D02*
X94886485Y-68675800D01*
X94636485Y-68425800D02*
X95136485Y-68425800D01*
X100042260Y-69616800D02*
X100042260Y-70184800D01*
X100002260Y-69382800D02*
X100002260Y-70418800D01*
X99962260Y-69223800D02*
X99962260Y-70577800D01*
X99922260Y-69095800D02*
X99922260Y-70705800D01*
X99882260Y-68985800D02*
X99882260Y-70815800D01*
X99842260Y-68889800D02*
X99842260Y-70911800D01*
X99802260Y-68802800D02*
X99802260Y-70998800D01*
X99762260Y-68722800D02*
X99762260Y-71078800D01*
X99722260Y-68649800D02*
X99722260Y-71151800D01*
X99682260Y-68581800D02*
X99682260Y-71219800D01*
X99642260Y-68517800D02*
X99642260Y-71283800D01*
X99602260Y-68457800D02*
X99602260Y-71343800D01*
X99562260Y-68400800D02*
X99562260Y-71400800D01*
X99522260Y-68346800D02*
X99522260Y-71454800D01*
X99482260Y-68295800D02*
X99482260Y-71505800D01*
X99442260Y-70940800D02*
X99442260Y-71553800D01*
X99442260Y-68247800D02*
X99442260Y-68860800D01*
X99402260Y-70940800D02*
X99402260Y-71599800D01*
X99402260Y-68201800D02*
X99402260Y-68860800D01*
X99362260Y-70940800D02*
X99362260Y-71643800D01*
X99362260Y-68157800D02*
X99362260Y-68860800D01*
X99322260Y-70940800D02*
X99322260Y-71685800D01*
X99322260Y-68115800D02*
X99322260Y-68860800D01*
X99282260Y-70940800D02*
X99282260Y-71726800D01*
X99282260Y-68074800D02*
X99282260Y-68860800D01*
X99242260Y-70940800D02*
X99242260Y-71764800D01*
X99242260Y-68036800D02*
X99242260Y-68860800D01*
X99202260Y-70940800D02*
X99202260Y-71801800D01*
X99202260Y-67999800D02*
X99202260Y-68860800D01*
X99162260Y-70940800D02*
X99162260Y-71837800D01*
X99162260Y-67963800D02*
X99162260Y-68860800D01*
X99122260Y-70940800D02*
X99122260Y-71871800D01*
X99122260Y-67929800D02*
X99122260Y-68860800D01*
X99082260Y-70940800D02*
X99082260Y-71904800D01*
X99082260Y-67896800D02*
X99082260Y-68860800D01*
X99042260Y-70940800D02*
X99042260Y-71935800D01*
X99042260Y-67865800D02*
X99042260Y-68860800D01*
X99002260Y-70940800D02*
X99002260Y-71965800D01*
X99002260Y-67835800D02*
X99002260Y-68860800D01*
X98962260Y-70940800D02*
X98962260Y-71995800D01*
X98962260Y-67805800D02*
X98962260Y-68860800D01*
X98922260Y-70940800D02*
X98922260Y-72022800D01*
X98922260Y-67778800D02*
X98922260Y-68860800D01*
X98882260Y-70940800D02*
X98882260Y-72049800D01*
X98882260Y-67751800D02*
X98882260Y-68860800D01*
X98842260Y-70940800D02*
X98842260Y-72075800D01*
X98842260Y-67725800D02*
X98842260Y-68860800D01*
X98802260Y-70940800D02*
X98802260Y-72100800D01*
X98802260Y-67700800D02*
X98802260Y-68860800D01*
X98762260Y-70940800D02*
X98762260Y-72124800D01*
X98762260Y-67676800D02*
X98762260Y-68860800D01*
X98722260Y-70940800D02*
X98722260Y-72147800D01*
X98722260Y-67653800D02*
X98722260Y-68860800D01*
X98682260Y-70940800D02*
X98682260Y-72168800D01*
X98682260Y-67632800D02*
X98682260Y-68860800D01*
X98642260Y-70940800D02*
X98642260Y-72190800D01*
X98642260Y-67610800D02*
X98642260Y-68860800D01*
X98602260Y-70940800D02*
X98602260Y-72210800D01*
X98602260Y-67590800D02*
X98602260Y-68860800D01*
X98562260Y-70940800D02*
X98562260Y-72229800D01*
X98562260Y-67571800D02*
X98562260Y-68860800D01*
X98522260Y-70940800D02*
X98522260Y-72248800D01*
X98522260Y-67552800D02*
X98522260Y-68860800D01*
X98482260Y-70940800D02*
X98482260Y-72265800D01*
X98482260Y-67535800D02*
X98482260Y-68860800D01*
X98442260Y-70940800D02*
X98442260Y-72282800D01*
X98442260Y-67518800D02*
X98442260Y-68860800D01*
X98402260Y-70940800D02*
X98402260Y-72298800D01*
X98402260Y-67502800D02*
X98402260Y-68860800D01*
X98362260Y-70940800D02*
X98362260Y-72314800D01*
X98362260Y-67486800D02*
X98362260Y-68860800D01*
X98322260Y-70940800D02*
X98322260Y-72328800D01*
X98322260Y-67472800D02*
X98322260Y-68860800D01*
X98282260Y-70940800D02*
X98282260Y-72342800D01*
X98282260Y-67458800D02*
X98282260Y-68860800D01*
X98242260Y-70940800D02*
X98242260Y-72355800D01*
X98242260Y-67445800D02*
X98242260Y-68860800D01*
X98202260Y-70940800D02*
X98202260Y-72368800D01*
X98202260Y-67432800D02*
X98202260Y-68860800D01*
X98162260Y-70940800D02*
X98162260Y-72380800D01*
X98162260Y-67420800D02*
X98162260Y-68860800D01*
X98121260Y-70940800D02*
X98121260Y-72391800D01*
X98121260Y-67409800D02*
X98121260Y-68860800D01*
X98081260Y-70940800D02*
X98081260Y-72401800D01*
X98081260Y-67399800D02*
X98081260Y-68860800D01*
X98041260Y-70940800D02*
X98041260Y-72411800D01*
X98041260Y-67389800D02*
X98041260Y-68860800D01*
X98001260Y-70940800D02*
X98001260Y-72420800D01*
X98001260Y-67380800D02*
X98001260Y-68860800D01*
X97961260Y-70940800D02*
X97961260Y-72428800D01*
X97961260Y-67372800D02*
X97961260Y-68860800D01*
X97921260Y-70940800D02*
X97921260Y-72436800D01*
X97921260Y-67364800D02*
X97921260Y-68860800D01*
X97881260Y-70940800D02*
X97881260Y-72443800D01*
X97881260Y-67357800D02*
X97881260Y-68860800D01*
X97841260Y-70940800D02*
X97841260Y-72450800D01*
X97841260Y-67350800D02*
X97841260Y-68860800D01*
X97801260Y-70940800D02*
X97801260Y-72456800D01*
X97801260Y-67344800D02*
X97801260Y-68860800D01*
X97761260Y-70940800D02*
X97761260Y-72461800D01*
X97761260Y-67339800D02*
X97761260Y-68860800D01*
X97721260Y-70940800D02*
X97721260Y-72465800D01*
X97721260Y-67335800D02*
X97721260Y-68860800D01*
X97681260Y-70940800D02*
X97681260Y-72469800D01*
X97681260Y-67331800D02*
X97681260Y-68860800D01*
X97641260Y-70940800D02*
X97641260Y-72473800D01*
X97641260Y-67327800D02*
X97641260Y-68860800D01*
X97601260Y-70940800D02*
X97601260Y-72476800D01*
X97601260Y-67324800D02*
X97601260Y-68860800D01*
X97561260Y-70940800D02*
X97561260Y-72478800D01*
X97561260Y-67322800D02*
X97561260Y-68860800D01*
X97521260Y-70940800D02*
X97521260Y-72479800D01*
X97521260Y-67321800D02*
X97521260Y-68860800D01*
X97481260Y-67320800D02*
X97481260Y-68860800D01*
X97481260Y-70940800D02*
X97481260Y-72480800D01*
X97441260Y-67320800D02*
X97441260Y-68860800D01*
X97441260Y-70940800D02*
X97441260Y-72480800D01*
X100061260Y-69900800D02*
G75*
G03*
X100061260Y-69900800I-2620000J0D01*
G01*
X105234180Y-134297280D02*
X105234180Y-127057280D01*
X108974180Y-134297280D02*
X108974180Y-127057280D01*
X105234180Y-134297280D02*
X108974180Y-134297280D01*
X105234180Y-127057280D02*
X108974180Y-127057280D01*
X144287100Y-111712680D02*
X137047100Y-111712680D01*
X144287100Y-108972680D02*
X137047100Y-108972680D01*
X144287100Y-111712680D02*
X144287100Y-108972680D01*
X137047100Y-111712680D02*
X137047100Y-108972680D01*
X72095860Y-86583520D02*
G75*
G03*
X72095860Y-86583520I-2620000J0D01*
G01*
X69475860Y-87623520D02*
X69475860Y-89163520D01*
X69475860Y-84003520D02*
X69475860Y-85543520D01*
X69515860Y-87623520D02*
X69515860Y-89163520D01*
X69515860Y-84003520D02*
X69515860Y-85543520D01*
X69555860Y-84004520D02*
X69555860Y-85543520D01*
X69555860Y-87623520D02*
X69555860Y-89162520D01*
X69595860Y-84005520D02*
X69595860Y-85543520D01*
X69595860Y-87623520D02*
X69595860Y-89161520D01*
X69635860Y-84007520D02*
X69635860Y-85543520D01*
X69635860Y-87623520D02*
X69635860Y-89159520D01*
X69675860Y-84010520D02*
X69675860Y-85543520D01*
X69675860Y-87623520D02*
X69675860Y-89156520D01*
X69715860Y-84014520D02*
X69715860Y-85543520D01*
X69715860Y-87623520D02*
X69715860Y-89152520D01*
X69755860Y-84018520D02*
X69755860Y-85543520D01*
X69755860Y-87623520D02*
X69755860Y-89148520D01*
X69795860Y-84022520D02*
X69795860Y-85543520D01*
X69795860Y-87623520D02*
X69795860Y-89144520D01*
X69835860Y-84027520D02*
X69835860Y-85543520D01*
X69835860Y-87623520D02*
X69835860Y-89139520D01*
X69875860Y-84033520D02*
X69875860Y-85543520D01*
X69875860Y-87623520D02*
X69875860Y-89133520D01*
X69915860Y-84040520D02*
X69915860Y-85543520D01*
X69915860Y-87623520D02*
X69915860Y-89126520D01*
X69955860Y-84047520D02*
X69955860Y-85543520D01*
X69955860Y-87623520D02*
X69955860Y-89119520D01*
X69995860Y-84055520D02*
X69995860Y-85543520D01*
X69995860Y-87623520D02*
X69995860Y-89111520D01*
X70035860Y-84063520D02*
X70035860Y-85543520D01*
X70035860Y-87623520D02*
X70035860Y-89103520D01*
X70075860Y-84072520D02*
X70075860Y-85543520D01*
X70075860Y-87623520D02*
X70075860Y-89094520D01*
X70115860Y-84082520D02*
X70115860Y-85543520D01*
X70115860Y-87623520D02*
X70115860Y-89084520D01*
X70155860Y-84092520D02*
X70155860Y-85543520D01*
X70155860Y-87623520D02*
X70155860Y-89074520D01*
X70196860Y-84103520D02*
X70196860Y-85543520D01*
X70196860Y-87623520D02*
X70196860Y-89063520D01*
X70236860Y-84115520D02*
X70236860Y-85543520D01*
X70236860Y-87623520D02*
X70236860Y-89051520D01*
X70276860Y-84128520D02*
X70276860Y-85543520D01*
X70276860Y-87623520D02*
X70276860Y-89038520D01*
X70316860Y-84141520D02*
X70316860Y-85543520D01*
X70316860Y-87623520D02*
X70316860Y-89025520D01*
X70356860Y-84155520D02*
X70356860Y-85543520D01*
X70356860Y-87623520D02*
X70356860Y-89011520D01*
X70396860Y-84169520D02*
X70396860Y-85543520D01*
X70396860Y-87623520D02*
X70396860Y-88997520D01*
X70436860Y-84185520D02*
X70436860Y-85543520D01*
X70436860Y-87623520D02*
X70436860Y-88981520D01*
X70476860Y-84201520D02*
X70476860Y-85543520D01*
X70476860Y-87623520D02*
X70476860Y-88965520D01*
X70516860Y-84218520D02*
X70516860Y-85543520D01*
X70516860Y-87623520D02*
X70516860Y-88948520D01*
X70556860Y-84235520D02*
X70556860Y-85543520D01*
X70556860Y-87623520D02*
X70556860Y-88931520D01*
X70596860Y-84254520D02*
X70596860Y-85543520D01*
X70596860Y-87623520D02*
X70596860Y-88912520D01*
X70636860Y-84273520D02*
X70636860Y-85543520D01*
X70636860Y-87623520D02*
X70636860Y-88893520D01*
X70676860Y-84293520D02*
X70676860Y-85543520D01*
X70676860Y-87623520D02*
X70676860Y-88873520D01*
X70716860Y-84315520D02*
X70716860Y-85543520D01*
X70716860Y-87623520D02*
X70716860Y-88851520D01*
X70756860Y-84336520D02*
X70756860Y-85543520D01*
X70756860Y-87623520D02*
X70756860Y-88830520D01*
X70796860Y-84359520D02*
X70796860Y-85543520D01*
X70796860Y-87623520D02*
X70796860Y-88807520D01*
X70836860Y-84383520D02*
X70836860Y-85543520D01*
X70836860Y-87623520D02*
X70836860Y-88783520D01*
X70876860Y-84408520D02*
X70876860Y-85543520D01*
X70876860Y-87623520D02*
X70876860Y-88758520D01*
X70916860Y-84434520D02*
X70916860Y-85543520D01*
X70916860Y-87623520D02*
X70916860Y-88732520D01*
X70956860Y-84461520D02*
X70956860Y-85543520D01*
X70956860Y-87623520D02*
X70956860Y-88705520D01*
X70996860Y-84488520D02*
X70996860Y-85543520D01*
X70996860Y-87623520D02*
X70996860Y-88678520D01*
X71036860Y-84518520D02*
X71036860Y-85543520D01*
X71036860Y-87623520D02*
X71036860Y-88648520D01*
X71076860Y-84548520D02*
X71076860Y-85543520D01*
X71076860Y-87623520D02*
X71076860Y-88618520D01*
X71116860Y-84579520D02*
X71116860Y-85543520D01*
X71116860Y-87623520D02*
X71116860Y-88587520D01*
X71156860Y-84612520D02*
X71156860Y-85543520D01*
X71156860Y-87623520D02*
X71156860Y-88554520D01*
X71196860Y-84646520D02*
X71196860Y-85543520D01*
X71196860Y-87623520D02*
X71196860Y-88520520D01*
X71236860Y-84682520D02*
X71236860Y-85543520D01*
X71236860Y-87623520D02*
X71236860Y-88484520D01*
X71276860Y-84719520D02*
X71276860Y-85543520D01*
X71276860Y-87623520D02*
X71276860Y-88447520D01*
X71316860Y-84757520D02*
X71316860Y-85543520D01*
X71316860Y-87623520D02*
X71316860Y-88409520D01*
X71356860Y-84798520D02*
X71356860Y-85543520D01*
X71356860Y-87623520D02*
X71356860Y-88368520D01*
X71396860Y-84840520D02*
X71396860Y-85543520D01*
X71396860Y-87623520D02*
X71396860Y-88326520D01*
X71436860Y-84884520D02*
X71436860Y-85543520D01*
X71436860Y-87623520D02*
X71436860Y-88282520D01*
X71476860Y-84930520D02*
X71476860Y-85543520D01*
X71476860Y-87623520D02*
X71476860Y-88236520D01*
X71516860Y-84978520D02*
X71516860Y-88188520D01*
X71556860Y-85029520D02*
X71556860Y-88137520D01*
X71596860Y-85083520D02*
X71596860Y-88083520D01*
X71636860Y-85140520D02*
X71636860Y-88026520D01*
X71676860Y-85200520D02*
X71676860Y-87966520D01*
X71716860Y-85264520D02*
X71716860Y-87902520D01*
X71756860Y-85332520D02*
X71756860Y-87834520D01*
X71796860Y-85405520D02*
X71796860Y-87761520D01*
X71836860Y-85485520D02*
X71836860Y-87681520D01*
X71876860Y-85572520D02*
X71876860Y-87594520D01*
X71916860Y-85668520D02*
X71916860Y-87498520D01*
X71956860Y-85778520D02*
X71956860Y-87388520D01*
X71996860Y-85906520D02*
X71996860Y-87260520D01*
X72036860Y-86065520D02*
X72036860Y-87101520D01*
X72076860Y-86299520D02*
X72076860Y-86867520D01*
X66671085Y-85108520D02*
X67171085Y-85108520D01*
X66921085Y-84858520D02*
X66921085Y-85358520D01*
X162492360Y-88061940D02*
X162492360Y-95301940D01*
X159752360Y-88061940D02*
X159752360Y-95301940D01*
X162492360Y-88061940D02*
X159752360Y-88061940D01*
X162492360Y-95301940D02*
X159752360Y-95301940D01*
X155915920Y-88061940D02*
X155915920Y-95301940D01*
X152175920Y-88061940D02*
X152175920Y-95301940D01*
X155915920Y-88061940D02*
X152175920Y-88061940D01*
X155915920Y-95301940D02*
X152175920Y-95301940D01*
X162872920Y-81117440D02*
G75*
G03*
X162872920Y-81117440I-2620000J0D01*
G01*
X160252920Y-80077440D02*
X160252920Y-78537440D01*
X160252920Y-83697440D02*
X160252920Y-82157440D01*
X160212920Y-80077440D02*
X160212920Y-78537440D01*
X160212920Y-83697440D02*
X160212920Y-82157440D01*
X160172920Y-83696440D02*
X160172920Y-82157440D01*
X160172920Y-80077440D02*
X160172920Y-78538440D01*
X160132920Y-83695440D02*
X160132920Y-82157440D01*
X160132920Y-80077440D02*
X160132920Y-78539440D01*
X160092920Y-83693440D02*
X160092920Y-82157440D01*
X160092920Y-80077440D02*
X160092920Y-78541440D01*
X160052920Y-83690440D02*
X160052920Y-82157440D01*
X160052920Y-80077440D02*
X160052920Y-78544440D01*
X160012920Y-83686440D02*
X160012920Y-82157440D01*
X160012920Y-80077440D02*
X160012920Y-78548440D01*
X159972920Y-83682440D02*
X159972920Y-82157440D01*
X159972920Y-80077440D02*
X159972920Y-78552440D01*
X159932920Y-83678440D02*
X159932920Y-82157440D01*
X159932920Y-80077440D02*
X159932920Y-78556440D01*
X159892920Y-83673440D02*
X159892920Y-82157440D01*
X159892920Y-80077440D02*
X159892920Y-78561440D01*
X159852920Y-83667440D02*
X159852920Y-82157440D01*
X159852920Y-80077440D02*
X159852920Y-78567440D01*
X159812920Y-83660440D02*
X159812920Y-82157440D01*
X159812920Y-80077440D02*
X159812920Y-78574440D01*
X159772920Y-83653440D02*
X159772920Y-82157440D01*
X159772920Y-80077440D02*
X159772920Y-78581440D01*
X159732920Y-83645440D02*
X159732920Y-82157440D01*
X159732920Y-80077440D02*
X159732920Y-78589440D01*
X159692920Y-83637440D02*
X159692920Y-82157440D01*
X159692920Y-80077440D02*
X159692920Y-78597440D01*
X159652920Y-83628440D02*
X159652920Y-82157440D01*
X159652920Y-80077440D02*
X159652920Y-78606440D01*
X159612920Y-83618440D02*
X159612920Y-82157440D01*
X159612920Y-80077440D02*
X159612920Y-78616440D01*
X159572920Y-83608440D02*
X159572920Y-82157440D01*
X159572920Y-80077440D02*
X159572920Y-78626440D01*
X159531920Y-83597440D02*
X159531920Y-82157440D01*
X159531920Y-80077440D02*
X159531920Y-78637440D01*
X159491920Y-83585440D02*
X159491920Y-82157440D01*
X159491920Y-80077440D02*
X159491920Y-78649440D01*
X159451920Y-83572440D02*
X159451920Y-82157440D01*
X159451920Y-80077440D02*
X159451920Y-78662440D01*
X159411920Y-83559440D02*
X159411920Y-82157440D01*
X159411920Y-80077440D02*
X159411920Y-78675440D01*
X159371920Y-83545440D02*
X159371920Y-82157440D01*
X159371920Y-80077440D02*
X159371920Y-78689440D01*
X159331920Y-83531440D02*
X159331920Y-82157440D01*
X159331920Y-80077440D02*
X159331920Y-78703440D01*
X159291920Y-83515440D02*
X159291920Y-82157440D01*
X159291920Y-80077440D02*
X159291920Y-78719440D01*
X159251920Y-83499440D02*
X159251920Y-82157440D01*
X159251920Y-80077440D02*
X159251920Y-78735440D01*
X159211920Y-83482440D02*
X159211920Y-82157440D01*
X159211920Y-80077440D02*
X159211920Y-78752440D01*
X159171920Y-83465440D02*
X159171920Y-82157440D01*
X159171920Y-80077440D02*
X159171920Y-78769440D01*
X159131920Y-83446440D02*
X159131920Y-82157440D01*
X159131920Y-80077440D02*
X159131920Y-78788440D01*
X159091920Y-83427440D02*
X159091920Y-82157440D01*
X159091920Y-80077440D02*
X159091920Y-78807440D01*
X159051920Y-83407440D02*
X159051920Y-82157440D01*
X159051920Y-80077440D02*
X159051920Y-78827440D01*
X159011920Y-83385440D02*
X159011920Y-82157440D01*
X159011920Y-80077440D02*
X159011920Y-78849440D01*
X158971920Y-83364440D02*
X158971920Y-82157440D01*
X158971920Y-80077440D02*
X158971920Y-78870440D01*
X158931920Y-83341440D02*
X158931920Y-82157440D01*
X158931920Y-80077440D02*
X158931920Y-78893440D01*
X158891920Y-83317440D02*
X158891920Y-82157440D01*
X158891920Y-80077440D02*
X158891920Y-78917440D01*
X158851920Y-83292440D02*
X158851920Y-82157440D01*
X158851920Y-80077440D02*
X158851920Y-78942440D01*
X158811920Y-83266440D02*
X158811920Y-82157440D01*
X158811920Y-80077440D02*
X158811920Y-78968440D01*
X158771920Y-83239440D02*
X158771920Y-82157440D01*
X158771920Y-80077440D02*
X158771920Y-78995440D01*
X158731920Y-83212440D02*
X158731920Y-82157440D01*
X158731920Y-80077440D02*
X158731920Y-79022440D01*
X158691920Y-83182440D02*
X158691920Y-82157440D01*
X158691920Y-80077440D02*
X158691920Y-79052440D01*
X158651920Y-83152440D02*
X158651920Y-82157440D01*
X158651920Y-80077440D02*
X158651920Y-79082440D01*
X158611920Y-83121440D02*
X158611920Y-82157440D01*
X158611920Y-80077440D02*
X158611920Y-79113440D01*
X158571920Y-83088440D02*
X158571920Y-82157440D01*
X158571920Y-80077440D02*
X158571920Y-79146440D01*
X158531920Y-83054440D02*
X158531920Y-82157440D01*
X158531920Y-80077440D02*
X158531920Y-79180440D01*
X158491920Y-83018440D02*
X158491920Y-82157440D01*
X158491920Y-80077440D02*
X158491920Y-79216440D01*
X158451920Y-82981440D02*
X158451920Y-82157440D01*
X158451920Y-80077440D02*
X158451920Y-79253440D01*
X158411920Y-82943440D02*
X158411920Y-82157440D01*
X158411920Y-80077440D02*
X158411920Y-79291440D01*
X158371920Y-82902440D02*
X158371920Y-82157440D01*
X158371920Y-80077440D02*
X158371920Y-79332440D01*
X158331920Y-82860440D02*
X158331920Y-82157440D01*
X158331920Y-80077440D02*
X158331920Y-79374440D01*
X158291920Y-82816440D02*
X158291920Y-82157440D01*
X158291920Y-80077440D02*
X158291920Y-79418440D01*
X158251920Y-82770440D02*
X158251920Y-82157440D01*
X158251920Y-80077440D02*
X158251920Y-79464440D01*
X158211920Y-82722440D02*
X158211920Y-79512440D01*
X158171920Y-82671440D02*
X158171920Y-79563440D01*
X158131920Y-82617440D02*
X158131920Y-79617440D01*
X158091920Y-82560440D02*
X158091920Y-79674440D01*
X158051920Y-82500440D02*
X158051920Y-79734440D01*
X158011920Y-82436440D02*
X158011920Y-79798440D01*
X157971920Y-82368440D02*
X157971920Y-79866440D01*
X157931920Y-82295440D02*
X157931920Y-79939440D01*
X157891920Y-82215440D02*
X157891920Y-80019440D01*
X157851920Y-82128440D02*
X157851920Y-80106440D01*
X157811920Y-82032440D02*
X157811920Y-80202440D01*
X157771920Y-81922440D02*
X157771920Y-80312440D01*
X157731920Y-81794440D02*
X157731920Y-80440440D01*
X157691920Y-81635440D02*
X157691920Y-80599440D01*
X157651920Y-81401440D02*
X157651920Y-80833440D01*
X163057695Y-82592440D02*
X162557695Y-82592440D01*
X162807695Y-82842440D02*
X162807695Y-82342440D01*
X70859040Y-55280220D02*
X73799040Y-55280220D01*
X73799040Y-55280220D02*
X73799040Y-49840220D01*
X73799040Y-49840220D02*
X70859040Y-49840220D01*
X70859040Y-49840220D02*
X70859040Y-55280220D01*
X72329040Y-56300220D02*
X72329040Y-55280220D01*
X72329040Y-48820220D02*
X72329040Y-49840220D01*
X70859040Y-54380220D02*
X73799040Y-54380220D01*
X70859040Y-54260220D02*
X73799040Y-54260220D01*
X70859040Y-54500220D02*
X73799040Y-54500220D01*
X105637520Y-120510440D02*
X105637520Y-122750440D01*
X105877520Y-120510440D02*
X105877520Y-122750440D01*
X105757520Y-120510440D02*
X105757520Y-122750440D01*
X109927520Y-121630440D02*
X109277520Y-121630440D01*
X104387520Y-121630440D02*
X105037520Y-121630440D01*
X109277520Y-120510440D02*
X105037520Y-120510440D01*
X109277520Y-122750440D02*
X109277520Y-120510440D01*
X105037520Y-122750440D02*
X109277520Y-122750440D01*
X105037520Y-120510440D02*
X105037520Y-122750440D01*
X128734680Y-98342080D02*
X126494680Y-98342080D01*
X126494680Y-98342080D02*
X126494680Y-102582080D01*
X126494680Y-102582080D02*
X128734680Y-102582080D01*
X128734680Y-102582080D02*
X128734680Y-98342080D01*
X127614680Y-97692080D02*
X127614680Y-98342080D01*
X127614680Y-103232080D02*
X127614680Y-102582080D01*
X128734680Y-99062080D02*
X126494680Y-99062080D01*
X128734680Y-99182080D02*
X126494680Y-99182080D01*
X128734680Y-98942080D02*
X126494680Y-98942080D01*
X148313000Y-89165060D02*
X146073000Y-89165060D01*
X146073000Y-89165060D02*
X146073000Y-93405060D01*
X146073000Y-93405060D02*
X148313000Y-93405060D01*
X148313000Y-93405060D02*
X148313000Y-89165060D01*
X147193000Y-88515060D02*
X147193000Y-89165060D01*
X147193000Y-94055060D02*
X147193000Y-93405060D01*
X148313000Y-89885060D02*
X146073000Y-89885060D01*
X148313000Y-90005060D02*
X146073000Y-90005060D01*
X148313000Y-89765060D02*
X146073000Y-89765060D01*
X144990680Y-89759980D02*
X142750680Y-89759980D01*
X144990680Y-89999980D02*
X142750680Y-89999980D01*
X144990680Y-89879980D02*
X142750680Y-89879980D01*
X143870680Y-94049980D02*
X143870680Y-93399980D01*
X143870680Y-88509980D02*
X143870680Y-89159980D01*
X144990680Y-93399980D02*
X144990680Y-89159980D01*
X142750680Y-93399980D02*
X144990680Y-93399980D01*
X142750680Y-89159980D02*
X142750680Y-93399980D01*
X144990680Y-89159980D02*
X142750680Y-89159980D01*
X120064280Y-75543080D02*
X120064280Y-75213080D01*
X113524280Y-75543080D02*
X120064280Y-75543080D01*
X113524280Y-75213080D02*
X113524280Y-75543080D01*
X120064280Y-72803080D02*
X120064280Y-73133080D01*
X113524280Y-72803080D02*
X120064280Y-72803080D01*
X113524280Y-73133080D02*
X113524280Y-72803080D01*
X109490260Y-70153200D02*
X109490260Y-69823200D01*
X102950260Y-70153200D02*
X109490260Y-70153200D01*
X102950260Y-69823200D02*
X102950260Y-70153200D01*
X109490260Y-67413200D02*
X109490260Y-67743200D01*
X102950260Y-67413200D02*
X109490260Y-67413200D01*
X102950260Y-67743200D02*
X102950260Y-67413200D01*
X102945180Y-71616700D02*
X102945180Y-71286700D01*
X102945180Y-71286700D02*
X109485180Y-71286700D01*
X109485180Y-71286700D02*
X109485180Y-71616700D01*
X102945180Y-73696700D02*
X102945180Y-74026700D01*
X102945180Y-74026700D02*
X109485180Y-74026700D01*
X109485180Y-74026700D02*
X109485180Y-73696700D01*
X145177180Y-99216460D02*
X144847180Y-99216460D01*
X145177180Y-105756460D02*
X145177180Y-99216460D01*
X144847180Y-105756460D02*
X145177180Y-105756460D01*
X142437180Y-99216460D02*
X142767180Y-99216460D01*
X142437180Y-105756460D02*
X142437180Y-99216460D01*
X142767180Y-105756460D02*
X142437180Y-105756460D01*
X74522580Y-80171420D02*
X74522580Y-79841420D01*
X74522580Y-79841420D02*
X81062580Y-79841420D01*
X81062580Y-79841420D02*
X81062580Y-80171420D01*
X74522580Y-82251420D02*
X74522580Y-82581420D01*
X74522580Y-82581420D02*
X81062580Y-82581420D01*
X81062580Y-82581420D02*
X81062580Y-82251420D01*
X80321280Y-77465940D02*
X79991280Y-77465940D01*
X79991280Y-77465940D02*
X79991280Y-70925940D01*
X79991280Y-70925940D02*
X80321280Y-70925940D01*
X82401280Y-77465940D02*
X82731280Y-77465940D01*
X82731280Y-77465940D02*
X82731280Y-70925940D01*
X82731280Y-70925940D02*
X82401280Y-70925940D01*
X104448280Y-77428340D02*
X104118280Y-77428340D01*
X104448280Y-83968340D02*
X104448280Y-77428340D01*
X104118280Y-83968340D02*
X104448280Y-83968340D01*
X101708280Y-77428340D02*
X102038280Y-77428340D01*
X101708280Y-83968340D02*
X101708280Y-77428340D01*
X102038280Y-83968340D02*
X101708280Y-83968340D01*
X99299780Y-87786080D02*
X99299780Y-88116080D01*
X99299780Y-88116080D02*
X92759780Y-88116080D01*
X92759780Y-88116080D02*
X92759780Y-87786080D01*
X99299780Y-85706080D02*
X99299780Y-85376080D01*
X99299780Y-85376080D02*
X92759780Y-85376080D01*
X92759780Y-85376080D02*
X92759780Y-85706080D01*
X97864680Y-116906980D02*
X97864680Y-116576980D01*
X91324680Y-116906980D02*
X97864680Y-116906980D01*
X91324680Y-116576980D02*
X91324680Y-116906980D01*
X97864680Y-114166980D02*
X97864680Y-114496980D01*
X91324680Y-114166980D02*
X97864680Y-114166980D01*
X91324680Y-114496980D02*
X91324680Y-114166980D01*
X114410740Y-106691760D02*
X114410740Y-107021760D01*
X120950740Y-106691760D02*
X114410740Y-106691760D01*
X120950740Y-107021760D02*
X120950740Y-106691760D01*
X114410740Y-109431760D02*
X114410740Y-109101760D01*
X120950740Y-109431760D02*
X114410740Y-109431760D01*
X120950740Y-109101760D02*
X120950740Y-109431760D01*
X121164100Y-112820120D02*
X121164100Y-112490120D01*
X114624100Y-112820120D02*
X121164100Y-112820120D01*
X114624100Y-112490120D02*
X114624100Y-112820120D01*
X121164100Y-110080120D02*
X121164100Y-110410120D01*
X114624100Y-110080120D02*
X121164100Y-110080120D01*
X114624100Y-110410120D02*
X114624100Y-110080120D01*
X187138060Y-72274100D02*
X187138060Y-71944100D01*
X180598060Y-72274100D02*
X187138060Y-72274100D01*
X180598060Y-71944100D02*
X180598060Y-72274100D01*
X187138060Y-69534100D02*
X187138060Y-69864100D01*
X180598060Y-69534100D02*
X187138060Y-69534100D01*
X180598060Y-69864100D02*
X180598060Y-69534100D01*
X99307400Y-81944080D02*
X99307400Y-82274080D01*
X99307400Y-82274080D02*
X92767400Y-82274080D01*
X92767400Y-82274080D02*
X92767400Y-81944080D01*
X99307400Y-79864080D02*
X99307400Y-79534080D01*
X99307400Y-79534080D02*
X92767400Y-79534080D01*
X92767400Y-79534080D02*
X92767400Y-79864080D01*
X92642940Y-75444680D02*
X92642940Y-75774680D01*
X99182940Y-75444680D02*
X92642940Y-75444680D01*
X99182940Y-75774680D02*
X99182940Y-75444680D01*
X92642940Y-78184680D02*
X92642940Y-77854680D01*
X99182940Y-78184680D02*
X92642940Y-78184680D01*
X99182940Y-77854680D02*
X99182940Y-78184680D01*
X156468140Y-94605860D02*
X156798140Y-94605860D01*
X156468140Y-88065860D02*
X156468140Y-94605860D01*
X156798140Y-88065860D02*
X156468140Y-88065860D01*
X159208140Y-94605860D02*
X158878140Y-94605860D01*
X159208140Y-88065860D02*
X159208140Y-94605860D01*
X158878140Y-88065860D02*
X159208140Y-88065860D01*
X151296240Y-88015060D02*
X151626240Y-88015060D01*
X151626240Y-88015060D02*
X151626240Y-94555060D01*
X151626240Y-94555060D02*
X151296240Y-94555060D01*
X149216240Y-88015060D02*
X148886240Y-88015060D01*
X148886240Y-88015060D02*
X148886240Y-94555060D01*
X148886240Y-94555060D02*
X149216240Y-94555060D01*
X145304180Y-77753460D02*
X144974180Y-77753460D01*
X145304180Y-84293460D02*
X145304180Y-77753460D01*
X144974180Y-84293460D02*
X145304180Y-84293460D01*
X142564180Y-77753460D02*
X142894180Y-77753460D01*
X142564180Y-84293460D02*
X142564180Y-77753460D01*
X142894180Y-84293460D02*
X142564180Y-84293460D01*
X157532200Y-73815960D02*
X157202200Y-73815960D01*
X157202200Y-73815960D02*
X157202200Y-67275960D01*
X157202200Y-67275960D02*
X157532200Y-67275960D01*
X159612200Y-73815960D02*
X159942200Y-73815960D01*
X159942200Y-73815960D02*
X159942200Y-67275960D01*
X159942200Y-67275960D02*
X159612200Y-67275960D01*
X152368120Y-67288660D02*
X152698120Y-67288660D01*
X152698120Y-67288660D02*
X152698120Y-73828660D01*
X152698120Y-73828660D02*
X152368120Y-73828660D01*
X150288120Y-67288660D02*
X149958120Y-67288660D01*
X149958120Y-67288660D02*
X149958120Y-73828660D01*
X149958120Y-73828660D02*
X150288120Y-73828660D01*
X148580980Y-67250560D02*
X148910980Y-67250560D01*
X148910980Y-67250560D02*
X148910980Y-73790560D01*
X148910980Y-73790560D02*
X148580980Y-73790560D01*
X146500980Y-67250560D02*
X146170980Y-67250560D01*
X146170980Y-67250560D02*
X146170980Y-73790560D01*
X146170980Y-73790560D02*
X146500980Y-73790560D01*
X142790040Y-73815960D02*
X142460040Y-73815960D01*
X142460040Y-73815960D02*
X142460040Y-67275960D01*
X142460040Y-67275960D02*
X142790040Y-67275960D01*
X144870040Y-73815960D02*
X145200040Y-73815960D01*
X145200040Y-73815960D02*
X145200040Y-67275960D01*
X145200040Y-67275960D02*
X144870040Y-67275960D01*
X122449720Y-103793040D02*
X122119720Y-103793040D01*
X122119720Y-103793040D02*
X122119720Y-97253040D01*
X122119720Y-97253040D02*
X122449720Y-97253040D01*
X124529720Y-103793040D02*
X124859720Y-103793040D01*
X124859720Y-103793040D02*
X124859720Y-97253040D01*
X124859720Y-97253040D02*
X124529720Y-97253040D01*
X114707160Y-87892580D02*
X113057160Y-87892580D01*
X113057160Y-87892580D02*
X113057160Y-105792580D01*
X113057160Y-105792580D02*
X118357160Y-105792580D01*
X118357160Y-105792580D02*
X118357160Y-87892580D01*
X118357160Y-87892580D02*
X116707160Y-87892580D01*
X116707160Y-87892580D02*
G75*
G02*
X114707160Y-87892580I-1000000J0D01*
G01*
X146434500Y-82036160D02*
X146434500Y-83686160D01*
X146434500Y-83686160D02*
X156714500Y-83686160D01*
X156714500Y-83686160D02*
X156714500Y-78386160D01*
X156714500Y-78386160D02*
X146434500Y-78386160D01*
X146434500Y-78386160D02*
X146434500Y-80036160D01*
X146434500Y-80036160D02*
G75*
G02*
X146434500Y-82036160I0J-1000000D01*
G01*
X124051700Y-81198720D02*
G75*
G03*
X124051700Y-81198720I-2500000J0D01*
G01*
X123096700Y-78638720D02*
X120006700Y-78638720D01*
X121552162Y-84188720D02*
G75*
G02*
X120006870Y-78638720I-462J2990000D01*
G01*
X121551238Y-84188720D02*
G75*
G03*
X123096530Y-78638720I462J2990000D01*
G01*
X107647640Y-82108000D02*
X107647640Y-79888000D01*
X107647640Y-78608000D02*
X107647640Y-78198000D01*
X107147640Y-83598000D02*
X107147640Y-83798000D01*
X107147640Y-80098000D02*
X107147640Y-81848000D01*
X107647640Y-78198000D02*
X107147640Y-78198000D01*
X107647640Y-83798000D02*
X107647640Y-83388000D01*
X107147640Y-83798000D02*
X107647640Y-83798000D01*
X107147640Y-78198000D02*
X107147640Y-78398000D01*
X107867640Y-79348000D02*
X107737640Y-79348000D01*
X107867640Y-79098000D02*
X107867640Y-79348000D01*
X107867640Y-82898000D02*
X107737640Y-82898000D01*
X107867640Y-82648000D02*
X107867640Y-82898000D01*
X107867640Y-79098000D02*
X107737640Y-79098000D01*
X107867640Y-82648000D02*
X107737640Y-82648000D01*
X112322020Y-142065060D02*
X109232020Y-142065060D01*
X113277020Y-144625060D02*
G75*
G03*
X113277020Y-144625060I-2500000J0D01*
G01*
X110776558Y-147615060D02*
G75*
G03*
X112321850Y-142065060I462J2990000D01*
G01*
X110777482Y-147615060D02*
G75*
G02*
X109232190Y-142065060I-462J2990000D01*
G01*
X97486660Y-146493440D02*
X97356660Y-146493440D01*
X97486660Y-142943440D02*
X97356660Y-142943440D01*
X97486660Y-146493440D02*
X97486660Y-146743440D01*
X97486660Y-146743440D02*
X97356660Y-146743440D01*
X97486660Y-142943440D02*
X97486660Y-143193440D01*
X97486660Y-143193440D02*
X97356660Y-143193440D01*
X96766660Y-142043440D02*
X96766660Y-142243440D01*
X96766660Y-147643440D02*
X97266660Y-147643440D01*
X97266660Y-147643440D02*
X97266660Y-147233440D01*
X97266660Y-142043440D02*
X96766660Y-142043440D01*
X96766660Y-143943440D02*
X96766660Y-145693440D01*
X96766660Y-147443440D02*
X96766660Y-147643440D01*
X97266660Y-142453440D02*
X97266660Y-142043440D01*
X97266660Y-145953440D02*
X97266660Y-143733440D01*
D10*
X72829633Y-67231842D02*
X72782014Y-67279461D01*
X72639157Y-67327080D01*
X72543919Y-67327080D01*
X72401061Y-67279461D01*
X72305823Y-67184223D01*
X72258204Y-67088985D01*
X72210585Y-66898509D01*
X72210585Y-66755652D01*
X72258204Y-66565176D01*
X72305823Y-66469938D01*
X72401061Y-66374700D01*
X72543919Y-66327080D01*
X72639157Y-66327080D01*
X72782014Y-66374700D01*
X72829633Y-66422319D01*
X73210585Y-66422319D02*
X73258204Y-66374700D01*
X73353442Y-66327080D01*
X73591538Y-66327080D01*
X73686776Y-66374700D01*
X73734395Y-66422319D01*
X73782014Y-66517557D01*
X73782014Y-66612795D01*
X73734395Y-66755652D01*
X73162966Y-67327080D01*
X73782014Y-67327080D01*
X155443180Y-71209137D02*
X154966990Y-71542470D01*
X155443180Y-71780565D02*
X154443180Y-71780565D01*
X154443180Y-71399613D01*
X154490800Y-71304375D01*
X154538419Y-71256756D01*
X154633657Y-71209137D01*
X154776514Y-71209137D01*
X154871752Y-71256756D01*
X154919371Y-71304375D01*
X154966990Y-71399613D01*
X154966990Y-71780565D01*
X154538419Y-70828184D02*
X154490800Y-70780565D01*
X154443180Y-70685327D01*
X154443180Y-70447232D01*
X154490800Y-70351994D01*
X154538419Y-70304375D01*
X154633657Y-70256756D01*
X154728895Y-70256756D01*
X154871752Y-70304375D01*
X155443180Y-70875803D01*
X155443180Y-70256756D01*
X155443180Y-69304375D02*
X155443180Y-69875803D01*
X155443180Y-69590089D02*
X154443180Y-69590089D01*
X154586038Y-69685327D01*
X154681276Y-69780565D01*
X154728895Y-69875803D01*
X114384033Y-65524962D02*
X114336414Y-65572581D01*
X114193557Y-65620200D01*
X114098319Y-65620200D01*
X113955461Y-65572581D01*
X113860223Y-65477343D01*
X113812604Y-65382105D01*
X113764985Y-65191629D01*
X113764985Y-65048772D01*
X113812604Y-64858296D01*
X113860223Y-64763058D01*
X113955461Y-64667820D01*
X114098319Y-64620200D01*
X114193557Y-64620200D01*
X114336414Y-64667820D01*
X114384033Y-64715439D01*
X115336414Y-65620200D02*
X114764985Y-65620200D01*
X115050700Y-65620200D02*
X115050700Y-64620200D01*
X114955461Y-64763058D01*
X114860223Y-64858296D01*
X114764985Y-64905915D01*
X72853253Y-76480942D02*
X72805634Y-76528561D01*
X72662777Y-76576180D01*
X72567539Y-76576180D01*
X72424681Y-76528561D01*
X72329443Y-76433323D01*
X72281824Y-76338085D01*
X72234205Y-76147609D01*
X72234205Y-76004752D01*
X72281824Y-75814276D01*
X72329443Y-75719038D01*
X72424681Y-75623800D01*
X72567539Y-75576180D01*
X72662777Y-75576180D01*
X72805634Y-75623800D01*
X72853253Y-75671419D01*
X73186586Y-75576180D02*
X73805634Y-75576180D01*
X73472300Y-75957133D01*
X73615158Y-75957133D01*
X73710396Y-76004752D01*
X73758015Y-76052371D01*
X73805634Y-76147609D01*
X73805634Y-76385704D01*
X73758015Y-76480942D01*
X73710396Y-76528561D01*
X73615158Y-76576180D01*
X73329443Y-76576180D01*
X73234205Y-76528561D01*
X73186586Y-76480942D01*
X154695162Y-113549726D02*
X154742781Y-113597345D01*
X154790400Y-113740202D01*
X154790400Y-113835440D01*
X154742781Y-113978298D01*
X154647543Y-114073536D01*
X154552305Y-114121155D01*
X154361829Y-114168774D01*
X154218972Y-114168774D01*
X154028496Y-114121155D01*
X153933258Y-114073536D01*
X153838020Y-113978298D01*
X153790400Y-113835440D01*
X153790400Y-113740202D01*
X153838020Y-113597345D01*
X153885639Y-113549726D01*
X154123734Y-112692583D02*
X154790400Y-112692583D01*
X153742781Y-112930679D02*
X154457067Y-113168774D01*
X154457067Y-112549726D01*
X85215433Y-70514482D02*
X85167814Y-70562101D01*
X85024957Y-70609720D01*
X84929719Y-70609720D01*
X84786861Y-70562101D01*
X84691623Y-70466863D01*
X84644004Y-70371625D01*
X84596385Y-70181149D01*
X84596385Y-70038292D01*
X84644004Y-69847816D01*
X84691623Y-69752578D01*
X84786861Y-69657340D01*
X84929719Y-69609720D01*
X85024957Y-69609720D01*
X85167814Y-69657340D01*
X85215433Y-69704959D01*
X86120195Y-69609720D02*
X85644004Y-69609720D01*
X85596385Y-70085911D01*
X85644004Y-70038292D01*
X85739242Y-69990673D01*
X85977338Y-69990673D01*
X86072576Y-70038292D01*
X86120195Y-70085911D01*
X86167814Y-70181149D01*
X86167814Y-70419244D01*
X86120195Y-70514482D01*
X86072576Y-70562101D01*
X85977338Y-70609720D01*
X85739242Y-70609720D01*
X85644004Y-70562101D01*
X85596385Y-70514482D01*
X103800613Y-107463862D02*
X103752994Y-107511481D01*
X103610137Y-107559100D01*
X103514899Y-107559100D01*
X103372041Y-107511481D01*
X103276803Y-107416243D01*
X103229184Y-107321005D01*
X103181565Y-107130529D01*
X103181565Y-106987672D01*
X103229184Y-106797196D01*
X103276803Y-106701958D01*
X103372041Y-106606720D01*
X103514899Y-106559100D01*
X103610137Y-106559100D01*
X103752994Y-106606720D01*
X103800613Y-106654339D01*
X104657756Y-106559100D02*
X104467280Y-106559100D01*
X104372041Y-106606720D01*
X104324422Y-106654339D01*
X104229184Y-106797196D01*
X104181565Y-106987672D01*
X104181565Y-107368624D01*
X104229184Y-107463862D01*
X104276803Y-107511481D01*
X104372041Y-107559100D01*
X104562518Y-107559100D01*
X104657756Y-107511481D01*
X104705375Y-107463862D01*
X104752994Y-107368624D01*
X104752994Y-107130529D01*
X104705375Y-107035291D01*
X104657756Y-106987672D01*
X104562518Y-106940053D01*
X104372041Y-106940053D01*
X104276803Y-106987672D01*
X104229184Y-107035291D01*
X104181565Y-107130529D01*
X103846333Y-110638862D02*
X103798714Y-110686481D01*
X103655857Y-110734100D01*
X103560619Y-110734100D01*
X103417761Y-110686481D01*
X103322523Y-110591243D01*
X103274904Y-110496005D01*
X103227285Y-110305529D01*
X103227285Y-110162672D01*
X103274904Y-109972196D01*
X103322523Y-109876958D01*
X103417761Y-109781720D01*
X103560619Y-109734100D01*
X103655857Y-109734100D01*
X103798714Y-109781720D01*
X103846333Y-109829339D01*
X104179666Y-109734100D02*
X104846333Y-109734100D01*
X104417761Y-110734100D01*
X103836173Y-113760522D02*
X103788554Y-113808141D01*
X103645697Y-113855760D01*
X103550459Y-113855760D01*
X103407601Y-113808141D01*
X103312363Y-113712903D01*
X103264744Y-113617665D01*
X103217125Y-113427189D01*
X103217125Y-113284332D01*
X103264744Y-113093856D01*
X103312363Y-112998618D01*
X103407601Y-112903380D01*
X103550459Y-112855760D01*
X103645697Y-112855760D01*
X103788554Y-112903380D01*
X103836173Y-112950999D01*
X104407601Y-113284332D02*
X104312363Y-113236713D01*
X104264744Y-113189094D01*
X104217125Y-113093856D01*
X104217125Y-113046237D01*
X104264744Y-112950999D01*
X104312363Y-112903380D01*
X104407601Y-112855760D01*
X104598078Y-112855760D01*
X104693316Y-112903380D01*
X104740935Y-112950999D01*
X104788554Y-113046237D01*
X104788554Y-113093856D01*
X104740935Y-113189094D01*
X104693316Y-113236713D01*
X104598078Y-113284332D01*
X104407601Y-113284332D01*
X104312363Y-113331951D01*
X104264744Y-113379570D01*
X104217125Y-113474808D01*
X104217125Y-113665284D01*
X104264744Y-113760522D01*
X104312363Y-113808141D01*
X104407601Y-113855760D01*
X104598078Y-113855760D01*
X104693316Y-113808141D01*
X104740935Y-113760522D01*
X104788554Y-113665284D01*
X104788554Y-113474808D01*
X104740935Y-113379570D01*
X104693316Y-113331951D01*
X104598078Y-113284332D01*
X103833633Y-116856782D02*
X103786014Y-116904401D01*
X103643157Y-116952020D01*
X103547919Y-116952020D01*
X103405061Y-116904401D01*
X103309823Y-116809163D01*
X103262204Y-116713925D01*
X103214585Y-116523449D01*
X103214585Y-116380592D01*
X103262204Y-116190116D01*
X103309823Y-116094878D01*
X103405061Y-115999640D01*
X103547919Y-115952020D01*
X103643157Y-115952020D01*
X103786014Y-115999640D01*
X103833633Y-116047259D01*
X104309823Y-116952020D02*
X104500300Y-116952020D01*
X104595538Y-116904401D01*
X104643157Y-116856782D01*
X104738395Y-116713925D01*
X104786014Y-116523449D01*
X104786014Y-116142497D01*
X104738395Y-116047259D01*
X104690776Y-115999640D01*
X104595538Y-115952020D01*
X104405061Y-115952020D01*
X104309823Y-115999640D01*
X104262204Y-116047259D01*
X104214585Y-116142497D01*
X104214585Y-116380592D01*
X104262204Y-116475830D01*
X104309823Y-116523449D01*
X104405061Y-116571068D01*
X104595538Y-116571068D01*
X104690776Y-116523449D01*
X104738395Y-116475830D01*
X104786014Y-116380592D01*
X103342202Y-104377762D02*
X103294583Y-104425381D01*
X103151726Y-104473000D01*
X103056488Y-104473000D01*
X102913631Y-104425381D01*
X102818393Y-104330143D01*
X102770774Y-104234905D01*
X102723155Y-104044429D01*
X102723155Y-103901572D01*
X102770774Y-103711096D01*
X102818393Y-103615858D01*
X102913631Y-103520620D01*
X103056488Y-103473000D01*
X103151726Y-103473000D01*
X103294583Y-103520620D01*
X103342202Y-103568239D01*
X104294583Y-104473000D02*
X103723155Y-104473000D01*
X104008869Y-104473000D02*
X104008869Y-103473000D01*
X103913631Y-103615858D01*
X103818393Y-103711096D01*
X103723155Y-103758715D01*
X104913631Y-103473000D02*
X105008869Y-103473000D01*
X105104107Y-103520620D01*
X105151726Y-103568239D01*
X105199345Y-103663477D01*
X105246964Y-103853953D01*
X105246964Y-104092048D01*
X105199345Y-104282524D01*
X105151726Y-104377762D01*
X105104107Y-104425381D01*
X105008869Y-104473000D01*
X104913631Y-104473000D01*
X104818393Y-104425381D01*
X104770774Y-104377762D01*
X104723155Y-104282524D01*
X104675536Y-104092048D01*
X104675536Y-103853953D01*
X104723155Y-103663477D01*
X104770774Y-103568239D01*
X104818393Y-103520620D01*
X104913631Y-103473000D01*
X103337122Y-101278962D02*
X103289503Y-101326581D01*
X103146646Y-101374200D01*
X103051408Y-101374200D01*
X102908551Y-101326581D01*
X102813313Y-101231343D01*
X102765694Y-101136105D01*
X102718075Y-100945629D01*
X102718075Y-100802772D01*
X102765694Y-100612296D01*
X102813313Y-100517058D01*
X102908551Y-100421820D01*
X103051408Y-100374200D01*
X103146646Y-100374200D01*
X103289503Y-100421820D01*
X103337122Y-100469439D01*
X104289503Y-101374200D02*
X103718075Y-101374200D01*
X104003789Y-101374200D02*
X104003789Y-100374200D01*
X103908551Y-100517058D01*
X103813313Y-100612296D01*
X103718075Y-100659915D01*
X105241884Y-101374200D02*
X104670456Y-101374200D01*
X104956170Y-101374200D02*
X104956170Y-100374200D01*
X104860932Y-100517058D01*
X104765694Y-100612296D01*
X104670456Y-100659915D01*
X103329502Y-98154762D02*
X103281883Y-98202381D01*
X103139026Y-98250000D01*
X103043788Y-98250000D01*
X102900931Y-98202381D01*
X102805693Y-98107143D01*
X102758074Y-98011905D01*
X102710455Y-97821429D01*
X102710455Y-97678572D01*
X102758074Y-97488096D01*
X102805693Y-97392858D01*
X102900931Y-97297620D01*
X103043788Y-97250000D01*
X103139026Y-97250000D01*
X103281883Y-97297620D01*
X103329502Y-97345239D01*
X104281883Y-98250000D02*
X103710455Y-98250000D01*
X103996169Y-98250000D02*
X103996169Y-97250000D01*
X103900931Y-97392858D01*
X103805693Y-97488096D01*
X103710455Y-97535715D01*
X104662836Y-97345239D02*
X104710455Y-97297620D01*
X104805693Y-97250000D01*
X105043788Y-97250000D01*
X105139026Y-97297620D01*
X105186645Y-97345239D01*
X105234264Y-97440477D01*
X105234264Y-97535715D01*
X105186645Y-97678572D01*
X104615217Y-98250000D01*
X105234264Y-98250000D01*
X103352362Y-95007702D02*
X103304743Y-95055321D01*
X103161886Y-95102940D01*
X103066648Y-95102940D01*
X102923791Y-95055321D01*
X102828553Y-94960083D01*
X102780934Y-94864845D01*
X102733315Y-94674369D01*
X102733315Y-94531512D01*
X102780934Y-94341036D01*
X102828553Y-94245798D01*
X102923791Y-94150560D01*
X103066648Y-94102940D01*
X103161886Y-94102940D01*
X103304743Y-94150560D01*
X103352362Y-94198179D01*
X104304743Y-95102940D02*
X103733315Y-95102940D01*
X104019029Y-95102940D02*
X104019029Y-94102940D01*
X103923791Y-94245798D01*
X103828553Y-94341036D01*
X103733315Y-94388655D01*
X104638077Y-94102940D02*
X105257124Y-94102940D01*
X104923791Y-94483893D01*
X105066648Y-94483893D01*
X105161886Y-94531512D01*
X105209505Y-94579131D01*
X105257124Y-94674369D01*
X105257124Y-94912464D01*
X105209505Y-95007702D01*
X105161886Y-95055321D01*
X105066648Y-95102940D01*
X104780934Y-95102940D01*
X104685696Y-95055321D01*
X104638077Y-95007702D01*
X96798402Y-66507942D02*
X96750783Y-66555561D01*
X96607926Y-66603180D01*
X96512688Y-66603180D01*
X96369831Y-66555561D01*
X96274593Y-66460323D01*
X96226974Y-66365085D01*
X96179355Y-66174609D01*
X96179355Y-66031752D01*
X96226974Y-65841276D01*
X96274593Y-65746038D01*
X96369831Y-65650800D01*
X96512688Y-65603180D01*
X96607926Y-65603180D01*
X96750783Y-65650800D01*
X96798402Y-65698419D01*
X97750783Y-66603180D02*
X97179355Y-66603180D01*
X97465069Y-66603180D02*
X97465069Y-65603180D01*
X97369831Y-65746038D01*
X97274593Y-65841276D01*
X97179355Y-65888895D01*
X98607926Y-65936514D02*
X98607926Y-66603180D01*
X98369831Y-65555561D02*
X98131736Y-66269847D01*
X98750783Y-66269847D01*
X107461322Y-131602717D02*
X107508941Y-131650336D01*
X107556560Y-131793193D01*
X107556560Y-131888431D01*
X107508941Y-132031288D01*
X107413703Y-132126526D01*
X107318465Y-132174145D01*
X107127989Y-132221764D01*
X106985132Y-132221764D01*
X106794656Y-132174145D01*
X106699418Y-132126526D01*
X106604180Y-132031288D01*
X106556560Y-131888431D01*
X106556560Y-131793193D01*
X106604180Y-131650336D01*
X106651799Y-131602717D01*
X107556560Y-130650336D02*
X107556560Y-131221764D01*
X107556560Y-130936050D02*
X106556560Y-130936050D01*
X106699418Y-131031288D01*
X106794656Y-131126526D01*
X106842275Y-131221764D01*
X106556560Y-129745574D02*
X106556560Y-130221764D01*
X107032751Y-130269383D01*
X106985132Y-130221764D01*
X106937513Y-130126526D01*
X106937513Y-129888431D01*
X106985132Y-129793193D01*
X107032751Y-129745574D01*
X107127989Y-129697955D01*
X107366084Y-129697955D01*
X107461322Y-129745574D01*
X107508941Y-129793193D01*
X107556560Y-129888431D01*
X107556560Y-130126526D01*
X107508941Y-130221764D01*
X107461322Y-130269383D01*
X140024242Y-113199822D02*
X139976623Y-113247441D01*
X139833766Y-113295060D01*
X139738528Y-113295060D01*
X139595671Y-113247441D01*
X139500433Y-113152203D01*
X139452814Y-113056965D01*
X139405195Y-112866489D01*
X139405195Y-112723632D01*
X139452814Y-112533156D01*
X139500433Y-112437918D01*
X139595671Y-112342680D01*
X139738528Y-112295060D01*
X139833766Y-112295060D01*
X139976623Y-112342680D01*
X140024242Y-112390299D01*
X140976623Y-113295060D02*
X140405195Y-113295060D01*
X140690909Y-113295060D02*
X140690909Y-112295060D01*
X140595671Y-112437918D01*
X140500433Y-112533156D01*
X140405195Y-112580775D01*
X141833766Y-112295060D02*
X141643290Y-112295060D01*
X141548052Y-112342680D01*
X141500433Y-112390299D01*
X141405195Y-112533156D01*
X141357576Y-112723632D01*
X141357576Y-113104584D01*
X141405195Y-113199822D01*
X141452814Y-113247441D01*
X141548052Y-113295060D01*
X141738528Y-113295060D01*
X141833766Y-113247441D01*
X141881385Y-113199822D01*
X141929004Y-113104584D01*
X141929004Y-112866489D01*
X141881385Y-112771251D01*
X141833766Y-112723632D01*
X141738528Y-112676013D01*
X141548052Y-112676013D01*
X141452814Y-112723632D01*
X141405195Y-112771251D01*
X141357576Y-112866489D01*
X68833002Y-83190662D02*
X68785383Y-83238281D01*
X68642526Y-83285900D01*
X68547288Y-83285900D01*
X68404431Y-83238281D01*
X68309193Y-83143043D01*
X68261574Y-83047805D01*
X68213955Y-82857329D01*
X68213955Y-82714472D01*
X68261574Y-82523996D01*
X68309193Y-82428758D01*
X68404431Y-82333520D01*
X68547288Y-82285900D01*
X68642526Y-82285900D01*
X68785383Y-82333520D01*
X68833002Y-82381139D01*
X69785383Y-83285900D02*
X69213955Y-83285900D01*
X69499669Y-83285900D02*
X69499669Y-82285900D01*
X69404431Y-82428758D01*
X69309193Y-82523996D01*
X69213955Y-82571615D01*
X70118717Y-82285900D02*
X70785383Y-82285900D01*
X70356812Y-83285900D01*
X161568402Y-92270817D02*
X161616021Y-92318436D01*
X161663640Y-92461293D01*
X161663640Y-92556531D01*
X161616021Y-92699388D01*
X161520783Y-92794626D01*
X161425545Y-92842245D01*
X161235069Y-92889864D01*
X161092212Y-92889864D01*
X160901736Y-92842245D01*
X160806498Y-92794626D01*
X160711260Y-92699388D01*
X160663640Y-92556531D01*
X160663640Y-92461293D01*
X160711260Y-92318436D01*
X160758879Y-92270817D01*
X161663640Y-91318436D02*
X161663640Y-91889864D01*
X161663640Y-91604150D02*
X160663640Y-91604150D01*
X160806498Y-91699388D01*
X160901736Y-91794626D01*
X160949355Y-91889864D01*
X161092212Y-90747007D02*
X161044593Y-90842245D01*
X160996974Y-90889864D01*
X160901736Y-90937483D01*
X160854117Y-90937483D01*
X160758879Y-90889864D01*
X160711260Y-90842245D01*
X160663640Y-90747007D01*
X160663640Y-90556531D01*
X160711260Y-90461293D01*
X160758879Y-90413674D01*
X160854117Y-90366055D01*
X160901736Y-90366055D01*
X160996974Y-90413674D01*
X161044593Y-90461293D01*
X161092212Y-90556531D01*
X161092212Y-90747007D01*
X161139831Y-90842245D01*
X161187450Y-90889864D01*
X161282688Y-90937483D01*
X161473164Y-90937483D01*
X161568402Y-90889864D01*
X161616021Y-90842245D01*
X161663640Y-90747007D01*
X161663640Y-90556531D01*
X161616021Y-90461293D01*
X161568402Y-90413674D01*
X161473164Y-90366055D01*
X161282688Y-90366055D01*
X161187450Y-90413674D01*
X161139831Y-90461293D01*
X161092212Y-90556531D01*
X154403062Y-92270817D02*
X154450681Y-92318436D01*
X154498300Y-92461293D01*
X154498300Y-92556531D01*
X154450681Y-92699388D01*
X154355443Y-92794626D01*
X154260205Y-92842245D01*
X154069729Y-92889864D01*
X153926872Y-92889864D01*
X153736396Y-92842245D01*
X153641158Y-92794626D01*
X153545920Y-92699388D01*
X153498300Y-92556531D01*
X153498300Y-92461293D01*
X153545920Y-92318436D01*
X153593539Y-92270817D01*
X154498300Y-91318436D02*
X154498300Y-91889864D01*
X154498300Y-91604150D02*
X153498300Y-91604150D01*
X153641158Y-91699388D01*
X153736396Y-91794626D01*
X153784015Y-91889864D01*
X154498300Y-90842245D02*
X154498300Y-90651769D01*
X154450681Y-90556531D01*
X154403062Y-90508912D01*
X154260205Y-90413674D01*
X154069729Y-90366055D01*
X153688777Y-90366055D01*
X153593539Y-90413674D01*
X153545920Y-90461293D01*
X153498300Y-90556531D01*
X153498300Y-90747007D01*
X153545920Y-90842245D01*
X153593539Y-90889864D01*
X153688777Y-90937483D01*
X153926872Y-90937483D01*
X154022110Y-90889864D01*
X154069729Y-90842245D01*
X154117348Y-90747007D01*
X154117348Y-90556531D01*
X154069729Y-90461293D01*
X154022110Y-90413674D01*
X153926872Y-90366055D01*
X159610062Y-85224582D02*
X159562443Y-85272201D01*
X159419586Y-85319820D01*
X159324348Y-85319820D01*
X159181491Y-85272201D01*
X159086253Y-85176963D01*
X159038634Y-85081725D01*
X158991015Y-84891249D01*
X158991015Y-84748392D01*
X159038634Y-84557916D01*
X159086253Y-84462678D01*
X159181491Y-84367440D01*
X159324348Y-84319820D01*
X159419586Y-84319820D01*
X159562443Y-84367440D01*
X159610062Y-84415059D01*
X159991015Y-84415059D02*
X160038634Y-84367440D01*
X160133872Y-84319820D01*
X160371967Y-84319820D01*
X160467205Y-84367440D01*
X160514824Y-84415059D01*
X160562443Y-84510297D01*
X160562443Y-84605535D01*
X160514824Y-84748392D01*
X159943396Y-85319820D01*
X160562443Y-85319820D01*
X161181491Y-84319820D02*
X161276729Y-84319820D01*
X161371967Y-84367440D01*
X161419586Y-84415059D01*
X161467205Y-84510297D01*
X161514824Y-84700773D01*
X161514824Y-84938868D01*
X161467205Y-85129344D01*
X161419586Y-85224582D01*
X161371967Y-85272201D01*
X161276729Y-85319820D01*
X161181491Y-85319820D01*
X161086253Y-85272201D01*
X161038634Y-85224582D01*
X160991015Y-85129344D01*
X160943396Y-84938868D01*
X160943396Y-84700773D01*
X160991015Y-84510297D01*
X161038634Y-84415059D01*
X161086253Y-84367440D01*
X161181491Y-84319820D01*
X72773800Y-52912235D02*
X71773800Y-52912235D01*
X71773800Y-52674140D01*
X71821420Y-52531282D01*
X71916658Y-52436044D01*
X72011896Y-52388425D01*
X72202372Y-52340806D01*
X72345229Y-52340806D01*
X72535705Y-52388425D01*
X72630943Y-52436044D01*
X72726181Y-52531282D01*
X72773800Y-52674140D01*
X72773800Y-52912235D01*
X72773800Y-51388425D02*
X72773800Y-51959854D01*
X72773800Y-51674140D02*
X71773800Y-51674140D01*
X71916658Y-51769378D01*
X72011896Y-51864616D01*
X72059515Y-51959854D01*
X106734384Y-122090440D02*
X106734384Y-121090440D01*
X106972480Y-121090440D01*
X107115337Y-121138060D01*
X107210575Y-121233298D01*
X107258194Y-121328536D01*
X107305813Y-121519012D01*
X107305813Y-121661869D01*
X107258194Y-121852345D01*
X107210575Y-121947583D01*
X107115337Y-122042821D01*
X106972480Y-122090440D01*
X106734384Y-122090440D01*
X107686765Y-121185679D02*
X107734384Y-121138060D01*
X107829622Y-121090440D01*
X108067718Y-121090440D01*
X108162956Y-121138060D01*
X108210575Y-121185679D01*
X108258194Y-121280917D01*
X108258194Y-121376155D01*
X108210575Y-121519012D01*
X107639146Y-122090440D01*
X108258194Y-122090440D01*
X128067060Y-101540535D02*
X127067060Y-101540535D01*
X127067060Y-101302440D01*
X127114680Y-101159582D01*
X127209918Y-101064344D01*
X127305156Y-101016725D01*
X127495632Y-100969106D01*
X127638489Y-100969106D01*
X127828965Y-101016725D01*
X127924203Y-101064344D01*
X128019441Y-101159582D01*
X128067060Y-101302440D01*
X128067060Y-101540535D01*
X127067060Y-100635773D02*
X127067060Y-100016725D01*
X127448013Y-100350059D01*
X127448013Y-100207201D01*
X127495632Y-100111963D01*
X127543251Y-100064344D01*
X127638489Y-100016725D01*
X127876584Y-100016725D01*
X127971822Y-100064344D01*
X128019441Y-100111963D01*
X128067060Y-100207201D01*
X128067060Y-100492916D01*
X128019441Y-100588154D01*
X127971822Y-100635773D01*
X147619980Y-92358435D02*
X146619980Y-92358435D01*
X146619980Y-92120340D01*
X146667600Y-91977482D01*
X146762838Y-91882244D01*
X146858076Y-91834625D01*
X147048552Y-91787006D01*
X147191409Y-91787006D01*
X147381885Y-91834625D01*
X147477123Y-91882244D01*
X147572361Y-91977482D01*
X147619980Y-92120340D01*
X147619980Y-92358435D01*
X146953314Y-90929863D02*
X147619980Y-90929863D01*
X146572361Y-91167959D02*
X147286647Y-91406054D01*
X147286647Y-90787006D01*
X144358620Y-92432095D02*
X143358620Y-92432095D01*
X143358620Y-92194000D01*
X143406240Y-92051142D01*
X143501478Y-91955904D01*
X143596716Y-91908285D01*
X143787192Y-91860666D01*
X143930049Y-91860666D01*
X144120525Y-91908285D01*
X144215763Y-91955904D01*
X144311001Y-92051142D01*
X144358620Y-92194000D01*
X144358620Y-92432095D01*
X143358620Y-90955904D02*
X143358620Y-91432095D01*
X143834811Y-91479714D01*
X143787192Y-91432095D01*
X143739573Y-91336857D01*
X143739573Y-91098761D01*
X143787192Y-91003523D01*
X143834811Y-90955904D01*
X143930049Y-90908285D01*
X144168144Y-90908285D01*
X144263382Y-90955904D01*
X144311001Y-91003523D01*
X144358620Y-91098761D01*
X144358620Y-91336857D01*
X144311001Y-91432095D01*
X144263382Y-91479714D01*
X116487913Y-74574660D02*
X116154580Y-74098470D01*
X115916484Y-74574660D02*
X115916484Y-73574660D01*
X116297437Y-73574660D01*
X116392675Y-73622280D01*
X116440294Y-73669899D01*
X116487913Y-73765137D01*
X116487913Y-73907994D01*
X116440294Y-74003232D01*
X116392675Y-74050851D01*
X116297437Y-74098470D01*
X115916484Y-74098470D01*
X117440294Y-74574660D02*
X116868865Y-74574660D01*
X117154580Y-74574660D02*
X117154580Y-73574660D01*
X117059341Y-73717518D01*
X116964103Y-73812756D01*
X116868865Y-73860375D01*
X106048513Y-69230500D02*
X105715180Y-68754310D01*
X105477084Y-69230500D02*
X105477084Y-68230500D01*
X105858037Y-68230500D01*
X105953275Y-68278120D01*
X106000894Y-68325739D01*
X106048513Y-68420977D01*
X106048513Y-68563834D01*
X106000894Y-68659072D01*
X105953275Y-68706691D01*
X105858037Y-68754310D01*
X105477084Y-68754310D01*
X106429465Y-68325739D02*
X106477084Y-68278120D01*
X106572322Y-68230500D01*
X106810418Y-68230500D01*
X106905656Y-68278120D01*
X106953275Y-68325739D01*
X107000894Y-68420977D01*
X107000894Y-68516215D01*
X106953275Y-68659072D01*
X106381846Y-69230500D01*
X107000894Y-69230500D01*
X105995173Y-73195440D02*
X105661840Y-72719250D01*
X105423744Y-73195440D02*
X105423744Y-72195440D01*
X105804697Y-72195440D01*
X105899935Y-72243060D01*
X105947554Y-72290679D01*
X105995173Y-72385917D01*
X105995173Y-72528774D01*
X105947554Y-72624012D01*
X105899935Y-72671631D01*
X105804697Y-72719250D01*
X105423744Y-72719250D01*
X106328506Y-72195440D02*
X106947554Y-72195440D01*
X106614220Y-72576393D01*
X106757078Y-72576393D01*
X106852316Y-72624012D01*
X106899935Y-72671631D01*
X106947554Y-72766869D01*
X106947554Y-73004964D01*
X106899935Y-73100202D01*
X106852316Y-73147821D01*
X106757078Y-73195440D01*
X106471363Y-73195440D01*
X106376125Y-73147821D01*
X106328506Y-73100202D01*
X144033500Y-103067146D02*
X143557310Y-103400480D01*
X144033500Y-103638575D02*
X143033500Y-103638575D01*
X143033500Y-103257622D01*
X143081120Y-103162384D01*
X143128739Y-103114765D01*
X143223977Y-103067146D01*
X143366834Y-103067146D01*
X143462072Y-103114765D01*
X143509691Y-103162384D01*
X143557310Y-103257622D01*
X143557310Y-103638575D01*
X143366834Y-102210003D02*
X144033500Y-102210003D01*
X142985881Y-102448099D02*
X143700167Y-102686194D01*
X143700167Y-102067146D01*
X77694493Y-81663800D02*
X77361160Y-81187610D01*
X77123064Y-81663800D02*
X77123064Y-80663800D01*
X77504017Y-80663800D01*
X77599255Y-80711420D01*
X77646874Y-80759039D01*
X77694493Y-80854277D01*
X77694493Y-80997134D01*
X77646874Y-81092372D01*
X77599255Y-81139991D01*
X77504017Y-81187610D01*
X77123064Y-81187610D01*
X78599255Y-80663800D02*
X78123064Y-80663800D01*
X78075445Y-81139991D01*
X78123064Y-81092372D01*
X78218302Y-81044753D01*
X78456398Y-81044753D01*
X78551636Y-81092372D01*
X78599255Y-81139991D01*
X78646874Y-81235229D01*
X78646874Y-81473324D01*
X78599255Y-81568562D01*
X78551636Y-81616181D01*
X78456398Y-81663800D01*
X78218302Y-81663800D01*
X78123064Y-81616181D01*
X78075445Y-81568562D01*
X81762860Y-74342286D02*
X81286670Y-74675620D01*
X81762860Y-74913715D02*
X80762860Y-74913715D01*
X80762860Y-74532762D01*
X80810480Y-74437524D01*
X80858099Y-74389905D01*
X80953337Y-74342286D01*
X81096194Y-74342286D01*
X81191432Y-74389905D01*
X81239051Y-74437524D01*
X81286670Y-74532762D01*
X81286670Y-74913715D01*
X80762860Y-73485143D02*
X80762860Y-73675620D01*
X80810480Y-73770858D01*
X80858099Y-73818477D01*
X81000956Y-73913715D01*
X81191432Y-73961334D01*
X81572384Y-73961334D01*
X81667622Y-73913715D01*
X81715241Y-73866096D01*
X81762860Y-73770858D01*
X81762860Y-73580381D01*
X81715241Y-73485143D01*
X81667622Y-73437524D01*
X81572384Y-73389905D01*
X81334289Y-73389905D01*
X81239051Y-73437524D01*
X81191432Y-73485143D01*
X81143813Y-73580381D01*
X81143813Y-73770858D01*
X81191432Y-73866096D01*
X81239051Y-73913715D01*
X81334289Y-73961334D01*
X103530660Y-80852306D02*
X103054470Y-81185640D01*
X103530660Y-81423735D02*
X102530660Y-81423735D01*
X102530660Y-81042782D01*
X102578280Y-80947544D01*
X102625899Y-80899925D01*
X102721137Y-80852306D01*
X102863994Y-80852306D01*
X102959232Y-80899925D01*
X103006851Y-80947544D01*
X103054470Y-81042782D01*
X103054470Y-81423735D01*
X102530660Y-80518973D02*
X102530660Y-79852306D01*
X103530660Y-80280878D01*
X95845333Y-87185760D02*
X95512000Y-86709570D01*
X95273904Y-87185760D02*
X95273904Y-86185760D01*
X95654857Y-86185760D01*
X95750095Y-86233380D01*
X95797714Y-86280999D01*
X95845333Y-86376237D01*
X95845333Y-86519094D01*
X95797714Y-86614332D01*
X95750095Y-86661951D01*
X95654857Y-86709570D01*
X95273904Y-86709570D01*
X96416761Y-86614332D02*
X96321523Y-86566713D01*
X96273904Y-86519094D01*
X96226285Y-86423856D01*
X96226285Y-86376237D01*
X96273904Y-86280999D01*
X96321523Y-86233380D01*
X96416761Y-86185760D01*
X96607238Y-86185760D01*
X96702476Y-86233380D01*
X96750095Y-86280999D01*
X96797714Y-86376237D01*
X96797714Y-86423856D01*
X96750095Y-86519094D01*
X96702476Y-86566713D01*
X96607238Y-86614332D01*
X96416761Y-86614332D01*
X96321523Y-86661951D01*
X96273904Y-86709570D01*
X96226285Y-86804808D01*
X96226285Y-86995284D01*
X96273904Y-87090522D01*
X96321523Y-87138141D01*
X96416761Y-87185760D01*
X96607238Y-87185760D01*
X96702476Y-87138141D01*
X96750095Y-87090522D01*
X96797714Y-86995284D01*
X96797714Y-86804808D01*
X96750095Y-86709570D01*
X96702476Y-86661951D01*
X96607238Y-86614332D01*
X94430553Y-116004600D02*
X94097220Y-115528410D01*
X93859124Y-116004600D02*
X93859124Y-115004600D01*
X94240077Y-115004600D01*
X94335315Y-115052220D01*
X94382934Y-115099839D01*
X94430553Y-115195077D01*
X94430553Y-115337934D01*
X94382934Y-115433172D01*
X94335315Y-115480791D01*
X94240077Y-115528410D01*
X93859124Y-115528410D01*
X94906743Y-116004600D02*
X95097220Y-116004600D01*
X95192458Y-115956981D01*
X95240077Y-115909362D01*
X95335315Y-115766505D01*
X95382934Y-115576029D01*
X95382934Y-115195077D01*
X95335315Y-115099839D01*
X95287696Y-115052220D01*
X95192458Y-115004600D01*
X95001981Y-115004600D01*
X94906743Y-115052220D01*
X94859124Y-115099839D01*
X94811505Y-115195077D01*
X94811505Y-115433172D01*
X94859124Y-115528410D01*
X94906743Y-115576029D01*
X95001981Y-115623648D01*
X95192458Y-115623648D01*
X95287696Y-115576029D01*
X95335315Y-115528410D01*
X95382934Y-115433172D01*
X117045502Y-108470960D02*
X116712169Y-107994770D01*
X116474074Y-108470960D02*
X116474074Y-107470960D01*
X116855026Y-107470960D01*
X116950264Y-107518580D01*
X116997883Y-107566199D01*
X117045502Y-107661437D01*
X117045502Y-107804294D01*
X116997883Y-107899532D01*
X116950264Y-107947151D01*
X116855026Y-107994770D01*
X116474074Y-107994770D01*
X117997883Y-108470960D02*
X117426455Y-108470960D01*
X117712169Y-108470960D02*
X117712169Y-107470960D01*
X117616931Y-107613818D01*
X117521693Y-107709056D01*
X117426455Y-107756675D01*
X118616931Y-107470960D02*
X118712169Y-107470960D01*
X118807407Y-107518580D01*
X118855026Y-107566199D01*
X118902645Y-107661437D01*
X118950264Y-107851913D01*
X118950264Y-108090008D01*
X118902645Y-108280484D01*
X118855026Y-108375722D01*
X118807407Y-108423341D01*
X118712169Y-108470960D01*
X118616931Y-108470960D01*
X118521693Y-108423341D01*
X118474074Y-108375722D01*
X118426455Y-108280484D01*
X118378836Y-108090008D01*
X118378836Y-107851913D01*
X118426455Y-107661437D01*
X118474074Y-107566199D01*
X118521693Y-107518580D01*
X118616931Y-107470960D01*
X117223302Y-111950760D02*
X116889969Y-111474570D01*
X116651874Y-111950760D02*
X116651874Y-110950760D01*
X117032826Y-110950760D01*
X117128064Y-110998380D01*
X117175683Y-111045999D01*
X117223302Y-111141237D01*
X117223302Y-111284094D01*
X117175683Y-111379332D01*
X117128064Y-111426951D01*
X117032826Y-111474570D01*
X116651874Y-111474570D01*
X118175683Y-111950760D02*
X117604255Y-111950760D01*
X117889969Y-111950760D02*
X117889969Y-110950760D01*
X117794731Y-111093618D01*
X117699493Y-111188856D01*
X117604255Y-111236475D01*
X119128064Y-111950760D02*
X118556636Y-111950760D01*
X118842350Y-111950760D02*
X118842350Y-110950760D01*
X118747112Y-111093618D01*
X118651874Y-111188856D01*
X118556636Y-111236475D01*
X183237902Y-71359020D02*
X182904569Y-70882830D01*
X182666474Y-71359020D02*
X182666474Y-70359020D01*
X183047426Y-70359020D01*
X183142664Y-70406640D01*
X183190283Y-70454259D01*
X183237902Y-70549497D01*
X183237902Y-70692354D01*
X183190283Y-70787592D01*
X183142664Y-70835211D01*
X183047426Y-70882830D01*
X182666474Y-70882830D01*
X184190283Y-71359020D02*
X183618855Y-71359020D01*
X183904569Y-71359020D02*
X183904569Y-70359020D01*
X183809331Y-70501878D01*
X183714093Y-70597116D01*
X183618855Y-70644735D01*
X184571236Y-70454259D02*
X184618855Y-70406640D01*
X184714093Y-70359020D01*
X184952188Y-70359020D01*
X185047426Y-70406640D01*
X185095045Y-70454259D01*
X185142664Y-70549497D01*
X185142664Y-70644735D01*
X185095045Y-70787592D01*
X184523617Y-71359020D01*
X185142664Y-71359020D01*
X95493602Y-81356460D02*
X95160269Y-80880270D01*
X94922174Y-81356460D02*
X94922174Y-80356460D01*
X95303126Y-80356460D01*
X95398364Y-80404080D01*
X95445983Y-80451699D01*
X95493602Y-80546937D01*
X95493602Y-80689794D01*
X95445983Y-80785032D01*
X95398364Y-80832651D01*
X95303126Y-80880270D01*
X94922174Y-80880270D01*
X96445983Y-81356460D02*
X95874555Y-81356460D01*
X96160269Y-81356460D02*
X96160269Y-80356460D01*
X96065031Y-80499318D01*
X95969793Y-80594556D01*
X95874555Y-80642175D01*
X96779317Y-80356460D02*
X97398364Y-80356460D01*
X97065031Y-80737413D01*
X97207888Y-80737413D01*
X97303126Y-80785032D01*
X97350745Y-80832651D01*
X97398364Y-80927889D01*
X97398364Y-81165984D01*
X97350745Y-81261222D01*
X97303126Y-81308841D01*
X97207888Y-81356460D01*
X96922174Y-81356460D01*
X96826936Y-81308841D01*
X96779317Y-81261222D01*
X95242142Y-77267060D02*
X94908809Y-76790870D01*
X94670714Y-77267060D02*
X94670714Y-76267060D01*
X95051666Y-76267060D01*
X95146904Y-76314680D01*
X95194523Y-76362299D01*
X95242142Y-76457537D01*
X95242142Y-76600394D01*
X95194523Y-76695632D01*
X95146904Y-76743251D01*
X95051666Y-76790870D01*
X94670714Y-76790870D01*
X96194523Y-77267060D02*
X95623095Y-77267060D01*
X95908809Y-77267060D02*
X95908809Y-76267060D01*
X95813571Y-76409918D01*
X95718333Y-76505156D01*
X95623095Y-76552775D01*
X97051666Y-76600394D02*
X97051666Y-77267060D01*
X96813571Y-76219441D02*
X96575476Y-76933727D01*
X97194523Y-76933727D01*
X158326080Y-92004117D02*
X157849890Y-92337450D01*
X158326080Y-92575545D02*
X157326080Y-92575545D01*
X157326080Y-92194593D01*
X157373700Y-92099355D01*
X157421319Y-92051736D01*
X157516557Y-92004117D01*
X157659414Y-92004117D01*
X157754652Y-92051736D01*
X157802271Y-92099355D01*
X157849890Y-92194593D01*
X157849890Y-92575545D01*
X158326080Y-91051736D02*
X158326080Y-91623164D01*
X158326080Y-91337450D02*
X157326080Y-91337450D01*
X157468938Y-91432688D01*
X157564176Y-91527926D01*
X157611795Y-91623164D01*
X157326080Y-90146974D02*
X157326080Y-90623164D01*
X157802271Y-90670783D01*
X157754652Y-90623164D01*
X157707033Y-90527926D01*
X157707033Y-90289831D01*
X157754652Y-90194593D01*
X157802271Y-90146974D01*
X157897509Y-90099355D01*
X158135604Y-90099355D01*
X158230842Y-90146974D01*
X158278461Y-90194593D01*
X158326080Y-90289831D01*
X158326080Y-90527926D01*
X158278461Y-90623164D01*
X158230842Y-90670783D01*
X150731480Y-91953317D02*
X150255290Y-92286650D01*
X150731480Y-92524745D02*
X149731480Y-92524745D01*
X149731480Y-92143793D01*
X149779100Y-92048555D01*
X149826719Y-92000936D01*
X149921957Y-91953317D01*
X150064814Y-91953317D01*
X150160052Y-92000936D01*
X150207671Y-92048555D01*
X150255290Y-92143793D01*
X150255290Y-92524745D01*
X150731480Y-91000936D02*
X150731480Y-91572364D01*
X150731480Y-91286650D02*
X149731480Y-91286650D01*
X149874338Y-91381888D01*
X149969576Y-91477126D01*
X150017195Y-91572364D01*
X149731480Y-90143793D02*
X149731480Y-90334269D01*
X149779100Y-90429507D01*
X149826719Y-90477126D01*
X149969576Y-90572364D01*
X150160052Y-90619983D01*
X150541004Y-90619983D01*
X150636242Y-90572364D01*
X150683861Y-90524745D01*
X150731480Y-90429507D01*
X150731480Y-90239031D01*
X150683861Y-90143793D01*
X150636242Y-90096174D01*
X150541004Y-90048555D01*
X150302909Y-90048555D01*
X150207671Y-90096174D01*
X150160052Y-90143793D01*
X150112433Y-90239031D01*
X150112433Y-90429507D01*
X150160052Y-90524745D01*
X150207671Y-90572364D01*
X150302909Y-90619983D01*
X144366240Y-81689177D02*
X143890050Y-82022510D01*
X144366240Y-82260605D02*
X143366240Y-82260605D01*
X143366240Y-81879653D01*
X143413860Y-81784415D01*
X143461479Y-81736796D01*
X143556717Y-81689177D01*
X143699574Y-81689177D01*
X143794812Y-81736796D01*
X143842431Y-81784415D01*
X143890050Y-81879653D01*
X143890050Y-82260605D01*
X144366240Y-80736796D02*
X144366240Y-81308224D01*
X144366240Y-81022510D02*
X143366240Y-81022510D01*
X143509098Y-81117748D01*
X143604336Y-81212986D01*
X143651955Y-81308224D01*
X143366240Y-80403462D02*
X143366240Y-79736796D01*
X144366240Y-80165367D01*
X159039820Y-71158337D02*
X158563630Y-71491670D01*
X159039820Y-71729765D02*
X158039820Y-71729765D01*
X158039820Y-71348813D01*
X158087440Y-71253575D01*
X158135059Y-71205956D01*
X158230297Y-71158337D01*
X158373154Y-71158337D01*
X158468392Y-71205956D01*
X158516011Y-71253575D01*
X158563630Y-71348813D01*
X158563630Y-71729765D01*
X159039820Y-70205956D02*
X159039820Y-70777384D01*
X159039820Y-70491670D02*
X158039820Y-70491670D01*
X158182678Y-70586908D01*
X158277916Y-70682146D01*
X158325535Y-70777384D01*
X158468392Y-69634527D02*
X158420773Y-69729765D01*
X158373154Y-69777384D01*
X158277916Y-69825003D01*
X158230297Y-69825003D01*
X158135059Y-69777384D01*
X158087440Y-69729765D01*
X158039820Y-69634527D01*
X158039820Y-69444051D01*
X158087440Y-69348813D01*
X158135059Y-69301194D01*
X158230297Y-69253575D01*
X158277916Y-69253575D01*
X158373154Y-69301194D01*
X158420773Y-69348813D01*
X158468392Y-69444051D01*
X158468392Y-69634527D01*
X158516011Y-69729765D01*
X158563630Y-69777384D01*
X158658868Y-69825003D01*
X158849344Y-69825003D01*
X158944582Y-69777384D01*
X158992201Y-69729765D01*
X159039820Y-69634527D01*
X159039820Y-69444051D01*
X158992201Y-69348813D01*
X158944582Y-69301194D01*
X158849344Y-69253575D01*
X158658868Y-69253575D01*
X158563630Y-69301194D01*
X158516011Y-69348813D01*
X158468392Y-69444051D01*
X151810980Y-71183737D02*
X151334790Y-71517070D01*
X151810980Y-71755165D02*
X150810980Y-71755165D01*
X150810980Y-71374213D01*
X150858600Y-71278975D01*
X150906219Y-71231356D01*
X151001457Y-71183737D01*
X151144314Y-71183737D01*
X151239552Y-71231356D01*
X151287171Y-71278975D01*
X151334790Y-71374213D01*
X151334790Y-71755165D01*
X151810980Y-70231356D02*
X151810980Y-70802784D01*
X151810980Y-70517070D02*
X150810980Y-70517070D01*
X150953838Y-70612308D01*
X151049076Y-70707546D01*
X151096695Y-70802784D01*
X151810980Y-69755165D02*
X151810980Y-69564689D01*
X151763361Y-69469451D01*
X151715742Y-69421832D01*
X151572885Y-69326594D01*
X151382409Y-69278975D01*
X151001457Y-69278975D01*
X150906219Y-69326594D01*
X150858600Y-69374213D01*
X150810980Y-69469451D01*
X150810980Y-69659927D01*
X150858600Y-69755165D01*
X150906219Y-69802784D01*
X151001457Y-69850403D01*
X151239552Y-69850403D01*
X151334790Y-69802784D01*
X151382409Y-69755165D01*
X151430028Y-69659927D01*
X151430028Y-69469451D01*
X151382409Y-69374213D01*
X151334790Y-69326594D01*
X151239552Y-69278975D01*
X147962880Y-71171037D02*
X147486690Y-71504370D01*
X147962880Y-71742465D02*
X146962880Y-71742465D01*
X146962880Y-71361513D01*
X147010500Y-71266275D01*
X147058119Y-71218656D01*
X147153357Y-71171037D01*
X147296214Y-71171037D01*
X147391452Y-71218656D01*
X147439071Y-71266275D01*
X147486690Y-71361513D01*
X147486690Y-71742465D01*
X147058119Y-70790084D02*
X147010500Y-70742465D01*
X146962880Y-70647227D01*
X146962880Y-70409132D01*
X147010500Y-70313894D01*
X147058119Y-70266275D01*
X147153357Y-70218656D01*
X147248595Y-70218656D01*
X147391452Y-70266275D01*
X147962880Y-70837703D01*
X147962880Y-70218656D01*
X146962880Y-69599608D02*
X146962880Y-69504370D01*
X147010500Y-69409132D01*
X147058119Y-69361513D01*
X147153357Y-69313894D01*
X147343833Y-69266275D01*
X147581928Y-69266275D01*
X147772404Y-69313894D01*
X147867642Y-69361513D01*
X147915261Y-69409132D01*
X147962880Y-69504370D01*
X147962880Y-69599608D01*
X147915261Y-69694846D01*
X147867642Y-69742465D01*
X147772404Y-69790084D01*
X147581928Y-69837703D01*
X147343833Y-69837703D01*
X147153357Y-69790084D01*
X147058119Y-69742465D01*
X147010500Y-69694846D01*
X146962880Y-69599608D01*
X144282420Y-71224377D02*
X143806230Y-71557710D01*
X144282420Y-71795805D02*
X143282420Y-71795805D01*
X143282420Y-71414853D01*
X143330040Y-71319615D01*
X143377659Y-71271996D01*
X143472897Y-71224377D01*
X143615754Y-71224377D01*
X143710992Y-71271996D01*
X143758611Y-71319615D01*
X143806230Y-71414853D01*
X143806230Y-71795805D01*
X143377659Y-70843424D02*
X143330040Y-70795805D01*
X143282420Y-70700567D01*
X143282420Y-70462472D01*
X143330040Y-70367234D01*
X143377659Y-70319615D01*
X143472897Y-70271996D01*
X143568135Y-70271996D01*
X143710992Y-70319615D01*
X144282420Y-70891043D01*
X144282420Y-70271996D01*
X143377659Y-69891043D02*
X143330040Y-69843424D01*
X143282420Y-69748186D01*
X143282420Y-69510091D01*
X143330040Y-69414853D01*
X143377659Y-69367234D01*
X143472897Y-69319615D01*
X143568135Y-69319615D01*
X143710992Y-69367234D01*
X144282420Y-69938662D01*
X144282420Y-69319615D01*
X123942100Y-101219237D02*
X123465910Y-101552570D01*
X123942100Y-101790665D02*
X122942100Y-101790665D01*
X122942100Y-101409713D01*
X122989720Y-101314475D01*
X123037339Y-101266856D01*
X123132577Y-101219237D01*
X123275434Y-101219237D01*
X123370672Y-101266856D01*
X123418291Y-101314475D01*
X123465910Y-101409713D01*
X123465910Y-101790665D01*
X123037339Y-100838284D02*
X122989720Y-100790665D01*
X122942100Y-100695427D01*
X122942100Y-100457332D01*
X122989720Y-100362094D01*
X123037339Y-100314475D01*
X123132577Y-100266856D01*
X123227815Y-100266856D01*
X123370672Y-100314475D01*
X123942100Y-100885903D01*
X123942100Y-100266856D01*
X122942100Y-99933522D02*
X122942100Y-99314475D01*
X123323053Y-99647808D01*
X123323053Y-99504951D01*
X123370672Y-99409713D01*
X123418291Y-99362094D01*
X123513529Y-99314475D01*
X123751624Y-99314475D01*
X123846862Y-99362094D01*
X123894481Y-99409713D01*
X123942100Y-99504951D01*
X123942100Y-99790665D01*
X123894481Y-99885903D01*
X123846862Y-99933522D01*
X114940175Y-96249240D02*
X114940175Y-97058764D01*
X114987794Y-97154002D01*
X115035413Y-97201621D01*
X115130651Y-97249240D01*
X115321127Y-97249240D01*
X115416365Y-97201621D01*
X115463984Y-97154002D01*
X115511603Y-97058764D01*
X115511603Y-96249240D01*
X116511603Y-97249240D02*
X115940175Y-97249240D01*
X116225889Y-97249240D02*
X116225889Y-96249240D01*
X116130651Y-96392098D01*
X116035413Y-96487336D01*
X115940175Y-96534955D01*
X151014180Y-81787904D02*
X151823704Y-81787904D01*
X151918942Y-81740285D01*
X151966561Y-81692666D01*
X152014180Y-81597428D01*
X152014180Y-81406952D01*
X151966561Y-81311714D01*
X151918942Y-81264095D01*
X151823704Y-81216476D01*
X151014180Y-81216476D01*
X151109419Y-80787904D02*
X151061800Y-80740285D01*
X151014180Y-80645047D01*
X151014180Y-80406952D01*
X151061800Y-80311714D01*
X151109419Y-80264095D01*
X151204657Y-80216476D01*
X151299895Y-80216476D01*
X151442752Y-80264095D01*
X152014180Y-80835523D01*
X152014180Y-80216476D01*
X124964080Y-82984434D02*
X125964080Y-82651100D01*
X124964080Y-82317767D01*
X125964080Y-81460624D02*
X125964080Y-82032053D01*
X125964080Y-81746339D02*
X124964080Y-81746339D01*
X125106938Y-81841577D01*
X125202176Y-81936815D01*
X125249795Y-82032053D01*
X125964080Y-81032053D02*
X124964080Y-81032053D01*
X124964080Y-80793958D01*
X125011700Y-80651100D01*
X125106938Y-80555862D01*
X125202176Y-80508243D01*
X125392652Y-80460624D01*
X125535509Y-80460624D01*
X125725985Y-80508243D01*
X125821223Y-80555862D01*
X125916461Y-80651100D01*
X125964080Y-80793958D01*
X125964080Y-81032053D01*
X125964080Y-79508243D02*
X125964080Y-80079672D01*
X125964080Y-79793958D02*
X124964080Y-79793958D01*
X125106938Y-79889196D01*
X125202176Y-79984434D01*
X125249795Y-80079672D01*
X108090020Y-82783714D02*
X109090020Y-82450380D01*
X108090020Y-82117047D01*
X109090020Y-81259904D02*
X109090020Y-81831333D01*
X109090020Y-81545619D02*
X108090020Y-81545619D01*
X108232878Y-81640857D01*
X108328116Y-81736095D01*
X108375735Y-81831333D01*
X109090020Y-80259904D02*
X108613830Y-80593238D01*
X109090020Y-80831333D02*
X108090020Y-80831333D01*
X108090020Y-80450380D01*
X108137640Y-80355142D01*
X108185259Y-80307523D01*
X108280497Y-80259904D01*
X108423354Y-80259904D01*
X108518592Y-80307523D01*
X108566211Y-80355142D01*
X108613830Y-80450380D01*
X108613830Y-80831333D01*
X109090020Y-79307523D02*
X109090020Y-79878952D01*
X109090020Y-79593238D02*
X108090020Y-79593238D01*
X108232878Y-79688476D01*
X108328116Y-79783714D01*
X108375735Y-79878952D01*
X114189400Y-146410774D02*
X115189400Y-146077440D01*
X114189400Y-145744107D01*
X114284639Y-145458393D02*
X114237020Y-145410774D01*
X114189400Y-145315536D01*
X114189400Y-145077440D01*
X114237020Y-144982202D01*
X114284639Y-144934583D01*
X114379877Y-144886964D01*
X114475115Y-144886964D01*
X114617972Y-144934583D01*
X115189400Y-145506012D01*
X115189400Y-144886964D01*
X115189400Y-144458393D02*
X114189400Y-144458393D01*
X114189400Y-144220298D01*
X114237020Y-144077440D01*
X114332258Y-143982202D01*
X114427496Y-143934583D01*
X114617972Y-143886964D01*
X114760829Y-143886964D01*
X114951305Y-143934583D01*
X115046543Y-143982202D01*
X115141781Y-144077440D01*
X115189400Y-144220298D01*
X115189400Y-144458393D01*
X115189400Y-142934583D02*
X115189400Y-143506012D01*
X115189400Y-143220298D02*
X114189400Y-143220298D01*
X114332258Y-143315536D01*
X114427496Y-143410774D01*
X114475115Y-143506012D01*
X97709040Y-146629154D02*
X98709040Y-146295820D01*
X97709040Y-145962487D01*
X97804279Y-145676773D02*
X97756660Y-145629154D01*
X97709040Y-145533916D01*
X97709040Y-145295820D01*
X97756660Y-145200582D01*
X97804279Y-145152963D01*
X97899517Y-145105344D01*
X97994755Y-145105344D01*
X98137612Y-145152963D01*
X98709040Y-145724392D01*
X98709040Y-145105344D01*
X98709040Y-144105344D02*
X98232850Y-144438678D01*
X98709040Y-144676773D02*
X97709040Y-144676773D01*
X97709040Y-144295820D01*
X97756660Y-144200582D01*
X97804279Y-144152963D01*
X97899517Y-144105344D01*
X98042374Y-144105344D01*
X98137612Y-144152963D01*
X98185231Y-144200582D01*
X98232850Y-144295820D01*
X98232850Y-144676773D01*
X98709040Y-143152963D02*
X98709040Y-143724392D01*
X98709040Y-143438678D02*
X97709040Y-143438678D01*
X97851898Y-143533916D01*
X97947136Y-143629154D01*
X97994755Y-143724392D01*
M02*
