G04 #@! TF.GenerationSoftware,KiCad,Pcbnew,5.1.6*
G04 #@! TF.CreationDate,2020-09-20T22:12:03+01:00*
G04 #@! TF.ProjectId,EnvelopeFollower,456e7665-6c6f-4706-9546-6f6c6c6f7765,V2.0*
G04 #@! TF.SameCoordinates,Original*
G04 #@! TF.FileFunction,Profile,NP*
%FSLAX46Y46*%
G04 Gerber Fmt 4.6, Leading zero omitted, Abs format (unit mm)*
G04 Created by KiCad (PCBNEW 5.1.6) date 2020-09-20 22:12:03*
%MOMM*%
%LPD*%
G01*
G04 APERTURE LIST*
G04 #@! TA.AperFunction,Profile*
%ADD10C,0.200000*%
G04 #@! TD*
G04 APERTURE END LIST*
D10*
X147347940Y-152326340D02*
X192662321Y-152326793D01*
X147353020Y-121318020D02*
X147347940Y-152326340D01*
X117099080Y-121315480D02*
X117101620Y-152326340D01*
X117099080Y-121315480D02*
X147353020Y-121318020D01*
X69943342Y-148370586D02*
X70017293Y-148558991D01*
X70017293Y-148558991D02*
X70084214Y-148750001D01*
X70084214Y-148750001D02*
X70144052Y-148943350D01*
X70144052Y-148943350D02*
X70196753Y-149138771D01*
X70196753Y-149138771D02*
X70242265Y-149335998D01*
X70242265Y-149335998D02*
X70280534Y-149534766D01*
X70280534Y-149534766D02*
X70311506Y-149734809D01*
X70311506Y-149734809D02*
X70335129Y-149935860D01*
X70335129Y-149935860D02*
X70351349Y-150137655D01*
X70351349Y-150137655D02*
X70360112Y-150339926D01*
X70360112Y-150339926D02*
X70361787Y-150474908D01*
X68751655Y-146586925D02*
X68892072Y-146732666D01*
X68892072Y-146732666D02*
X69026990Y-146883508D01*
X69026990Y-146883508D02*
X69156258Y-147039221D01*
X69156258Y-147039221D02*
X69279723Y-147199579D01*
X69279723Y-147199579D02*
X69397234Y-147364356D01*
X69397234Y-147364356D02*
X69508639Y-147533324D01*
X69508639Y-147533324D02*
X69613787Y-147706256D01*
X69613787Y-147706256D02*
X69712526Y-147882925D01*
X69712526Y-147882925D02*
X69804703Y-148063104D01*
X69804703Y-148063104D02*
X69890169Y-148246566D01*
X69890169Y-148246566D02*
X69943342Y-148370586D01*
X66967994Y-145395239D02*
X67153518Y-145476144D01*
X67153518Y-145476144D02*
X67335911Y-145563864D01*
X67335911Y-145563864D02*
X67514946Y-145658245D01*
X67514946Y-145658245D02*
X67690394Y-145759137D01*
X67690394Y-145759137D02*
X67862030Y-145866387D01*
X67862030Y-145866387D02*
X68029626Y-145979845D01*
X68029626Y-145979845D02*
X68192955Y-146099357D01*
X68192955Y-146099357D02*
X68351790Y-146224773D01*
X68351790Y-146224773D02*
X68505905Y-146355941D01*
X68505905Y-146355941D02*
X68655071Y-146492709D01*
X68655071Y-146492709D02*
X68751655Y-146586925D01*
X64863672Y-144976793D02*
X65066113Y-144980556D01*
X65066113Y-144980556D02*
X65268256Y-144991811D01*
X65268256Y-144991811D02*
X65469832Y-145010505D01*
X65469832Y-145010505D02*
X65670577Y-145036583D01*
X65670577Y-145036583D02*
X65870224Y-145069994D01*
X65870224Y-145069994D02*
X66068509Y-145110683D01*
X66068509Y-145110683D02*
X66265163Y-145158597D01*
X66265163Y-145158597D02*
X66459923Y-145213683D01*
X66459923Y-145213683D02*
X66652521Y-145275888D01*
X66652521Y-145275888D02*
X66842692Y-145345159D01*
X66842692Y-145345159D02*
X66967994Y-145395239D01*
X70361787Y-150474908D02*
X70361787Y-151327136D01*
X70978840Y-152250712D02*
X71178434Y-152309847D01*
X71178434Y-152309847D02*
X71361444Y-152326793D01*
X70654538Y-152034042D02*
X70816288Y-152165048D01*
X70816288Y-152165048D02*
X70978840Y-152250712D01*
X70437868Y-151709740D02*
X70537160Y-151892690D01*
X70537160Y-151892690D02*
X70654538Y-152034042D01*
X70361787Y-151327136D02*
X70383518Y-151534210D01*
X70383518Y-151534210D02*
X70437868Y-151709740D01*
X71361444Y-152326793D02*
X117101620Y-152326340D01*
X193585897Y-151709740D02*
X193645032Y-151510145D01*
X193645032Y-151510145D02*
X193661978Y-151327136D01*
X193369227Y-152034042D02*
X193500233Y-151872291D01*
X193500233Y-151872291D02*
X193585897Y-151709740D01*
X193044925Y-152250712D02*
X193227875Y-152151419D01*
X193227875Y-152151419D02*
X193369227Y-152034042D01*
X192662321Y-152326793D02*
X192869395Y-152305061D01*
X192869395Y-152305061D02*
X193044925Y-152250712D01*
X193661978Y-151327136D02*
X193661978Y-150474908D01*
X193661978Y-150474908D02*
G75*
G02*
X199160093Y-144976793I5498115J0D01*
G01*
X199160093Y-144976793D02*
X200012321Y-144976793D01*
X200935897Y-144359740D02*
X200995032Y-144160145D01*
X200995032Y-144160145D02*
X201011978Y-143977136D01*
X200719227Y-144684042D02*
X200850233Y-144522291D01*
X200850233Y-144522291D02*
X200935897Y-144359740D01*
X200394925Y-144900712D02*
X200577875Y-144801419D01*
X200577875Y-144801419D02*
X200719227Y-144684042D01*
X200012321Y-144976793D02*
X200219395Y-144955061D01*
X200219395Y-144955061D02*
X200394925Y-144900712D01*
X201011978Y-143977136D02*
X201011978Y-46676260D01*
X200394925Y-45752683D02*
X200195330Y-45693547D01*
X200195330Y-45693547D02*
X200012321Y-45676602D01*
X200719227Y-45969354D02*
X200557476Y-45838346D01*
X200557476Y-45838346D02*
X200394925Y-45752683D01*
X200935897Y-46293656D02*
X200836604Y-46110704D01*
X200836604Y-46110704D02*
X200719227Y-45969354D01*
X201011978Y-46676260D02*
X200990246Y-46469185D01*
X200990246Y-46469185D02*
X200935897Y-46293656D01*
X200012321Y-45676602D02*
X199160093Y-45676602D01*
X194080423Y-42282809D02*
X194006471Y-42094403D01*
X194006471Y-42094403D02*
X193939550Y-41903393D01*
X193939550Y-41903393D02*
X193879712Y-41710045D01*
X193879712Y-41710045D02*
X193827011Y-41514624D01*
X193827011Y-41514624D02*
X193781499Y-41317397D01*
X193781499Y-41317397D02*
X193743230Y-41118629D01*
X193743230Y-41118629D02*
X193712258Y-40918586D01*
X193712258Y-40918586D02*
X193688635Y-40717534D01*
X193688635Y-40717534D02*
X193672415Y-40515740D01*
X193672415Y-40515740D02*
X193663652Y-40313468D01*
X193663652Y-40313468D02*
X193661978Y-40178487D01*
X195272110Y-44066470D02*
X195131692Y-43920728D01*
X195131692Y-43920728D02*
X194996774Y-43769887D01*
X194996774Y-43769887D02*
X194867506Y-43614174D01*
X194867506Y-43614174D02*
X194744041Y-43453815D01*
X194744041Y-43453815D02*
X194626530Y-43289039D01*
X194626530Y-43289039D02*
X194515125Y-43120071D01*
X194515125Y-43120071D02*
X194409977Y-42947139D01*
X194409977Y-42947139D02*
X194311238Y-42770470D01*
X194311238Y-42770470D02*
X194219061Y-42590291D01*
X194219061Y-42590291D02*
X194133595Y-42406828D01*
X194133595Y-42406828D02*
X194080423Y-42282809D01*
X197055771Y-45258157D02*
X196870246Y-45177250D01*
X196870246Y-45177250D02*
X196687853Y-45089531D01*
X196687853Y-45089531D02*
X196508818Y-44995149D01*
X196508818Y-44995149D02*
X196333370Y-44894257D01*
X196333370Y-44894257D02*
X196161734Y-44787007D01*
X196161734Y-44787007D02*
X195994138Y-44673549D01*
X195994138Y-44673549D02*
X195830809Y-44554037D01*
X195830809Y-44554037D02*
X195671974Y-44428621D01*
X195671974Y-44428621D02*
X195517859Y-44297453D01*
X195517859Y-44297453D02*
X195368693Y-44160685D01*
X195368693Y-44160685D02*
X195272110Y-44066470D01*
X199160093Y-45676602D02*
X198957651Y-45672838D01*
X198957651Y-45672838D02*
X198755509Y-45661583D01*
X198755509Y-45661583D02*
X198553933Y-45642889D01*
X198553933Y-45642889D02*
X198353188Y-45616811D01*
X198353188Y-45616811D02*
X198153540Y-45583400D01*
X198153540Y-45583400D02*
X197955256Y-45542711D01*
X197955256Y-45542711D02*
X197758601Y-45494797D01*
X197758601Y-45494797D02*
X197563842Y-45439711D01*
X197563842Y-45439711D02*
X197371243Y-45377506D01*
X197371243Y-45377506D02*
X197181072Y-45308236D01*
X197181072Y-45308236D02*
X197055771Y-45258157D01*
X193661978Y-40178487D02*
X193661978Y-39326260D01*
X193044925Y-38402683D02*
X192845330Y-38343547D01*
X192845330Y-38343547D02*
X192662321Y-38326602D01*
X193369227Y-38619354D02*
X193207476Y-38488346D01*
X193207476Y-38488346D02*
X193044925Y-38402683D01*
X193585897Y-38943656D02*
X193486604Y-38760704D01*
X193486604Y-38760704D02*
X193369227Y-38619354D01*
X193661978Y-39326260D02*
X193640246Y-39119185D01*
X193640246Y-39119185D02*
X193585897Y-38943656D01*
X192662321Y-38326602D02*
X71361444Y-38326602D01*
X70437868Y-38943656D02*
X70378732Y-39143250D01*
X70378732Y-39143250D02*
X70361787Y-39326260D01*
X70654538Y-38619354D02*
X70523531Y-38781103D01*
X70523531Y-38781103D02*
X70437868Y-38943656D01*
X70978840Y-38402683D02*
X70795889Y-38501975D01*
X70795889Y-38501975D02*
X70654538Y-38619354D01*
X71361444Y-38326602D02*
X71154369Y-38348333D01*
X71154369Y-38348333D02*
X70978840Y-38402683D01*
X70361787Y-39326260D02*
X70361787Y-40178487D01*
X66967994Y-45258157D02*
X66779588Y-45332108D01*
X66779588Y-45332108D02*
X66588578Y-45399029D01*
X66588578Y-45399029D02*
X66395230Y-45458867D01*
X66395230Y-45458867D02*
X66199809Y-45511568D01*
X66199809Y-45511568D02*
X66002582Y-45557080D01*
X66002582Y-45557080D02*
X65803814Y-45595349D01*
X65803814Y-45595349D02*
X65603771Y-45626321D01*
X65603771Y-45626321D02*
X65402719Y-45649944D01*
X65402719Y-45649944D02*
X65200925Y-45666164D01*
X65200925Y-45666164D02*
X64998653Y-45674927D01*
X64998653Y-45674927D02*
X64863672Y-45676602D01*
X68751655Y-44066470D02*
X68605913Y-44206887D01*
X68605913Y-44206887D02*
X68455072Y-44341805D01*
X68455072Y-44341805D02*
X68299359Y-44471073D01*
X68299359Y-44471073D02*
X68139000Y-44594538D01*
X68139000Y-44594538D02*
X67974224Y-44712049D01*
X67974224Y-44712049D02*
X67805256Y-44823454D01*
X67805256Y-44823454D02*
X67632324Y-44928602D01*
X67632324Y-44928602D02*
X67455655Y-45027341D01*
X67455655Y-45027341D02*
X67275476Y-45119518D01*
X67275476Y-45119518D02*
X67092013Y-45204984D01*
X67092013Y-45204984D02*
X66967994Y-45258157D01*
X69943342Y-42282809D02*
X69862435Y-42468333D01*
X69862435Y-42468333D02*
X69774716Y-42650726D01*
X69774716Y-42650726D02*
X69680334Y-42829761D01*
X69680334Y-42829761D02*
X69579442Y-43005209D01*
X69579442Y-43005209D02*
X69472192Y-43176845D01*
X69472192Y-43176845D02*
X69358734Y-43344441D01*
X69358734Y-43344441D02*
X69239222Y-43507770D01*
X69239222Y-43507770D02*
X69113806Y-43666605D01*
X69113806Y-43666605D02*
X68982638Y-43820720D01*
X68982638Y-43820720D02*
X68845870Y-43969886D01*
X68845870Y-43969886D02*
X68751655Y-44066470D01*
X70361787Y-40178487D02*
X70358023Y-40380928D01*
X70358023Y-40380928D02*
X70346768Y-40583071D01*
X70346768Y-40583071D02*
X70328074Y-40784647D01*
X70328074Y-40784647D02*
X70301996Y-40985392D01*
X70301996Y-40985392D02*
X70268585Y-41185039D01*
X70268585Y-41185039D02*
X70227896Y-41383324D01*
X70227896Y-41383324D02*
X70179982Y-41579978D01*
X70179982Y-41579978D02*
X70124896Y-41774738D01*
X70124896Y-41774738D02*
X70062691Y-41967336D01*
X70062691Y-41967336D02*
X69993421Y-42157507D01*
X69993421Y-42157507D02*
X69943342Y-42282809D01*
X64863672Y-45676602D02*
X64011444Y-45676602D01*
X63087868Y-46293656D02*
X63028732Y-46493250D01*
X63028732Y-46493250D02*
X63011787Y-46676260D01*
X63304538Y-45969354D02*
X63173531Y-46131103D01*
X63173531Y-46131103D02*
X63087868Y-46293656D01*
X63628840Y-45752683D02*
X63445889Y-45851975D01*
X63445889Y-45851975D02*
X63304538Y-45969354D01*
X64011444Y-45676602D02*
X63804369Y-45698333D01*
X63804369Y-45698333D02*
X63628840Y-45752683D01*
X63011787Y-46676260D02*
X63011787Y-143977136D01*
X63628840Y-144900712D02*
X63828434Y-144959847D01*
X63828434Y-144959847D02*
X64011444Y-144976793D01*
X63304538Y-144684042D02*
X63466288Y-144815048D01*
X63466288Y-144815048D02*
X63628840Y-144900712D01*
X63087868Y-144359740D02*
X63187160Y-144542690D01*
X63187160Y-144542690D02*
X63304538Y-144684042D01*
X63011787Y-143977136D02*
X63033518Y-144184210D01*
X63033518Y-144184210D02*
X63087868Y-144359740D01*
X64011444Y-144976793D02*
X64863672Y-144976793D01*
M02*
